<svg width="58" height="55" viewBox="0 0 58 55" fill="none" xmlns="http://www.w3.org/2000/svg">
<g id="Group 4478">
<path id="Vector" d="M5.04495 40.9361C5.03623 39.7096 5.0798 38.8803 5.35858 38.0862C5.40214 37.945 5.45441 37.8038 5.46312 37.6626C5.54153 36.3656 6.2472 35.4215 7.04871 34.4686C11.9275 28.6805 16.9805 23.06 22.4952 17.8808C24.6645 15.8426 26.7815 13.7515 28.9944 11.7839C32.3224 8.82804 35.9815 6.34869 39.8235 4.13403C41.4701 3.18994 43.1864 2.39584 45.0333 1.91938C45.6954 1.75174 46.3663 1.68115 47.0458 1.68115C48.8579 1.68115 50.0602 2.62525 50.7833 4.23109C51.2538 5.28107 51.3409 6.40163 51.2363 7.54866C51.0447 9.52508 50.4784 11.3868 49.7204 13.2044C48.4223 16.3014 46.6102 19.0719 44.5455 21.6924C42.5417 24.2247 40.3811 26.607 38.1421 28.9276C33.8296 33.3833 29.2645 37.5568 24.438 41.4302C21.9638 43.4154 19.2805 45.0919 16.3793 46.3801C14.9157 47.033 13.4172 47.5889 11.8229 47.8271C10.8472 47.9771 9.87143 47.933 8.93924 47.6771C7.0313 47.1565 5.89873 45.8066 5.45441 43.9095C5.19305 42.8155 5.02752 41.6949 5.05365 40.9361H5.04495Z" fill="#D2CD7D"/>
<path id="Vector_2" d="M57.9742 28.5362C58.1046 30.6078 57.7308 32.3122 57.1311 33.9642C56.4531 35.8435 55.5579 37.6266 54.3758 39.2349C51.6292 42.9584 48.5783 46.411 44.9799 49.313C42.1638 51.5768 39.0608 53.3424 35.5232 54.2427C34.1586 54.5924 32.7853 54.8196 31.3685 54.4438C30.7601 54.2777 30.169 54.0679 29.6214 53.7445C28.5089 53.0802 27.8657 52.11 27.7614 50.7989C27.6918 49.9161 27.7875 49.0507 28.0308 48.2029C28.3524 47.0753 28.8131 46.0002 29.4389 45.0125C30.7079 43.0022 31.9422 40.9656 33.3155 39.0251C35.0017 36.6476 37.0008 34.5149 39.2172 32.6269C41.3989 30.7739 43.7022 29.0781 46.0229 27.4261C47.2137 26.5783 48.474 25.879 49.8213 25.3109C51.0381 24.7952 52.3071 24.5155 53.6109 24.4019C54.2367 24.3494 54.8625 24.3756 55.4883 24.5155C56.992 24.8651 57.9134 25.9752 57.9742 27.5048C57.9916 27.9419 57.9742 28.3789 57.9742 28.5275V28.5362Z" fill="#D2CD7D"/>
<path id="Vector_3" d="M26.0571 3.41398C26.0746 4.34785 25.8209 5.23808 25.5584 6.11958C24.8934 8.28406 23.7735 10.2042 22.4174 11.9934C20.0726 15.1004 17.4215 17.9369 14.7267 20.7473C13.0468 22.5016 11.2882 24.186 9.38087 25.6872C8.15596 26.656 6.83481 27.4676 5.37367 28.0524C4.78746 28.2881 4.18376 28.4801 3.55381 28.5499C1.76894 28.7419 0.666518 28.0088 0.159056 26.2981C-0.0421791 25.6261 -0.0509226 24.9541 0.124064 24.2907C0.360297 23.3481 0.622773 22.4143 0.885253 21.4804C1.04274 20.9218 1.29648 20.3894 1.23523 19.7872C1.19149 19.3159 1.5152 18.9755 1.78643 18.6352C2.81886 17.3435 3.84253 16.0518 4.87495 14.76C6.69481 12.4821 8.56718 10.2478 10.5708 8.13569C12.7581 5.83157 15.2167 3.86783 17.8327 2.07864C19.2589 1.10986 20.825 0.507645 22.5049 0.106169C24.5872 -0.391312 26.0921 0.909122 26.0571 2.96887C26.0571 3.11724 26.0571 3.25688 26.0571 3.40526V3.41398Z" fill="#D2CD7D"/>
<path id="Vector_4" d="M15.2798 50.4348C12.56 50.4348 11.1263 48.3804 12.0473 45.7504C12.4297 44.67 12.9945 43.696 13.7679 42.8724C16.2183 40.269 19.1206 38.4006 22.4921 37.2848C23.1873 37.0546 23.9085 36.9572 24.6297 36.9926C26.1678 37.0634 27.0976 38.2146 26.8629 39.7731C26.7587 40.5081 26.5241 41.2077 26.1678 41.8541C24.4386 45.0154 22.0837 47.5657 18.9903 49.3544C17.8519 50.0097 16.6093 50.4259 15.2711 50.4348H15.2798Z" fill="#5658A6"/>
<path id="Vector_5" d="M26.0678 10.8586C26.0678 10.028 26.3081 9.25737 26.6963 8.52954C27.2877 7.40784 28.0917 6.41457 29.1267 5.60969C30.2265 4.75342 31.3631 3.93998 32.583 3.22928C33.8121 2.51002 35.1429 2.03051 36.566 1.75651C37.0743 1.65375 37.5826 1.64519 38.0816 1.79932C38.8302 2.03907 39.283 2.50145 39.4401 3.22071C39.5787 3.84579 39.4955 4.45373 39.2737 5.04455C39.1536 5.36137 39.0058 5.66963 38.8209 5.95219C37.0096 8.74361 34.6808 11.0384 31.5202 12.5369C30.8826 12.8365 30.208 13.0934 29.5241 13.2904C27.5002 13.8641 26.0678 12.8451 26.0586 10.8671L26.0678 10.8586Z" fill="#5658A6"/>
<path id="Vector_6" d="M46.8023 48.7495C46.352 48.7495 45.9581 48.6906 45.5882 48.4969C44.8726 48.1264 44.5269 47.52 44.551 46.6947C44.5671 46.08 44.7198 45.4821 45.0012 44.9515C45.95 43.1241 47.148 41.5156 48.9169 40.4546C49.6969 39.983 50.525 39.6377 51.4255 39.5282C52.9693 39.3345 54.0145 40.5051 53.7573 42.1051C53.6768 42.6188 53.4678 43.082 53.2105 43.5283C52.0366 45.5831 50.3883 47.1242 48.4184 48.3032C47.9119 48.6064 47.3571 48.7832 46.8023 48.7495Z" fill="#5658A6"/>
</g>
</svg>
