<svg width="44" height="44" viewBox="0 0 44 44" fill="none" xmlns="http://www.w3.org/2000/svg">
<path d="M22 0L25.3779 7.20059L31.5454 2.17868L31.4646 10.1318L39.2003 8.28322L35.6767 15.4136L43.4484 17.1045L37.18 22L43.4484 26.8955L35.6767 28.5864L39.2003 35.7168L31.4646 33.8682L31.5454 41.8213L25.3779 36.7994L22 44L18.6221 36.7994L12.4546 41.8213L12.5354 33.8682L4.79971 35.7168L8.32329 28.5864L0.551586 26.8955L6.82 22L0.551586 17.1045L8.32329 15.4136L4.79971 8.28322L12.5354 10.1318L12.4546 2.17868L18.6221 7.20059L22 0Z" fill="#D2CD7D"/>
<path d="M15 19.9998L21.48 28.9998L29 15" stroke="#8486C3" stroke-width="2" stroke-linecap="round" stroke-linejoin="round"/>
</svg>
