<svg width="44" height="48" viewBox="0 0 44 48" fill="none" xmlns="http://www.w3.org/2000/svg">
<path d="M23.6476 41.0908C23.6618 37.9572 24.0235 34.8515 24.3284 31.7387C24.371 31.3149 24.3923 30.8911 24.3994 30.4672C24.3994 30.2727 24.3142 30.0851 24.1157 29.9948C23.8746 29.8836 23.6476 29.9322 23.4561 30.0851C23.3001 30.2032 23.1654 30.3422 23.0377 30.495C22.6831 30.9119 22.3285 31.3218 21.9952 31.7526C20.2152 34.0663 18.5131 36.4356 16.8395 38.8257C14.8963 41.598 12.9957 44.3911 10.9675 47.1078C10.3576 47.9277 9.72636 48.1361 8.76187 47.9207C6.4003 47.3996 4.31533 46.3922 2.49273 44.8358C2.34381 44.7108 2.20906 44.5648 2.08849 44.4189C1.37931 43.5365 0.875793 42.5221 0.336815 41.5355C0.173704 41.2367 0.237523 40.9796 0.507012 40.7156C2.42889 38.8327 4.3579 36.9498 6.23013 35.0182C8.73355 32.4405 11.2937 29.9253 13.868 27.417C14.5133 26.7917 15.1233 26.1316 15.6977 25.4507C16.1303 24.9435 16.1728 24.5544 15.9104 24.3182C15.5558 23.9916 15.1729 24.1584 14.8041 24.3043C11.8468 25.4924 8.93918 26.7848 6.10954 28.23C4.8472 28.8761 3.54942 29.432 2.23034 29.9392C1.63463 30.1685 1.01762 30.2727 0.39354 30.37C0.131143 30.4117 -0.0461366 30.2102 0.0105979 29.9322C0.166618 29.2096 0.471569 28.5426 0.811977 27.8826C1.59917 26.3609 2.56364 24.9505 3.59196 23.5748C5.78333 20.6427 8.08816 17.8009 10.4568 15.0078C12.4496 12.6524 14.6977 10.5402 16.9317 8.41411C18.1018 7.30242 19.4351 6.40613 20.9457 5.7947C21.9243 5.39171 22.9172 5.00955 23.8958 4.60656C25.3355 4.02293 26.8602 3.82839 28.3921 3.72417C29.4984 3.64774 30.6047 3.71723 31.6685 4.03684C32.2996 4.22444 32.8102 4.13411 33.3208 3.75197C35.3562 2.25119 37.6681 1.26455 40.0084 0.326559C40.6892 0.0555853 41.3842 0.00694806 42.0934 0C42.448 0 42.6111 0.13897 42.6466 0.465529C42.6821 0.812932 42.7033 1.16033 42.6962 1.50774C42.6608 3.30034 42.3558 5.04429 41.6821 6.71182C41.519 7.10786 41.3913 7.5178 41.1715 7.88605C40.7176 8.65728 40.5758 9.38682 41.3133 10.0747C42.3629 12.3536 43.6394 14.5492 43.916 17.1131C44.072 18.5583 44.0224 19.9618 43.6678 21.3653C43.3841 22.4909 42.9728 23.5748 42.5189 24.6517C39.9162 30.8494 36.0512 36.2133 31.3209 41.0074C30.0019 42.3415 28.6615 43.6477 27.1368 44.7594C26.4063 45.2874 25.6617 45.8016 24.832 46.1629C24.3852 46.3574 24.2221 46.281 24.0377 45.8086C23.7682 45.1137 23.6121 44.405 23.6192 43.6616C23.6192 42.8139 23.6192 41.9593 23.6192 41.1117L23.6476 41.0908Z" fill="#8486C3"/>
</svg>
