<svg width="184" height="186" viewBox="0 0 184 186" fill="none" xmlns="http://www.w3.org/2000/svg">
<path d="M92.9688 12.17C92.9688 16.767 93.2197 17.0038 93.5265 17.0038C93.8332 17.0038 94.0842 16.753 94.0842 12.17C94.0842 7.58694 93.8332 0.38501 93.5265 0.38501C93.2197 0.38501 92.9688 7.57301 92.9688 12.17Z" fill="#FFFAA2"/>
<path d="M92.9688 34.8622C92.9688 38.8463 93.2197 39.0552 93.5265 39.0552C93.8332 39.0552 94.0842 38.8323 94.0842 34.8622C94.0842 30.8921 93.8332 24.6375 93.5265 24.6375C93.2197 24.6375 92.9688 30.8782 92.9688 34.8622Z" fill="#FFFAA2"/>
<path d="M92.9688 71.4708C92.9688 81.5842 93.2197 82.1414 93.5265 82.1414C93.8332 82.1414 94.0842 81.5981 94.0842 71.4708C94.0842 61.3435 93.8332 45.5049 93.5265 45.5049C93.2197 45.5049 92.9688 61.3575 92.9688 71.4708Z" fill="#FFFAA2"/>
<path d="M97.9462 74.1733C97.9044 75.7614 98.1414 75.8589 98.4621 75.8728C98.7689 75.8728 99.0198 75.8032 99.0756 74.2151C99.1174 72.6271 98.9501 70.1196 98.6294 70.1057C98.3227 70.1057 98.002 72.5853 97.9462 74.1733Z" fill="#FFFAA2"/>
<path d="M107.985 32.5357C107.678 34.5835 107.915 34.7367 108.222 34.7785C108.529 34.8203 108.794 34.7506 109.1 32.7029C109.407 30.6551 109.644 27.3955 109.337 27.3537C109.031 27.3119 108.306 30.488 107.999 32.5357" fill="#FFFAA2"/>
<path d="M105.615 52.2473C105.922 52.2891 106.201 52.1498 106.703 48.7787C107.205 45.4076 107.734 40.1001 107.442 40.0584C107.135 40.0166 106.103 45.2543 105.601 48.6254C105.099 51.9966 105.322 52.2055 105.629 52.2612" fill="#FFFAA2"/>
<path d="M102.521 72.9894C102.828 73.0312 103.106 72.864 103.692 68.9217C104.278 64.9795 104.947 58.7805 104.64 58.7248C104.333 58.683 103.176 64.8123 102.577 68.7546C101.991 72.6968 102.2 72.9476 102.507 72.9894" fill="#FFFAA2"/>
<path d="M107.957 70.44C108.264 70.5097 108.529 70.4679 108.947 68.5873C109.366 66.7067 109.784 63.7257 109.477 63.656C109.171 63.5864 108.264 66.4699 107.846 68.3366C107.428 70.2032 107.651 70.3704 107.944 70.44" fill="#FFFAA2"/>
<path d="M131.215 20.4026C130.922 20.2912 129.486 23.3419 128.719 25.3478C127.952 27.3538 128.147 27.5488 128.426 27.6602C128.719 27.7717 128.998 27.7578 129.765 25.7379C130.532 23.7319 131.508 20.5001 131.215 20.3887" fill="#FFFAA2"/>
<path d="M121.678 45.2541C121.971 45.3655 122.264 45.282 123.463 42.1894C124.648 39.083 126.28 34.1378 126.001 34.0263C125.708 33.9149 123.616 38.679 122.417 41.7855C121.232 44.8919 121.399 45.1427 121.678 45.2541Z" fill="#FFFAA2"/>
<path d="M119.141 51.8711C118.849 51.7596 115.614 59.477 113.703 64.464C111.793 69.451 111.919 69.8132 112.211 69.9246C112.504 70.0361 112.839 69.855 114.749 64.868C116.659 59.8809 119.434 51.9825 119.141 51.8711Z" fill="#FFFAA2"/>
<path d="M117.316 68.4201C116.661 69.7852 116.856 69.9663 117.135 70.0917C117.414 70.231 117.679 70.2589 118.334 68.9076C118.989 67.5564 119.798 65.3136 119.519 65.1743C119.24 65.035 117.985 67.0549 117.33 68.4201" fill="#FFFAA2"/>
<path d="M141.659 45.7416C141.91 45.9227 142.175 45.9924 143.319 44.474C144.462 42.9556 146.066 40.4342 145.815 40.2392C145.564 40.0581 143.57 42.273 142.412 43.7914C141.269 45.3098 141.408 45.5466 141.645 45.7277" fill="#FFFAA2"/>
<path d="M133.768 55.2421C132.276 57.2202 132.388 57.4848 132.639 57.6659C132.89 57.847 133.168 57.9027 134.66 55.9107C136.152 53.9187 138.314 50.673 138.063 50.4919C137.812 50.3108 135.26 53.2501 133.768 55.2421Z" fill="#FFFAA2"/>
<path d="M121.54 72.3066C121.791 72.4877 122.098 72.5016 124.022 69.9524C125.96 67.3892 128.791 63.238 128.54 63.057C128.289 62.8759 125.054 66.7206 123.13 69.2838C121.191 71.833 121.289 72.1255 121.54 72.3205" fill="#FFFAA2"/>
<path d="M125.793 75.1904C126.002 75.4272 126.225 75.5526 127.354 74.5775C128.484 73.5884 130.073 71.8611 129.878 71.6382C129.669 71.4014 127.745 72.7526 126.615 73.7417C125.486 74.7307 125.597 74.9675 125.793 75.2043" fill="#FFFAA2"/>
<path d="M166.201 52.9716C166.034 52.7208 164.11 53.7099 162.98 54.4761C161.851 55.2422 161.935 55.493 162.102 55.7437C162.269 55.9944 162.478 56.1616 163.608 55.3954C164.737 54.6293 166.369 53.2223 166.201 52.9716Z" fill="#FFFAA2"/>
<path d="M150.486 63.6144C150.667 63.8651 150.918 64.0044 152.968 62.6114C155.017 61.2184 158.099 58.8224 157.932 58.5716C157.764 58.3209 154.404 60.285 152.34 61.692C150.291 63.085 150.318 63.3636 150.486 63.6283" fill="#FFFAA2"/>
<path d="M128.161 78.7564C128.329 79.0071 128.733 79.0489 133.53 75.7893C138.326 72.5435 145.702 67.2361 145.535 66.9714C145.368 66.7207 137.699 71.6102 132.902 74.8559C128.106 78.1017 127.98 78.4917 128.161 78.7425" fill="#FFFAA2"/>
<path d="M134.785 79.0907C134.66 78.8121 132.136 79.6061 130.588 80.2609C129.041 80.9156 129.055 81.1803 129.18 81.4728C129.306 81.7514 129.487 81.9464 131.035 81.2917C132.582 80.637 134.911 79.3833 134.785 79.0907Z" fill="#FFFAA2"/>
<path d="M163.509 74.062C163.607 74.3546 163.76 74.5635 165.252 74.076C166.744 73.5884 169.017 72.5854 168.92 72.2929C168.822 72.0004 166.41 72.5297 164.918 73.0033C163.426 73.4909 163.426 73.7556 163.509 74.0481" fill="#FFFAA2"/>
<path d="M148.34 79.0071C148.437 79.2996 148.66 79.4947 151.505 78.5613C154.335 77.6419 158.7 75.9564 158.602 75.6639C158.505 75.3713 153.987 76.5833 151.156 77.5026C148.326 78.422 148.242 78.7146 148.34 79.0071Z" fill="#FFFAA2"/>
<path d="M144.519 80.2469C144.421 79.9544 138.23 81.7096 134.326 82.9773C130.422 84.2449 130.283 84.5514 130.38 84.8439C130.478 85.1364 130.771 85.3036 134.675 84.036C138.579 82.7683 144.617 80.5255 144.533 80.233" fill="#FFFAA2"/>
<path d="M131.732 88.828C133.461 88.6887 136.166 88.2151 136.138 87.9087C136.11 87.6022 133.377 87.5743 131.634 87.7136C129.905 87.8529 129.822 88.1176 129.849 88.4241C129.877 88.7305 129.989 88.9813 131.718 88.828" fill="#FFFAA2"/>
<path d="M173.745 92.6867C169.813 92.6449 169.59 92.8956 169.59 93.2021C169.59 93.5086 169.799 93.7593 173.731 93.8011C177.677 93.8429 183.84 93.6479 183.84 93.3414C183.84 93.035 177.677 92.7285 173.731 92.6867" fill="#FFFAA2"/>
<path d="M161.613 93.1324C161.613 92.8259 157.584 92.5334 155.004 92.5055C152.425 92.4777 152.285 92.7284 152.285 93.0349C152.285 93.3414 152.425 93.5921 155.004 93.62C157.584 93.6478 161.627 93.4249 161.627 93.1185" fill="#FFFAA2"/>
<path d="M134.297 92.3103C129.932 92.2685 129.695 92.5193 129.695 92.8257C129.695 93.1322 129.932 93.3829 134.283 93.4247C138.647 93.4665 145.479 93.2854 145.479 92.965C145.479 92.6586 138.647 92.3382 134.283 92.2964" fill="#FFFAA2"/>
<path d="M128.678 96.0577C128.623 96.3641 128.678 96.6288 130.505 96.9492C132.332 97.2696 135.246 97.5482 135.302 97.2417C135.357 96.9353 132.541 96.183 130.7 95.8487C128.874 95.5144 128.734 95.7512 128.678 96.0577Z" fill="#FFFAA2"/>
<path d="M166.2 115.393C166.311 115.1 162.254 113.275 159.618 112.244C156.969 111.227 156.746 111.395 156.621 111.687C156.509 111.98 156.565 112.258 159.214 113.289C161.863 114.306 166.088 115.685 166.2 115.393Z" fill="#FFFAA2"/>
<path d="M151.225 109.598C151.336 109.305 148.631 107.996 146.846 107.299C145.062 106.603 144.866 106.812 144.755 107.091C144.643 107.383 144.643 107.648 146.442 108.344C148.227 109.041 151.113 109.891 151.225 109.598Z" fill="#FFFAA2"/>
<path d="M139.875 105.21C139.986 104.917 134.562 102.563 131.049 101.198C127.535 99.8329 127.256 100 127.144 100.293C127.033 100.585 127.144 100.892 130.644 102.243C134.158 103.608 139.763 105.502 139.875 105.21Z" fill="#FFFAA2"/>
<path d="M125.946 106.478C127.633 107.369 130.394 108.539 130.533 108.261C130.673 107.982 128.149 106.366 126.462 105.489C124.775 104.597 124.566 104.778 124.426 105.043C124.287 105.321 124.259 105.586 125.946 106.478Z" fill="#FFFAA2"/>
<path d="M157.695 139.102C155.896 137.612 155.631 137.723 155.436 137.96C155.241 138.197 155.171 138.475 156.97 139.966C158.769 141.456 161.753 143.615 161.948 143.379C162.143 143.142 159.494 140.607 157.695 139.102Z" fill="#FFFAA2"/>
<path d="M145.87 130.716C147.669 132.207 150.639 134.352 150.834 134.115C151.029 133.878 148.38 131.343 146.595 129.853C144.796 128.362 144.545 128.473 144.35 128.71C144.155 128.947 144.085 129.226 145.884 130.716" fill="#FFFAA2"/>
<path d="M139.819 124.949C140.014 124.712 137.769 122.525 136.235 121.244C134.702 119.962 134.451 120.087 134.255 120.324C134.06 120.561 133.977 120.826 135.51 122.093C137.044 123.375 139.61 125.172 139.805 124.935" fill="#FFFAA2"/>
<path d="M123.114 111.771C125.261 113.568 128.803 116.173 128.998 115.936C129.193 115.699 125.986 112.704 123.825 110.907C121.677 109.11 121.399 109.208 121.189 109.445C120.994 109.681 120.952 109.974 123.1 111.771" fill="#FFFAA2"/>
<path d="M121.372 118.109C121.595 117.887 119.936 115.881 118.765 114.71C117.593 113.54 117.356 113.652 117.133 113.875C116.91 114.097 116.799 114.334 117.97 115.504C119.141 116.675 121.163 118.332 121.372 118.109Z" fill="#FFFAA2"/>
<path d="M141.744 150.678C141.981 150.483 139.931 147.641 138.495 145.928C137.059 144.215 136.794 144.284 136.557 144.479C136.32 144.674 136.208 144.939 137.644 146.639C139.08 148.352 141.521 150.859 141.758 150.664" fill="#FFFAA2"/>
<path d="M132.693 139.882C132.93 139.687 130.211 136.051 128.343 133.822C126.474 131.608 126.181 131.649 125.944 131.844C125.707 132.039 125.624 132.318 127.478 134.547C129.347 136.762 132.456 140.077 132.693 139.882Z" fill="#FFFAA2"/>
<path d="M122.001 127.136C122.238 126.941 118.78 122.428 116.451 119.656C114.123 116.883 113.802 116.897 113.565 117.092C113.328 117.287 113.258 117.608 115.587 120.38C117.915 123.152 121.75 127.345 121.987 127.136" fill="#FFFAA2"/>
<path d="M109.827 119.628C109.576 119.795 109.408 120.004 110.106 121.035C110.803 122.066 112.113 123.542 112.378 123.361C112.629 123.194 111.737 121.425 111.04 120.394C110.343 119.363 110.092 119.447 109.841 119.628" fill="#FFFAA2"/>
<path d="M129.543 164.915C129.264 165.054 129.097 165.277 130.087 167.144C131.063 169.024 132.82 171.838 133.099 171.699C133.377 171.56 132.053 168.495 131.077 166.628C130.101 164.748 129.822 164.762 129.543 164.915Z" fill="#FFFAA2"/>
<path d="M126.657 159.398C126.936 159.259 124.315 153.701 122.488 150.218C120.675 146.75 120.355 146.666 120.076 146.819C119.797 146.959 119.671 147.265 121.498 150.734C123.311 154.202 126.378 159.538 126.657 159.384" fill="#FFFAA2"/>
<path d="M115.936 137.695C114.764 135.466 114.485 135.466 114.207 135.606C113.928 135.745 113.774 135.982 114.932 138.211C116.103 140.439 118.139 143.81 118.417 143.671C118.696 143.532 117.093 139.924 115.922 137.695" fill="#FFFAA2"/>
<path d="M112.684 132.694C112.963 132.555 110.913 128.097 109.463 125.339C108.013 122.567 107.72 122.539 107.441 122.678C107.162 122.818 107.023 123.082 108.473 125.854C109.923 128.626 112.405 132.833 112.684 132.694Z" fill="#FFFAA2"/>
<path d="M105.24 126.412C105.519 126.272 104.933 124.615 104.417 123.626C103.901 122.637 103.651 122.706 103.372 122.846C103.093 122.985 102.898 123.152 103.413 124.141C103.929 125.13 104.961 126.551 105.24 126.412Z" fill="#FFFAA2"/>
<path d="M112.88 171.532C113.173 171.448 112.309 167.422 111.611 164.887C110.9 162.352 110.621 162.282 110.329 162.365C110.036 162.449 109.827 162.658 110.538 165.179C111.249 167.715 112.587 171.601 112.894 171.518" fill="#FFFAA2"/>
<path d="M108.726 156.668C109.019 156.585 107.82 151.361 106.9 148.059C105.979 144.772 105.686 144.66 105.394 144.73C105.101 144.814 104.906 145.064 105.826 148.352C106.746 151.639 108.433 156.738 108.726 156.654" fill="#FFFAA2"/>
<path d="M100.666 127.777C100.374 127.86 100.178 128.097 101.043 131.19C101.907 134.282 103.497 139.074 103.804 138.99C104.097 138.907 102.981 133.99 102.117 130.897C101.252 127.804 100.959 127.693 100.666 127.777Z" fill="#FFFAA2"/>
<path d="M97.4309 124.726C97.1242 124.796 96.9011 124.921 97.18 126.133C97.4588 127.359 98.1421 129.198 98.4488 129.128C98.7556 129.058 98.5604 127.094 98.2676 125.882C97.9887 124.67 97.7237 124.656 97.4309 124.726Z" fill="#FFFAA2"/>
<path d="M93.5265 170.18C93.2197 170.18 92.9688 170.417 92.9688 174.68C92.9688 178.943 93.2197 185.615 93.5265 185.615C93.8332 185.615 94.0842 178.943 94.0842 174.68C94.0842 170.417 93.8332 170.18 93.5265 170.18Z" fill="#FFFAA2"/>
<path d="M93.5265 152.545C93.2197 152.545 92.9688 152.698 92.9688 155.554C92.9688 158.41 93.2197 162.895 93.5265 162.895C93.8332 162.895 94.0842 158.423 94.0842 155.554C94.0842 152.684 93.8332 152.545 93.5265 152.545Z" fill="#FFFAA2"/>
<path d="M93.5265 125.562C93.2197 125.562 92.9688 125.868 92.9688 131.636C92.9688 137.403 93.2197 146.429 93.5265 146.429C93.8332 146.429 94.0842 137.403 94.0842 131.636C94.0842 125.868 93.8332 125.562 93.5265 125.562Z" fill="#FFFAA2"/>
<path d="M80.6987 160.151C80.4059 160.067 80.1271 160.123 79.5972 162.185C79.0673 164.246 78.4678 167.562 78.7606 167.631C79.0673 167.715 80.141 164.525 80.6848 162.463C81.2146 160.402 81.0055 160.22 80.7127 160.137" fill="#FFFAA2"/>
<path d="M83.3359 147.739C82.7921 149.856 82.1647 153.255 82.4714 153.325C82.7642 153.409 83.8797 150.135 84.4235 148.018C84.9673 145.9 84.7582 145.719 84.4653 145.635C84.1586 145.552 83.8937 145.608 83.3359 147.739Z" fill="#FFFAA2"/>
<path d="M85.7885 140.509C86.0813 140.593 87.9916 134.255 89.0513 130.173C90.111 126.091 89.9297 125.813 89.623 125.729C89.3302 125.646 89.0234 125.813 87.9637 129.894C86.904 133.976 85.4817 140.426 85.7885 140.509Z" fill="#FFFAA2"/>
<path d="M64.8453 164.762C64.5664 164.636 64.2736 164.664 63.1442 167.144C62.0148 169.623 60.467 173.621 60.7459 173.747C61.0248 173.872 63.0326 170.097 64.1621 167.617C65.2915 165.138 65.1242 164.901 64.8453 164.776" fill="#FFFAA2"/>
<path d="M70.2696 152.879C69.9908 152.754 69.7119 152.754 68.8753 154.592C68.0387 156.445 66.9371 159.44 67.216 159.566C67.4949 159.691 69.0426 156.905 69.8932 155.052C70.7298 153.199 70.5485 153.004 70.2696 152.865" fill="#FFFAA2"/>
<path d="M76.4611 139.269C76.1822 139.144 75.8894 139.172 74.746 141.679C73.6026 144.187 72.0549 148.199 72.3338 148.338C72.6127 148.463 74.6345 144.646 75.7639 142.153C76.9072 139.645 76.7399 139.409 76.4611 139.283" fill="#FFFAA2"/>
<path d="M84.0173 122.678C83.7385 122.553 83.4456 122.595 82.1768 125.381C80.9079 128.167 79.151 132.625 79.4299 132.764C79.7088 132.889 81.9258 128.627 83.1947 125.855C84.4635 123.068 84.3101 122.818 84.0173 122.692" fill="#FFFAA2"/>
<path d="M80.1972 121.717C80.7131 121.021 80.5319 120.826 80.2948 120.645C80.0438 120.463 79.8208 120.352 79.3048 121.049C78.7889 121.745 78.1894 122.999 78.4264 123.18C78.6774 123.361 79.6813 122.414 80.1972 121.703" fill="#FFFAA2"/>
<path d="M56.4369 145.106C57.6918 143.462 57.5524 143.226 57.3153 143.044C57.0643 142.863 56.7994 142.794 55.5445 144.437C54.2896 146.081 52.5327 148.798 52.7697 148.979C53.0207 149.174 55.182 146.75 56.4369 145.106Z" fill="#FFFAA2"/>
<path d="M64.3004 132.973C62.934 134.77 60.9819 137.737 61.2189 137.918C61.4699 138.113 63.8124 135.439 65.1928 133.655C66.5593 131.858 66.4338 131.608 66.1968 131.427C65.9458 131.232 65.6809 131.19 64.3004 132.973Z" fill="#FFFAA2"/>
<path d="M75.4562 120.241C76.7529 118.541 76.6274 118.304 76.3764 118.109C76.1255 117.914 75.8605 117.859 74.5638 119.558C73.267 121.258 71.4265 124.072 71.6775 124.253C71.9285 124.448 74.1594 121.926 75.4562 120.241Z" fill="#FFFAA2"/>
<path d="M71.2867 114.543C71.0636 114.32 70.8405 114.209 69.8086 115.239C68.7768 116.27 67.3406 118.067 67.5498 118.276C67.7729 118.499 69.5577 117.05 70.5895 116.034C71.6213 115.003 71.4958 114.766 71.2867 114.557" fill="#FFFAA2"/>
<path d="M28.5904 139.018C28.4091 138.768 28.1303 138.656 25.6344 140.37C23.1246 142.083 19.3459 144.994 19.5132 145.245C19.6805 145.496 23.766 143.016 26.2618 141.289C28.7717 139.576 28.7717 139.269 28.5904 139.018Z" fill="#FFFAA2"/>
<path d="M42.9268 129.866C45.5761 128.055 45.5761 127.749 45.4088 127.484C45.2275 127.233 44.9486 127.122 42.2994 128.933C39.6501 130.744 35.6483 133.795 35.8156 134.059C35.9969 134.31 40.2776 131.677 42.9268 129.866Z" fill="#FFFAA2"/>
<path d="M68.2333 111.827C68.052 111.576 67.6895 111.52 63.5483 114.362C59.4071 117.204 53.0628 121.857 53.244 122.107C53.4253 122.358 60.0485 118.123 64.1897 115.281C68.3309 112.44 68.4146 112.078 68.2333 111.827Z" fill="#FFFAA2"/>
<path d="M63.7992 108.316C64.7334 107.759 64.6637 107.508 64.4963 107.244C64.329 106.979 64.1617 106.798 63.2135 107.355C62.2793 107.912 60.9407 109.013 61.0941 109.278C61.2475 109.542 62.851 108.874 63.7852 108.316" fill="#FFFAA2"/>
<path d="M31.4084 111.896C31.3247 111.604 31.1016 111.409 28.3687 112.231C25.6497 113.053 21.4527 114.585 21.5364 114.878C21.62 115.17 25.9704 114.125 28.6894 113.303C31.4084 112.482 31.492 112.189 31.3944 111.896" fill="#FFFAA2"/>
<path d="M47.8618 106.923C47.7781 106.631 47.569 106.422 45.087 107.174C42.619 107.926 38.8124 109.333 38.91 109.626C38.9937 109.918 42.9397 108.985 45.4217 108.247C47.8897 107.494 47.9594 107.216 47.8618 106.923Z" fill="#FFFAA2"/>
<path d="M59.9104 103.859C62.476 103.078 62.5457 102.8 62.4481 102.507C62.3645 102.215 62.1414 102.02 59.5757 102.786C57.0101 103.566 53.0641 105.015 53.1478 105.321C53.2315 105.614 57.3308 104.639 59.8964 103.859" fill="#FFFAA2"/>
<path d="M52.7839 98.4257C52.8397 98.7322 56.0188 98.3839 58.0128 98.0217C60.0067 97.6456 60.0764 97.3809 60.0206 97.0745C59.9648 96.768 59.8115 96.5451 57.8176 96.9212C55.8236 97.2974 52.7282 98.1332 52.7839 98.4257Z" fill="#FFFAA2"/>
<path d="M9.29342 91.9066C5.72389 91.9205 0.146484 92.1852 0.146484 92.4916C0.146484 92.7981 5.72389 93.0349 9.29342 93.021C12.863 93.021 13.0442 92.7563 13.0442 92.4498C13.0442 92.1434 12.849 91.8926 9.27948 91.9066" fill="#FFFAA2"/>
<path d="M21.3691 92.4359C21.3691 92.7424 25.9984 92.9792 28.9544 92.9792C31.9104 92.9792 32.0638 92.7145 32.0638 92.408C32.0638 92.1016 31.8965 91.8508 28.9544 91.8508C25.9984 91.8508 21.3691 92.1294 21.3691 92.4359Z" fill="#FFFAA2"/>
<path d="M52.2259 92.8957C58.2216 92.8818 58.5563 92.6311 58.5563 92.3246C58.5563 92.0181 58.2356 91.7674 52.2259 91.7813C46.2302 91.7952 36.8184 92.0739 36.8184 92.3803C36.8184 92.6868 46.2302 92.9097 52.2259 92.8957Z" fill="#FFFAA2"/>
<path d="M52.9512 88.2569C52.9373 88.5634 55.2659 88.9674 56.7718 89.051C58.2777 89.1485 58.3753 88.8977 58.3892 88.5913C58.4031 88.2848 58.3474 88.0201 56.8415 87.9365C55.3356 87.839 52.9791 87.9365 52.9512 88.2569Z" fill="#FFFAA2"/>
<path d="M21.202 69.7575C21.0905 70.05 24.3114 71.5823 26.4169 72.4181C28.5224 73.2539 28.7315 73.0589 28.857 72.7803C28.9686 72.4878 28.9546 72.2092 26.8352 71.3734C24.7158 70.5375 21.3136 69.4649 21.202 69.7575Z" fill="#FFFAA2"/>
<path d="M35.4244 75.3853C35.3128 75.6778 38.9521 77.3773 41.3225 78.3245C43.7068 79.2579 43.9299 79.0768 44.0415 78.7982C44.153 78.5056 44.1112 78.227 41.7408 77.2937C39.3564 76.3604 35.5359 75.1067 35.4244 75.3992" fill="#FFFAA2"/>
<path d="M58.5565 84.5235C58.6681 84.231 58.6123 83.9384 55.726 82.8101C52.8537 81.6817 48.2523 80.1355 48.1407 80.4141C48.0292 80.7066 52.4354 82.7126 55.3077 83.8409C58.1801 84.9832 58.4311 84.8021 58.5426 84.5235" fill="#FFFAA2"/>
<path d="M55.3218 78.0738C55.1684 78.3385 56.9532 79.6619 58.1662 80.3584C59.3793 81.0549 59.5745 80.8877 59.7279 80.6091C59.8813 80.3445 59.9371 80.0798 58.724 79.3833C57.5109 78.6868 55.4751 77.7952 55.3218 78.0599" fill="#FFFAA2"/>
<path d="M24.4235 42.4541C24.2143 42.677 27.5329 46.1317 29.7638 48.2073C31.9948 50.2968 32.2876 50.2272 32.4968 49.9903C32.7059 49.7675 32.7617 49.461 30.5307 47.3854C28.2998 45.2959 24.6326 42.2173 24.4235 42.4402" fill="#FFFAA2"/>
<path d="M38.713 55.8132C38.5038 56.0361 41.669 59.3515 43.8024 61.3435C45.9357 63.3355 46.2285 63.2659 46.4377 63.043C46.6468 62.8201 46.7026 62.5276 44.5693 60.5356C42.4359 58.5436 38.9221 55.6043 38.713 55.8272" fill="#FFFAA2"/>
<path d="M61.2764 76.8895C61.4855 76.6667 61.4995 76.3323 58.5713 73.5881C55.6432 70.8438 50.8745 66.7344 50.6654 66.9712C50.4562 67.1941 54.8763 71.6657 57.8044 74.41C60.7326 77.1542 61.0672 77.1124 61.2764 76.8895Z" fill="#FFFAA2"/>
<path d="M60.9267 69.0888C60.6618 69.256 61.7075 71.3734 62.5023 72.6271C63.2971 73.8948 63.5481 73.8251 63.813 73.6579C64.0779 73.4908 64.2453 73.2958 63.4505 72.0281C62.6557 70.7605 61.1916 68.9217 60.9267 69.0749" fill="#FFFAA2"/>
<path d="M54.1508 48.0402C54.4158 47.887 54.5413 47.5944 52.8541 44.697C51.1669 41.7995 48.2946 37.3697 48.0297 37.5368C47.7647 37.6901 50.2048 42.3706 51.892 45.2681C53.5792 48.1656 53.8999 48.2074 54.1648 48.0402" fill="#FFFAA2"/>
<path d="M56.925 52.7764C56.6601 52.9296 58.1799 56.036 59.2954 57.9445C60.4109 59.8529 60.6897 59.8251 60.9547 59.6718C61.2196 59.5186 61.373 59.2818 60.2714 57.3873C59.1559 55.4788 57.2039 52.6231 56.9389 52.7903" fill="#FFFAA2"/>
<path d="M67.7169 71.2896C67.9818 71.1364 68.1352 70.8996 66.9639 68.8936C65.7927 66.8877 63.743 63.8648 63.4781 64.0181C63.2131 64.1713 64.8306 67.4449 66.0018 69.4508C67.1731 71.4568 67.452 71.4429 67.7169 71.2896Z" fill="#FFFAA2"/>
<path d="M72.6406 69.5903C72.9334 69.4788 73.1147 69.2838 72.3757 67.3614C71.6228 65.4391 70.2145 62.5277 69.9216 62.6391C69.6288 62.7505 70.577 65.857 71.3299 67.7793C72.0829 69.7017 72.3618 69.7156 72.6406 69.6042" fill="#FFFAA2"/>
<path d="M65.8627 31.6582C64.5102 27.3816 62.7114 21.9209 61.2195 17.5329C60.4665 15.3459 59.7972 13.4235 59.2953 12.0444C58.7933 10.6792 58.4587 9.85735 58.389 9.88521C58.3192 9.91307 58.5144 10.7628 58.8909 12.1698C59.2674 13.5767 59.8251 15.5409 60.4805 17.7558C61.7772 22.1995 63.4644 27.702 64.8169 31.9785C67.522 40.5178 67.9124 40.9078 68.2052 40.8242C68.498 40.7267 68.5956 40.1834 65.8906 31.6442" fill="#FFFAA2"/>
<path d="M77.3951 69.9245C77.6879 69.827 77.8413 69.4648 76.1542 64.1574C74.467 58.85 71.5946 50.6033 71.3018 50.6869C71.009 50.7844 73.4073 59.1843 75.0805 64.4918C76.7677 69.7992 77.0884 70.0221 77.3951 69.9245Z" fill="#FFFAA2"/>
<path d="M77.9101 27.6883C77.6033 27.7301 78.0355 32.4663 78.4678 35.4613C78.9 38.4563 79.1789 38.5817 79.4857 38.5399C79.7924 38.4981 80.0155 38.2892 79.5833 35.2942C79.151 32.2992 78.2168 27.6465 77.9101 27.6883Z" fill="#FFFAA2"/>
<path d="M81.619 53.2921C81.9258 53.2503 82.1489 53.0692 81.7724 50.4085C81.382 47.7479 80.5314 43.6245 80.2247 43.6802C79.9179 43.722 80.2665 47.915 80.6569 50.5757C81.0473 53.2364 81.3122 53.3339 81.619 53.2921Z" fill="#FFFAA2"/>
<path d="M84.3659 72.1396C84.6727 72.0978 84.8958 71.8749 84.3938 68.462C83.8918 65.0491 82.8739 59.7277 82.5672 59.7695C82.2604 59.8113 82.7903 65.2023 83.2923 68.6152C83.7942 72.0281 84.0591 72.1814 84.3659 72.1396Z" fill="#FFFAA2"/>
<path d="M89.2873 76.5416C89.5941 76.5276 89.8451 76.4162 89.7475 74.4938C89.6499 72.5714 89.2595 69.5765 88.9527 69.5904C88.6459 69.6043 88.5344 72.6272 88.632 74.5495C88.7296 76.4719 88.9806 76.5694 89.2873 76.5416Z" fill="#FFFAA2"/>
</svg>
