<svg width="72" height="47" viewBox="0 0 72 47" fill="none" xmlns="http://www.w3.org/2000/svg">
<path d="M46.2375 0.0474609C45.8526 0.0912025 45.3627 0.16994 45.144 0.22243C44.9253 0.27492 44.2166 0.353653 43.5693 0.397395C42.2308 0.484878 41.4959 0.668593 40.5598 1.14975C39.6938 1.59591 38.2853 2.4445 37.9966 2.6982C37.8654 2.82068 37.5329 3.10062 37.2705 3.32808C36.4131 4.06294 34.6985 5.97882 33.8061 7.19484C33.5262 7.57102 33.0188 8.25339 32.6776 8.7083C31.7065 9.9943 31.0854 10.9566 29.8782 12.995C28.5572 15.2345 28.181 15.7944 28.0148 15.7944C27.7698 15.7944 27.3674 15.4795 27.1049 15.0683L26.8337 14.6484L26.8862 13.5986C26.9475 12.5663 26.9387 12.5401 26.7375 12.3563C26.4838 12.1201 25.4865 11.7002 24.8916 11.5777C24.2967 11.4553 23.4481 11.534 22.9845 11.7615C22.1971 12.1464 20.9111 13.4761 19.7301 15.1383C18.2166 17.2816 16.7382 18.8913 15.5309 19.7399C14.3324 20.571 12.1453 21.9707 11.5504 22.2769C10.9905 22.5656 10.9643 22.5744 9.88825 22.5744C8.85594 22.5744 8.76846 22.5569 8.22606 22.3032C7.7624 22.0845 7.56119 21.9183 7.19376 21.4633C6.45015 20.5273 6.27519 20.0461 6.23145 18.8563C6.18771 17.5966 6.36267 16.4418 6.78259 15.0946C7.29874 13.4761 8.09484 12.1114 9.69578 10.1255C10.4656 9.17196 10.9905 8.69955 12.0928 7.97344C13.1076 7.30856 13.3001 7.00238 13.0726 6.44248C12.9152 6.03131 12.469 5.65514 11.8479 5.37519C11.5154 5.22647 11.2442 5.18273 10.6319 5.17398C9.71328 5.16523 9.34585 5.3052 8.05985 6.18003C7.29874 6.69618 5.12041 8.75204 4.35931 9.67061C3.72943 10.4405 2.86334 11.744 2.35594 12.6888C2.10224 13.1699 1.74356 13.8348 1.5511 14.176C0.737504 15.6632 0.343829 16.7305 0.13387 17.9903C-0.189818 19.9936 0.0551347 21.4021 1.06994 23.3355C1.83979 24.7965 3.23952 26.0912 4.71799 26.6861C6.03898 27.2285 8.23481 27.5172 9.64329 27.351C12.6702 26.9923 14.5598 26.2837 17.2543 24.5253C17.8755 24.1228 18.5578 23.6854 18.7853 23.5454C20.0275 22.7756 22.2846 20.9297 23.0457 20.0636C23.2644 19.8099 23.4569 19.6262 23.4744 19.6524C23.4831 19.6699 23.6931 20.0724 23.9205 20.536L24.3405 21.3934L22.967 23.5542C20.7886 26.9748 17.1493 32.9674 15.8721 35.2157C15.4522 35.9593 14.7436 37.1841 14.3061 37.9277C13.3613 39.5286 11.9878 42.2756 11.6816 43.1767C11.3667 44.0952 11.3842 44.4452 11.7604 44.7951C12.4865 45.4775 14.1137 45.4775 15.0148 44.7951C15.7234 44.2527 17.3593 42.2581 18.6803 40.316C21.6722 35.9156 22.1709 35.1457 24.2005 31.7339C24.8216 30.6841 26.0376 28.8732 27.2799 27.1235C27.6211 26.6423 28.1635 25.8637 28.4872 25.3913C28.8109 24.9277 29.0996 24.5428 29.1258 24.5428C30.9804 24.534 32.9051 24.3765 34.1823 24.1491C35.2934 23.9391 37.4629 23.1518 41.4259 21.5071C43.8142 20.5185 47.4098 18.4539 49.5006 16.8617C51.1891 15.5757 53.5249 12.6975 54.3822 10.8516C54.8109 9.92431 54.9421 9.26819 54.9421 8.01718C54.9421 5.46267 54.3734 3.73925 53.0787 2.34827C51.5215 0.686089 48.8358 -0.223737 46.2375 0.0474609ZM46.5699 3.62552C46.8674 3.75675 47.1998 3.96671 47.2961 4.08044C47.7947 4.64908 47.8997 5.89134 47.5585 7.19484C47.0074 9.31193 44.4966 12.7063 41.6096 15.252C41.0235 15.7594 40.4549 16.2756 40.3324 16.3893C40.0349 16.6605 39.2651 17.1242 38.5302 17.4741L37.9266 17.7628L36.1332 17.7541C35.1359 17.7541 34.2698 17.7191 34.1911 17.6666C34.0511 17.5966 34.1736 17.3954 35.1184 16.0569C36.7543 13.7561 36.8068 13.6861 38.1191 12.0152C39.1601 10.6767 40.0349 9.51314 41.5921 7.39605C42.0908 6.72243 42.6769 6.01381 43.6043 4.96402C44.3041 4.17667 44.4878 4.02795 45.1002 3.72176C45.4852 3.5293 45.8526 3.37182 45.9138 3.37182C45.9751 3.37182 46.2637 3.48555 46.5699 3.62552Z" fill="#D2CD7D"/>
<path d="M12.9502 11.4816C12.4165 11.6653 11.5592 12.2865 11.1218 12.7939C10.2907 13.7737 9.9495 14.9897 10.2732 15.8383C10.5881 16.6606 11.8566 17.4042 12.9502 17.4042C13.8338 17.413 15.2947 16.3457 15.7934 15.3134C16.0996 14.701 16.2658 13.345 16.1083 12.7676C15.9858 12.3215 15.4959 11.8053 14.971 11.5691C14.4374 11.3329 13.4751 11.2892 12.9502 11.4816Z" fill="#D2CD7D"/>
<path d="M33.9961 46.6001C34.1309 45.5393 34.2613 44.501 34.3872 43.4851C34.522 42.4603 34.6613 41.3456 34.8052 40.1409L35.5873 33.8435C35.7401 32.6659 35.875 31.5736 35.9918 30.5667C36.1177 29.5599 36.2525 28.4946 36.3964 27.3708H37.7449C38.3831 28.8811 38.9944 30.3465 39.5788 31.7669C40.1721 33.1873 40.7565 34.6032 41.3318 36.0146L44.7974 44.3347H44.9322L48.3843 36.0146C48.9687 34.5942 49.553 33.1783 50.1373 31.7669C50.7217 30.3465 51.3285 28.8811 51.9578 27.3708H53.3197C53.4636 28.4766 53.5939 29.5329 53.7108 30.5398C53.8277 31.5466 53.958 32.6434 54.1019 33.83L54.8705 40.2083C55.0143 41.368 55.1447 42.4513 55.2616 43.4582C55.3874 44.465 55.5133 45.5123 55.6391 46.6001H54.3446C54.1109 44.7033 53.8906 42.8963 53.6838 41.1792C53.4771 39.4622 53.2838 37.862 53.104 36.3787L52.3219 29.9869H52.214L49.3552 36.8911C48.663 38.5542 47.9663 40.2263 47.2651 41.9074C46.5729 43.5885 45.9256 45.1528 45.3233 46.6001H44.3659C43.9973 45.7011 43.5883 44.7078 43.1388 43.62C42.6893 42.5322 42.2263 41.4175 41.7498 40.2758C41.2734 39.1251 40.8104 38.0103 40.3609 36.9315L37.4752 29.9869H37.3673L36.5852 36.3787C36.4054 37.862 36.2121 39.4622 36.0053 41.1792C35.7986 42.8963 35.5783 44.7033 35.3446 46.6001H33.9961Z" fill="#E3DEDB"/>
<path d="M60.4964 46.6001C60.4964 45.5123 60.4964 44.4695 60.4964 43.4717C60.4964 42.4648 60.4964 41.3725 60.4964 40.1949V33.7896C60.4964 32.6029 60.4964 31.5062 60.4964 30.4993C60.4964 29.4925 60.4964 28.4496 60.4964 27.3708H71.9989V28.598C71.0639 28.598 70.0571 28.598 68.9783 28.598C67.9085 28.598 66.6454 28.598 65.1891 28.598H61.1167L61.8314 27.5327C61.8314 28.6204 61.8314 29.6678 61.8314 30.6746C61.8314 31.6815 61.8314 32.7737 61.8314 33.9514V40.0196C61.8314 41.1882 61.8314 42.276 61.8314 43.2829C61.8314 44.2807 61.8314 45.3236 61.8314 46.4113L61.1571 45.373H65.3239C66.5645 45.373 67.7332 45.373 68.83 45.373C69.9267 45.373 70.9785 45.373 71.9854 45.373V46.6001H60.4964ZM61.5617 37.4305V36.2303H65.4183C66.6949 36.2303 67.7961 36.2303 68.7221 36.2303C69.648 36.2303 70.5425 36.2303 71.4055 36.2303V37.4305C70.4886 37.4305 69.5671 37.4305 68.6412 37.4305C67.7242 37.4305 66.6409 37.4305 65.3913 37.4305H61.5617Z" fill="#E3DEDB"/>
</svg>
