<svg width="174" height="112" viewBox="0 0 174 112" fill="none" xmlns="http://www.w3.org/2000/svg">
<path d="M111.129 0.114182C110.204 0.219307 109.026 0.408554 108.5 0.534706C107.975 0.660866 106.272 0.85009 104.716 0.955223C101.499 1.16548 99.7326 1.60703 97.4828 2.76346C95.4012 3.83578 92.0161 5.87531 91.3222 6.48505C91.0068 6.77942 90.2078 7.45225 89.577 7.99892C87.5165 9.76511 83.3954 14.3698 81.2507 17.2924C80.5779 18.1965 79.3584 19.8366 78.5384 20.9299C76.2045 24.0207 74.7117 26.3336 71.8101 31.2326C68.6352 36.6153 67.731 37.9609 67.3316 37.9609C66.7428 37.9609 65.7756 37.204 65.1449 36.2158L64.493 35.2065L64.6192 32.6834C64.7664 30.2024 64.7454 30.1393 64.2618 29.6977C63.652 29.13 61.255 28.1208 59.8253 27.8264C58.3955 27.5321 56.356 27.7213 55.2416 28.268C53.3493 29.1931 50.2585 32.3891 47.4199 36.384C43.7825 41.5354 40.2291 45.4041 37.3275 47.4437C34.4469 49.4411 29.1904 52.8053 27.7607 53.5412C26.415 54.2351 26.3519 54.2561 23.7657 54.2561C21.2847 54.2561 21.0744 54.214 19.7708 53.6043C18.6564 53.0786 18.1728 52.6791 17.2897 51.5858C15.5025 49.336 15.082 48.1796 14.9769 45.32C14.8717 42.2923 15.2922 39.5169 16.3015 36.2789C17.542 32.3891 19.4554 29.109 23.3031 24.3361C25.1534 22.0443 26.415 20.9089 29.0643 19.1637C31.5033 17.5657 31.9659 16.8298 31.4192 15.4842C31.0407 14.496 29.9684 13.5918 28.4755 12.919C27.6765 12.5616 27.0247 12.4564 25.5529 12.4354C23.3452 12.4144 22.4621 12.7508 19.3713 14.8534C17.542 16.0939 12.3066 21.035 10.4773 23.2428C8.96342 25.093 6.88185 28.2259 5.66235 30.4967C5.05259 31.6532 4.19053 33.2511 3.72796 34.0711C1.77254 37.6456 0.82637 40.2107 0.321746 43.2385C-0.456215 48.0534 0.132512 51.4386 2.57153 56.0853C4.42181 59.5967 7.78597 62.7085 11.3394 64.1383C14.5143 65.4419 19.7918 66.1358 23.177 65.7363C30.452 64.8742 34.9936 63.1711 41.4696 58.9449C42.9624 57.9777 44.6025 56.9264 45.1491 56.59C48.1348 54.7397 53.5595 50.3032 55.3888 48.2216C55.9144 47.6119 56.377 47.1703 56.4191 47.2334C56.4401 47.2755 56.9447 48.2427 57.4914 49.357L58.5006 51.4176L55.1996 56.611C49.9641 64.8321 41.2173 79.2349 38.1475 84.6386C37.1382 86.4258 35.4351 89.3695 34.3838 91.1567C32.113 95.0044 28.812 101.607 28.076 103.772C27.3191 105.98 27.3612 106.821 28.2653 107.662C30.0104 109.302 33.9213 109.302 36.0869 107.662C37.79 106.358 41.7219 101.565 44.8968 96.8968C52.0877 86.3207 53.2862 84.4704 58.1642 76.2703C59.6571 73.7472 62.5797 69.3948 65.5654 65.1896C66.3854 64.0332 67.689 62.1619 68.467 61.0265C69.2449 59.9121 69.9388 58.9869 70.0019 58.9869C74.4594 58.9659 79.0851 58.5874 82.1549 58.0408C84.8252 57.5361 90.0396 55.6438 99.5644 51.6909C105.304 49.315 113.946 44.3529 118.971 40.5261C123.029 37.4353 128.643 30.5178 130.704 26.0813C131.734 23.8525 132.05 22.2756 132.05 19.2689C132.05 13.1293 130.683 8.98714 127.571 5.64401C123.828 1.64908 117.373 -0.537628 111.129 0.114182ZM111.928 8.71381C112.643 9.0292 113.442 9.53382 113.673 9.80716C114.871 11.1738 115.124 14.1595 114.304 17.2924C112.979 22.3807 106.944 30.5388 100.006 36.6573C98.5972 37.8768 97.2305 39.1174 96.9361 39.3907C96.2212 40.0425 94.371 41.1569 92.6048 41.9979L91.154 42.6918L86.8437 42.6708C84.4467 42.6708 82.3651 42.5867 82.1759 42.4605C81.8395 42.2923 82.1338 41.8087 84.4046 38.5917C88.3365 33.0619 88.4627 32.8937 91.6166 28.8777C94.1186 25.6608 96.2213 22.8643 99.9639 17.776C101.162 16.157 102.571 14.4539 104.8 11.9308C106.482 10.0384 106.923 9.68101 108.395 8.9451C109.32 8.48253 110.204 8.10406 110.351 8.10406C110.498 8.10406 111.192 8.37739 111.928 8.71381Z" fill="#5658A6"/>
<path d="M31.1248 27.5954C29.8422 28.0369 27.7816 29.5297 26.7303 30.7493C24.7329 33.1042 23.9129 36.0268 24.6908 38.0663C25.4478 40.0427 28.4965 41.8299 31.1248 41.8299C33.2484 41.851 36.7597 39.2858 37.9582 36.8047C38.6941 35.3329 39.0936 32.0739 38.7152 30.6862C38.4208 29.6139 37.2433 28.3733 35.9818 27.8056C34.6992 27.2379 32.3863 27.1328 31.1248 27.5954Z" fill="#5658A6"/>
<path d="M81.709 112C82.0331 109.451 82.3464 106.955 82.6489 104.514C82.973 102.05 83.3079 99.3712 83.6536 96.4759L85.5333 81.3406C85.9006 78.5101 86.2247 75.885 86.5056 73.465C86.8081 71.0451 87.1322 68.4847 87.4779 65.7839H90.7189C92.2529 69.4138 93.7222 72.9357 95.1266 76.3495C96.5526 79.7633 97.957 83.1663 99.3399 86.5585L107.669 106.555H107.993L116.29 86.5585C117.695 83.1447 119.099 79.7417 120.503 76.3495C121.908 72.9357 123.366 69.4138 124.879 65.7839H128.152C128.498 68.4415 128.811 70.9803 129.092 73.4002C129.373 75.8201 129.686 78.4561 130.032 81.3082L131.879 96.638C132.225 99.4252 132.538 102.029 132.819 104.449C133.122 106.869 133.424 109.386 133.727 112H130.615C130.053 107.441 129.524 103.098 129.027 98.9715C128.53 94.8446 128.066 90.9987 127.634 87.4336L125.754 72.0714H125.494L118.624 88.6652C116.96 92.6624 115.285 96.6812 113.6 100.722C111.936 104.762 110.381 108.522 108.933 112H106.632C105.746 109.84 104.763 107.452 103.683 104.838C102.602 102.223 101.49 99.544 100.345 96.8C99.1994 94.0344 98.0867 91.3552 97.0064 88.7624L90.0707 72.0714H89.8114L87.9316 87.4336C87.4995 90.9987 87.035 94.8446 86.538 98.9715C86.0411 103.098 85.5117 107.441 84.95 112H81.709Z" fill="#5658A6"/>
<path d="M145.401 112C145.401 109.386 145.401 106.879 145.401 104.481C145.401 102.061 145.401 99.436 145.401 96.6056V81.2109C145.401 78.3589 145.401 75.7229 145.401 73.303C145.401 70.8831 145.401 68.3767 145.401 65.7839H173.046V68.7332C170.799 68.7332 168.379 68.7332 165.786 68.7332C163.215 68.7332 160.179 68.7332 156.679 68.7332H146.891L148.609 66.1729C148.609 68.7872 148.609 71.3044 148.609 73.7243C148.609 76.1442 148.609 78.7694 148.609 81.5999V96.1842C148.609 98.9931 148.609 101.607 148.609 104.027C148.609 106.426 148.609 108.932 148.609 111.546L146.989 109.051H157.003C159.985 109.051 162.794 109.051 165.43 109.051C168.066 109.051 170.594 109.051 173.014 109.051V112H145.401ZM147.961 89.9616V87.0771H157.23C160.298 87.0771 162.945 87.0771 165.171 87.0771C167.396 87.0771 169.546 87.0771 171.62 87.0771V89.9616C169.416 89.9616 167.202 89.9616 164.976 89.9616C162.772 89.9616 160.169 89.9616 157.165 89.9616H147.961Z" fill="#5658A6"/>
</svg>
