<svg width="56" height="64" viewBox="0 0 56 64" fill="none" xmlns="http://www.w3.org/2000/svg">
<path d="M51.2661 17.4257C51.3455 20.6316 50.0121 23.1537 47.5661 25.1252C46.6477 25.8623 45.6675 26.5372 44.6079 27.0612C42.7623 27.9848 40.952 28.9705 39.0005 29.6721C38.2234 29.9563 37.4905 30.3737 36.7399 30.7467C35.274 31.4749 34.285 32.6915 33.4638 34.0591C32.8633 35.0538 33.0841 36.0573 33.5609 37.0253C33.7728 37.4515 34.1879 37.6381 34.6382 37.7091C35.1416 37.789 35.6096 37.6736 36.0776 37.4871C37.6494 36.8654 39.0712 36.0218 40.2368 34.7696C41.7821 33.1089 43.504 31.6347 45.2966 30.2494C46.1179 29.6188 46.9833 29.0505 47.937 28.6331C49.0408 28.1446 50.1887 27.9937 51.3897 28.189C53.6503 28.5532 55.4341 30.2671 55.8491 32.5317C56.0787 33.8105 56.0345 35.0893 55.7961 36.3681C55.6372 37.2029 55.3104 37.9755 54.8159 38.6682C52.9703 41.288 50.6479 43.2417 47.4601 43.9966C45.7912 44.3962 44.1134 44.7692 42.4444 45.1688C41.1993 45.4619 39.9542 45.755 38.7267 46.1013C36.369 46.7674 34.6824 48.2238 33.6492 50.4795C33.0046 51.8826 32.5454 53.3035 32.5101 54.8754C32.4748 56.4473 32.3776 58.028 32.0421 59.5821C31.8654 60.4081 31.6358 61.2073 31.2915 61.9799C31.0265 62.5749 30.6733 63.0989 30.1612 63.5074C29.6843 63.8893 29.1545 64.0491 28.5187 63.9869C26.5495 63.8093 25.2867 62.6904 24.439 61.003C23.971 60.0617 23.7414 59.0582 23.6972 58.0103C23.6266 56.4828 23.5383 54.9553 23.4853 53.419C23.4235 51.4564 22.9025 49.6269 22.0283 47.8863C21.7015 47.2292 21.2423 46.8029 20.5624 46.5187C18.7786 45.7727 16.9331 45.3021 15.008 45.1777C13.0035 45.0534 10.999 44.8758 8.97678 44.8758C6.74266 44.8758 4.78229 44.1032 3.01619 42.6823C0.790901 40.8884 -0.0744914 38.5528 0.00498311 35.782C0.0491356 34.2368 0.455342 32.7626 1.02932 31.3328C1.40021 30.4003 1.99185 29.6188 2.69829 28.9173C3.8021 27.8249 5.13551 27.4875 6.62786 27.7361C7.71401 27.9137 8.68537 28.3667 9.59491 28.9883C11.1049 30.0273 12.4207 31.2795 13.6216 32.6649C14.9462 34.1924 16.4032 35.5866 18.0369 36.7944C19.0436 37.5404 20.1474 38.0555 21.3836 38.242C22.2049 38.3663 22.9466 38.2242 23.5383 37.5848C23.9798 37.1052 24.1211 36.599 23.812 35.9685C23.1232 34.5742 22.2579 33.3309 21.0039 32.4074C18.9817 30.9154 16.8801 29.5655 14.5841 28.5176C11.8732 27.2832 9.42714 25.6314 7.50209 23.3224C5.77131 21.2533 4.50854 18.9354 4.08467 16.2179C3.90806 15.0812 3.94338 13.9622 4.23479 12.8433C5.10018 9.45976 9.20637 8.32304 11.5553 10.0459C12.7651 10.934 13.7717 11.9907 14.6636 13.1808C15.3701 14.131 15.9264 15.1789 16.4297 16.2535C16.9066 17.2836 17.3834 18.3138 17.8691 19.335C18.3106 20.2764 18.8669 21.1467 19.5292 21.9548C19.9708 22.4965 20.4564 22.9761 21.1011 23.2692C21.4631 23.4379 21.8428 23.6333 22.2137 23.3846C22.6111 23.1271 22.5228 22.7008 22.4698 22.3101C22.4433 22.1147 22.3815 21.9282 22.3285 21.7328C21.8428 19.8235 21.3836 17.9052 20.8803 15.9959C20.3858 14.131 19.9354 12.266 19.7588 10.3389C19.5822 8.40295 19.6529 6.48473 20.2268 4.61979C20.6684 3.18113 21.366 1.89344 22.6376 0.987612C23.4588 0.401489 24.3419 0.0817884 25.3662 0.0196238C28.9955 -0.202392 31.7065 1.47605 33.8523 4.21129C35.0356 5.71212 35.3358 7.50601 35.1239 9.39759C34.8943 11.4579 34.444 13.4827 33.9848 15.5075C33.4726 17.772 33.0399 20.0455 32.7308 22.3456C32.6867 22.683 32.6425 23.0294 32.6514 23.3757C32.6514 24.0151 33.0664 24.2283 33.6492 23.8997C34.4439 23.4556 35.0091 22.7719 35.5125 22.0348C36.6869 20.3297 37.7642 18.5624 38.7091 16.7152C39.2213 15.7028 39.7422 14.6993 40.2986 13.7047C40.8372 12.7545 41.4819 11.893 42.3119 11.1648C43.4776 10.1347 44.811 9.66399 46.374 9.77056C47.9193 9.87713 49.0849 10.5698 49.8885 11.8753C50.6303 13.0742 51.0011 14.3974 51.1778 15.7828C51.2484 16.3245 51.2484 16.8662 51.2837 17.4079L51.2661 17.4257Z" fill="#D2CD7D"/>
</svg>
