<svg width="61" height="58" viewBox="0 0 61 58" fill="none" xmlns="http://www.w3.org/2000/svg">
<path d="M42.9731 4.5419C44.1452 4.48493 45.3255 4.43611 46.4976 4.37914C46.8557 4.36287 47.222 4.35471 47.5802 4.31402C47.9872 4.26519 48.1336 4.10241 48.1418 3.69548C48.1418 3.1095 48.0767 2.5154 48.1174 1.92942C48.2069 0.635382 49.3302 -0.219168 50.5755 0.0494056C51.4628 0.236593 51.9837 0.846987 52.1872 1.70154C52.3174 2.27124 52.3418 2.86535 52.415 3.45133C52.4883 3.99662 52.5697 4.09429 53.0825 4.09429C53.7174 4.09429 54.3523 4.05359 54.9872 4.06173C55.6221 4.06173 56.257 4.08615 56.8837 4.1187C57.25 4.13498 57.5918 4.25705 57.9174 4.4361C58.6663 4.85116 59.0895 5.67317 58.9837 6.47889C58.8697 7.34158 58.2023 8.06591 57.3151 8.22868C57.0058 8.28565 56.6802 8.25311 56.3709 8.26124C55.2884 8.27752 54.1977 8.28565 53.1151 8.32634C52.6837 8.34262 52.5534 8.48099 52.5779 8.92862C52.6999 11.3702 52.8221 13.8118 52.9686 16.2534C53.0093 16.9126 53.0825 16.9614 53.7011 16.9614C54.6941 16.9614 55.6953 16.9207 56.6883 16.9126C57.0465 16.9126 57.4128 16.8963 57.7709 16.9451C58.7395 17.0753 59.4558 17.7997 59.5535 18.7193C59.6674 19.7204 59.1139 20.5587 58.1128 20.9167C57.6732 21.0714 57.2256 21.0633 56.7698 21.0795C55.8663 21.1202 54.9628 21.1365 54.0593 21.2179C53.3267 21.283 53.286 21.3481 53.2941 22.0317C53.2941 22.577 53.3186 23.1223 53.3511 23.6595C53.4976 26.0115 53.6604 28.3554 53.8151 30.7075C53.8232 30.8458 53.8313 30.9761 53.8476 31.1144C53.9127 31.5946 54.0348 31.7085 54.5721 31.6923C55.2476 31.6679 55.9232 31.6027 56.607 31.562C56.9244 31.5458 57.2419 31.5132 57.5512 31.5458C58.4709 31.6516 59.1628 32.3026 59.3093 33.1735C59.4721 34.1175 59.0163 35.0047 58.1453 35.4035C57.6895 35.6151 57.2011 35.6965 56.6965 35.7371C56.0209 35.8023 55.3453 35.8999 54.6697 35.965C54.2709 36.0057 54.1244 36.2173 54.1407 36.5917C54.157 36.9091 54.1488 37.2265 54.1732 37.5439C54.3442 40.1157 54.507 42.6956 54.686 45.2674C54.7756 46.6022 54.8162 46.6347 56.143 46.4882C56.9081 46.4068 57.6651 46.2766 58.4302 46.1871C58.6988 46.1545 58.9756 46.1301 59.236 46.1627C60.1721 46.2929 60.8314 46.944 60.9698 47.8229C61.1163 48.7426 60.7256 49.5321 59.9035 49.9797C59.4639 50.2157 58.9756 50.3378 58.479 50.3947C57.5837 50.5005 56.6802 50.6063 55.7848 50.7284C55.2883 50.7935 55.1744 50.9237 55.1744 51.4365C55.1744 52.4294 55.2069 53.4304 55.2232 54.4234C55.2395 55.0663 55.15 55.6848 54.8977 56.279C54.6209 56.93 54.157 57.4102 53.5302 57.7276C52.7325 58.1264 51.9511 58.102 51.2267 57.5567C50.5593 57.0521 50.2581 56.3441 50.4371 55.5221C50.7139 54.2606 50.5999 52.9991 50.5592 51.7376C50.5511 51.4283 50.3965 51.233 50.0546 51.2412C49.8267 51.2412 49.5988 51.2412 49.379 51.2574C46.172 51.4365 42.965 51.6155 39.7499 51.7946C39.6115 51.7946 39.4813 51.8109 39.3429 51.8271C39.0824 51.8597 38.9359 52.0306 38.9278 52.2829C38.9115 52.8282 38.9034 53.3653 38.9115 53.9106C38.9115 54.5047 38.8383 55.0907 38.5615 55.6279C38.1383 56.458 37.4789 56.9463 36.5022 56.9219C35.5743 56.8894 34.7928 56.2871 34.508 55.3511C34.3452 54.8303 34.2882 54.2931 34.2964 53.7397C34.2964 53.3328 34.2963 52.9259 34.2638 52.5189C34.2475 52.2748 34.0847 52.1038 33.8243 52.0957C33.5557 52.0876 33.2789 52.0957 33.0103 52.0957C31.244 52.1771 29.4859 52.2666 27.7196 52.3561C27.5405 52.3643 27.3615 52.3724 27.1742 52.3887C26.2382 52.4864 26.1894 52.5352 26.1568 53.4386C26.1405 53.8944 26.1568 54.3501 26.108 54.7977C26.0103 55.6848 25.6684 56.458 24.9277 57.0033C23.6417 57.9636 22.0137 57.3939 21.623 55.8476C21.5335 55.5058 21.5335 55.1314 21.5335 54.7733C21.5335 54.4559 21.6068 54.1466 21.623 53.8292C21.6882 52.877 21.6149 52.7875 20.7033 52.8119C20.2067 52.82 19.7102 52.8445 19.2137 52.877C17.5858 52.9747 15.9579 53.0724 14.3381 53.1863C13.809 53.227 13.7195 53.2921 13.6463 53.8211C13.5649 54.4234 13.3858 54.9686 13.0032 55.4407C12.4823 56.0755 11.823 56.4499 10.9846 56.3115C10.1055 56.165 9.55202 55.6116 9.25086 54.7733C9.10435 54.3664 9.30784 53.7641 8.77063 53.6013C8.40435 53.4874 7.96479 53.6013 7.55781 53.6258C6.38571 53.699 5.20548 53.7641 4.03338 53.8455C2.98338 53.9188 2.05546 53.6746 1.35545 52.8282C0.793823 52.1446 0.598473 51.3714 0.948475 50.5494C1.31476 49.6704 2.01477 49.1902 2.9671 49.2309C4.74153 49.296 6.49154 49.003 8.25783 48.9786C8.86016 48.9786 8.94155 48.8647 8.94155 48.2299C8.94155 47.416 8.92527 46.6022 8.89272 45.7883C8.81946 43.892 8.72994 41.9876 8.64854 40.0913C8.6404 39.8634 8.62412 39.6355 8.5997 39.4158C8.57528 39.2123 8.43691 39.074 8.24156 39.074C7.88342 39.074 7.51712 39.0902 7.15898 39.1228C5.71828 39.2449 4.27756 39.3832 2.82872 39.5053C2.3729 39.546 1.92524 39.5053 1.49384 39.3507C-0.10966 38.7891 -0.516633 36.9172 0.736863 35.7534C1.32291 35.2081 2.04732 34.9558 2.82872 34.8907C4.17989 34.7849 5.53922 34.671 6.89039 34.5896C8.64854 34.4838 8.42877 34.4512 8.39621 32.9456C8.33924 30.4145 8.26597 27.8752 8.18458 25.3441C8.16016 24.628 8.09505 24.5791 7.37877 24.5873C6.38574 24.6035 5.38456 24.6524 4.39153 24.6605C3.94385 24.6605 3.47989 24.6605 3.04035 24.5791C1.85197 24.3675 1.10315 23.5537 1.07059 22.4956C1.03803 21.3807 1.78687 20.4936 3.02408 20.2494C3.42292 20.168 3.82989 20.168 4.23687 20.1436C5.31944 20.0785 6.41014 20.0378 7.49271 19.9645C7.94038 19.932 8.03805 19.818 8.02178 19.3623C7.9648 16.8719 7.89969 14.3815 7.82643 11.8992C7.80201 11.126 7.74502 11.0772 6.92293 11.1016C6.15781 11.126 5.38456 11.1993 4.61944 11.2237C3.88687 11.2481 3.17874 11.1342 2.51943 10.7842C1.93338 10.4749 1.51012 10.0192 1.33918 9.36808C1.00546 8.09032 1.81128 6.86954 3.12175 6.65794C3.39036 6.61725 3.66711 6.6254 3.93571 6.61726C4.6113 6.61726 5.29502 6.62538 5.97061 6.60096C6.45898 6.58469 7.01248 6.73933 7.4276 6.43006C7.89156 6.08824 7.59039 5.50226 7.67993 5.03022C7.74504 4.67212 7.77759 4.3059 7.89154 3.97221C8.18456 3.11766 9.00668 2.56423 9.86948 2.58864C10.7486 2.61306 11.4811 3.19903 11.766 4.08614C11.9451 4.65584 11.8962 5.24996 11.9451 5.83593C11.9695 6.15334 12.1404 6.34052 12.466 6.31611C13.2311 6.27542 14.0044 6.21031 14.7695 6.16962C16.666 6.07196 18.5707 5.98244 20.4672 5.87664C21.1265 5.83595 21.1265 5.81966 21.2649 5.20113C21.3382 4.84303 21.3789 4.48493 21.4765 4.13497C21.7777 3.10951 22.5916 2.5154 23.5847 2.56423C24.5695 2.61306 25.3102 3.29671 25.5056 4.35473C25.5219 4.44425 25.5219 4.53377 25.5382 4.62329C25.6603 5.57551 25.6602 5.59992 26.5312 5.55923C28.6556 5.46156 30.7801 5.34762 32.9045 5.22554C33.6615 5.18485 33.7022 5.11974 33.7591 4.31402C33.7917 3.76874 33.8243 3.23159 33.8731 2.6863C33.8975 2.41773 33.9301 2.14101 34.0033 1.88871C34.2638 1.05044 35.1022 0.44005 35.9487 0.448189C36.7545 0.448189 37.5196 0.993486 37.8289 1.78293C37.9917 2.21428 38.0406 2.66189 38.0324 3.11765C38.0324 3.57341 38.0243 4.02104 38.0406 4.4768C38.0568 4.73724 38.2196 4.87558 38.4882 4.86744C39.9778 4.79419 41.4755 4.72095 42.965 4.64771C42.965 4.63143 42.965 4.61515 42.965 4.59888L42.9731 4.5419ZM44.1534 47.2533C44.1534 47.2533 44.1534 47.2126 44.1534 47.1963C45.5046 47.1393 46.8639 47.0905 48.215 47.0335C48.6627 47.0172 49.1185 46.9928 49.5662 46.9358C50.1685 46.8545 50.2743 46.7487 50.2418 46.1627C50.1767 45.0803 50.0709 44.006 50.0058 42.9235C49.8999 41.0761 49.8186 39.2286 49.7127 37.373C49.6639 36.4859 49.615 36.4208 48.7685 36.4777C46.9208 36.5998 45.0732 36.7626 43.2255 36.8928C41.9638 36.9823 40.7022 37.0393 39.4406 37.137C38.7894 37.1858 38.6836 37.3079 38.6755 37.9915C38.6266 40.8807 38.708 43.7699 38.8301 46.6591C38.8545 47.3102 38.9604 47.3998 39.6848 47.3835C41.1743 47.3509 42.6639 47.2939 44.1534 47.2533ZM38.6266 27.4195C38.6266 27.4195 38.6592 27.4195 38.6673 27.4195C38.6673 28.9984 38.6673 30.5854 38.6673 32.1643C38.6673 32.6933 38.7975 32.8073 39.3103 32.7828C42.4278 32.6363 45.5453 32.4492 48.6465 32.148C49.3709 32.0748 49.436 32.0341 49.4034 31.326C49.3383 29.7471 49.2407 28.1683 49.1511 26.5812C49.0697 25.0919 48.9883 23.6025 48.8988 22.1131C48.8581 21.4295 48.7685 21.3725 48.0604 21.4051C46.8883 21.4702 45.708 21.519 44.5359 21.6004C42.7778 21.7306 41.0197 21.8608 39.2615 22.0317C38.4231 22.1131 38.4231 22.1538 38.4475 22.9351C38.4964 24.4245 38.5534 25.9139 38.6103 27.4114L38.6266 27.4195ZM34.2394 27.9811C34.1906 26.4429 34.158 24.9047 34.0929 23.3665C34.0522 22.5282 34.0196 22.5201 33.2219 22.577C31.2766 22.7154 29.3393 22.8537 27.394 23.0002C26.987 23.0328 26.58 23.0816 26.1812 23.1386C25.5951 23.2281 25.5382 23.3014 25.5137 23.928C25.5137 24.0176 25.5137 24.1071 25.5137 24.1966C25.5463 26.9556 25.5789 29.7227 25.6196 32.4817C25.6196 32.6608 25.6277 32.8398 25.6521 33.027C25.6847 33.2874 25.8556 33.4258 26.108 33.4258C26.5638 33.4258 27.0114 33.4176 27.4673 33.4014C29.144 33.3281 30.8126 33.2467 32.4894 33.1735C32.7173 33.1653 32.9452 33.1653 33.165 33.1491C34.2068 33.0758 34.2394 33.0514 34.2475 32.0585C34.2557 30.6993 34.2475 29.3402 34.2475 27.9811H34.2394ZM38.0813 13.3641C38.0813 13.3641 38.1138 13.3641 38.1301 13.3641C38.1871 14.5849 38.2441 15.7976 38.3092 17.0184C38.3417 17.6206 38.4476 17.6939 39.0662 17.6776C39.2045 17.6776 39.3348 17.6613 39.4731 17.6532C42.1266 17.409 44.7883 17.2463 47.4499 17.1649C48.6383 17.1323 48.6464 17.1486 48.6057 15.9359C48.5243 13.7222 48.4267 11.5167 48.3453 9.30298C48.3453 9.25415 48.3453 9.21345 48.3453 9.16462C48.2964 8.66002 48.2069 8.57865 47.6534 8.57051C47.4743 8.57051 47.2953 8.57864 47.1081 8.58678C45.7569 8.67631 44.4057 8.76585 43.0545 8.85537C41.6545 8.9449 40.2627 9.0344 38.8627 9.1402C38.1789 9.19717 38.0894 9.30299 38.0813 9.97035C38.0731 11.1016 38.0813 12.2247 38.0813 13.356V13.3641ZM21.1835 28.6403H21.1509C21.1509 27.2811 21.1591 25.922 21.1509 24.5628C21.1428 23.4723 21.1021 23.456 19.9707 23.5374C18.8393 23.6188 17.716 23.7001 16.5846 23.7897C15.5021 23.8711 14.4195 23.9524 13.3369 24.0501C12.6776 24.1071 12.6043 24.2048 12.5881 24.9047C12.5881 25.043 12.5881 25.1733 12.5881 25.3116C12.6776 27.9811 12.7672 30.6505 12.8567 33.32C12.8567 33.4095 12.8648 33.499 12.873 33.5885C12.9055 33.9141 13.109 34.0525 13.4183 34.0525C13.5567 34.0525 13.6869 34.0525 13.8253 34.0525C16.0393 33.9385 18.2532 33.8327 20.4672 33.7106C21.0777 33.6781 21.1753 33.5804 21.1835 32.9782C21.1997 31.5295 21.1835 30.0808 21.1835 28.6321V28.6403ZM34.2556 42.6875H34.2231C34.2231 41.3283 34.2231 39.9773 34.2231 38.6182C34.2231 37.5195 34.2068 37.5195 33.0591 37.552C32.294 37.5765 31.5207 37.6009 30.7556 37.6334C29.3556 37.7067 27.9556 37.7799 26.5638 37.8695C25.9045 37.9101 25.823 38.0078 25.8149 38.7077C25.8149 38.9356 25.8149 39.1635 25.8312 39.3832C25.937 41.955 26.0428 44.5268 26.1568 47.0986C26.1894 47.8636 26.2382 47.9206 27.0603 47.8962C29.2254 47.8148 31.3987 47.7253 33.5638 47.6195C34.1661 47.5869 34.2556 47.4974 34.2638 46.8789C34.2719 45.479 34.2638 44.0792 34.2638 42.6794L34.2556 42.6875ZM21.4684 43.3874C21.4684 43.3874 21.4928 43.3874 21.5091 43.3874C21.4358 41.8981 21.3788 40.4087 21.2893 38.9193C21.2486 38.2113 21.1672 38.1462 20.4591 38.1868C18.6114 38.2927 16.7637 38.4147 14.916 38.5368C14.509 38.5612 14.102 38.6019 13.7032 38.6426C13.2067 38.6996 13.1497 38.7647 13.1172 39.2123C13.1172 39.3507 13.1172 39.4809 13.1172 39.6193C13.2393 42.2806 13.3532 44.9419 13.4753 47.6032C13.4753 47.652 13.4753 47.6927 13.4835 47.7416C13.573 48.6043 13.6381 48.6694 14.4765 48.6287C15.6486 48.5636 16.8207 48.4822 17.9928 48.4089C18.9858 48.3438 19.9788 48.295 20.9637 48.2136C21.5742 48.1648 21.6556 48.0671 21.6312 47.4567C21.5823 46.1057 21.5254 44.7466 21.4684 43.3955V43.3874ZM21.1184 14.65H21.1509C21.1509 13.4699 21.1591 12.298 21.1509 11.1179C21.1428 10.4505 21.0207 10.3284 20.337 10.361C17.8056 10.4749 15.2741 10.6133 12.7427 10.7517C12.1485 10.7842 12.0509 10.8982 12.0672 11.5248C12.0916 12.477 12.173 13.4211 12.2055 14.3733C12.2544 15.8627 12.2788 17.3602 12.3357 18.8496C12.3602 19.4681 12.4823 19.5902 13.0602 19.5495C15.5021 19.3867 17.9358 19.2158 20.3777 19.0367C21.0207 18.9879 21.1184 18.8902 21.1265 18.174C21.1428 16.9939 21.1265 15.822 21.1265 14.6419L21.1184 14.65ZM33.9545 13.9664C33.9545 13.9664 33.9219 13.9664 33.9056 13.9664C33.8568 12.7944 33.8243 11.6143 33.7673 10.4424C33.7266 9.61225 33.6778 9.539 32.9208 9.57969C30.6661 9.69363 28.4033 9.82386 26.1486 9.97035C25.4893 10.011 25.3591 10.1494 25.3591 10.8086C25.3591 13.1607 25.3591 15.5127 25.3835 17.8648C25.3835 18.524 25.53 18.6461 26.2056 18.6054C28.4603 18.4752 30.715 18.3205 32.9778 18.1659C33.0673 18.1659 33.1568 18.1415 33.2463 18.1252C33.8568 18.0194 33.9382 17.9462 33.9464 17.352C33.9545 16.2208 33.9464 15.0895 33.9464 13.9583L33.9545 13.9664Z" fill="#D2CD7D"/>
</svg>
