<svg width="358" height="261" viewBox="0 0 358 261" fill="none" xmlns="http://www.w3.org/2000/svg">
<rect width="358" height="260.824" rx="30" fill="#8486C3"/>
<path d="M306.421 192.283C306.398 187.136 305.81 182.033 305.313 176.92C305.244 176.224 305.209 175.527 305.198 174.831C305.198 174.511 305.336 174.203 305.66 174.055C306.052 173.872 306.421 173.952 306.733 174.203C306.987 174.397 307.206 174.626 307.414 174.877C307.991 175.562 308.568 176.235 309.11 176.943C312.007 180.744 314.776 184.636 317.5 188.562C320.662 193.117 323.755 197.705 327.055 202.168C328.048 203.515 329.075 203.857 330.644 203.503C334.487 202.647 337.88 200.992 340.846 198.436C341.088 198.23 341.308 197.99 341.504 197.751C342.658 196.301 343.477 194.635 344.354 193.014C344.62 192.523 344.516 192.101 344.077 191.667C340.95 188.574 337.811 185.48 334.764 182.307C330.69 178.073 326.524 173.941 322.335 169.82C321.285 168.793 320.293 167.709 319.358 166.59C318.654 165.757 318.585 165.118 319.012 164.729C319.589 164.193 320.212 164.467 320.812 164.707C325.624 166.658 330.356 168.782 334.96 171.156C337.015 172.217 339.126 173.13 341.273 173.964C342.242 174.34 343.246 174.511 344.262 174.671C344.689 174.74 344.977 174.409 344.885 173.952C344.631 172.765 344.135 171.669 343.581 170.585C342.3 168.085 340.731 165.768 339.057 163.508C335.491 158.691 331.741 154.023 327.886 149.434C324.643 145.565 320.985 142.095 317.35 138.602C315.446 136.776 313.276 135.304 310.818 134.299C309.225 133.637 307.61 133.009 306.017 132.347C303.675 131.389 301.193 131.069 298.701 130.898C296.9 130.772 295.1 130.886 293.369 131.411C292.342 131.72 291.511 131.571 290.68 130.943C287.368 128.478 283.606 126.857 279.798 125.316C278.69 124.871 277.559 124.791 276.405 124.78C275.828 124.78 275.562 125.008 275.505 125.545C275.447 126.115 275.412 126.686 275.424 127.257C275.482 130.202 275.978 133.066 277.074 135.806C277.34 136.457 277.547 137.13 277.905 137.735C278.644 139.002 278.874 140.2 277.674 141.33C275.966 145.074 273.889 148.681 273.439 152.893C273.185 155.267 273.266 157.573 273.843 159.878C274.305 161.728 274.974 163.508 275.712 165.277C279.948 175.459 286.237 184.271 293.935 192.146C296.081 194.338 298.262 196.484 300.743 198.31C301.932 199.178 303.144 200.022 304.494 200.616C305.221 200.935 305.486 200.81 305.786 200.034C306.225 198.892 306.479 197.728 306.467 196.507C306.467 195.114 306.467 193.71 306.467 192.318L306.421 192.283Z" fill="#5658A6"/>
<path d="M297.103 29.862C296.977 28.7739 296.861 27.728 296.745 26.6926C296.46 24.2733 296.713 21.8857 297.261 19.5192C297.662 17.776 298.622 16.4237 299.993 15.325C300.921 14.5855 301.913 14.5327 302.925 15.1877C303.621 15.6419 304.17 16.2547 304.634 16.9414C305.488 18.2197 306.068 19.6248 306.511 21.0933C307.365 23.9141 307.787 26.8194 308.251 29.7247C309.179 35.5881 310.487 41.367 312.058 47.093C312.195 47.6001 312.364 48.1072 312.554 48.5932C312.839 49.3116 313.229 49.9561 313.936 50.347C314.252 50.0089 313.988 49.6919 313.936 49.375C312.913 43.3109 312.87 37.215 313.377 31.1087C313.588 28.6471 313.978 26.2172 314.568 23.819C315.138 21.5053 316.119 19.3924 317.616 17.533C317.87 17.2161 318.123 16.8886 318.418 16.6033C319.736 15.3144 321.118 15.325 322.415 16.6667C323.206 17.4802 323.712 18.4733 324.092 19.5298C324.778 21.4314 324.957 23.4176 325.062 25.4143C325.178 27.654 324.946 29.8832 324.693 32.0912C324.166 36.7079 323.733 41.3247 323.522 45.9626C323.396 48.9102 323.607 51.8366 323.849 54.763C324.018 56.8125 324.292 58.8515 324.482 60.9011C324.598 62.1688 325.031 63.2042 325.969 64.155C329.513 67.7576 333.152 71.2545 336.906 74.6246C337.739 75.3747 338.551 76.1354 339.353 76.9066C339.996 77.5193 340.555 78.1955 340.988 78.9773C341.895 80.6042 341.315 81.8297 339.49 82.2312C338.393 82.4742 337.391 82.1889 336.421 81.7346C335.092 81.1113 333.805 80.3824 332.635 79.5055C331.707 78.8082 330.705 78.4279 329.587 78.2589C326.338 77.7729 323.079 77.3609 319.81 77.0756C315.834 76.727 311.858 76.41 307.882 76.2199C304.602 76.0614 301.322 75.9029 298.042 75.7022C294.467 75.4804 290.934 74.9732 287.474 73.9802C286.114 73.5893 284.816 73.0505 283.593 72.3532C282.612 71.7933 281.747 71.096 281.051 70.2086C279.691 68.476 279.744 66.7434 281.21 65.1058C283.14 62.9506 285.629 61.8836 288.455 61.5244C292.03 61.0595 295.606 61.2708 299.16 61.704C304.243 62.3167 309.179 63.5951 314.031 65.2115C314.579 65.3911 315.127 65.5601 315.697 65.7397C315.76 65.2854 315.465 65.1587 315.286 64.9791C313.292 63.0668 311.278 61.1863 309.316 59.253C308.662 58.6085 307.945 58.2071 307.038 58.0486C302.598 57.2563 298.158 56.4322 293.718 55.6082C290.659 55.0377 287.611 54.4355 284.658 53.4424C282.591 52.7451 280.608 51.8788 278.858 50.5477C277.455 49.4806 276.527 48.1178 276.073 46.3852C275.377 43.7229 277.16 41.3881 279.786 41.0606C280.956 40.9127 282.127 41.0078 283.287 41.2402C286.641 41.9058 289.868 42.9517 292.99 44.3356C293.359 44.4941 293.718 44.6632 294.256 44.9061C294.045 44.2723 293.655 44.0187 293.349 43.7123C289.615 39.9724 286.029 36.0952 282.56 32.1017C281.241 30.5804 280.25 28.8584 279.301 27.0941C278.51 25.6256 278.204 24.0092 277.961 22.3717C277.919 22.0864 277.919 21.78 277.94 21.4948C278.067 19.5192 279.427 18.4099 281.389 18.6846C282.507 18.8431 283.53 19.2762 284.542 19.7622C287.137 21.0405 289.499 22.6675 291.651 24.6008C293.138 25.932 294.572 27.3159 295.901 28.8161C296.238 29.1964 296.502 29.6824 297.124 29.8726L297.103 29.862Z" fill="#5658A6"/>
<path d="M294.598 233.942C292.251 233.863 289.843 233.387 287.618 232.218C283.834 230.257 281.953 227.047 281.326 223.005C280.172 215.714 285.17 208.501 292.433 207.313C297.309 206.52 301.538 207.927 304.775 211.751C305.705 212.841 306.636 213.95 307.526 215.079C310.945 219.379 310.784 224.55 307.041 228.632C303.763 232.199 299.575 233.764 294.618 233.962L294.598 233.942Z" fill="#5658A6"/>
<path d="M136.555 70.1687C134.208 70.0894 131.8 69.6139 129.575 68.4449C125.791 66.4833 123.91 63.2735 123.283 59.2315C122.129 51.9401 127.127 44.7279 134.39 43.5391C139.266 42.7466 143.495 44.1533 146.732 47.9774C147.662 49.0671 148.593 50.1767 149.483 51.3061C152.903 55.6056 152.741 60.777 148.998 64.8586C145.72 68.4251 141.532 69.9903 136.575 70.1885L136.555 70.1687Z" fill="#5658A6"/>
<path d="M35.7632 215.87C35.8725 217.348 35.3531 218.64 34.5057 219.812C33.9316 220.598 33.2208 221.264 32.4827 221.904C29.0109 224.887 23.4479 223.555 21.2609 220.239C19.9624 218.281 19.2653 216.096 19.2107 213.739C19.1697 211.901 19.8804 210.409 21.3566 209.29C23.4752 207.678 25.8672 206.813 28.5872 207.186C31.9087 207.638 34.0546 209.583 35.2301 212.58C35.6401 213.619 35.8452 214.724 35.7905 215.843L35.7632 215.87Z" fill="#5658A6"/>
<path d="M341.374 115.353C341.484 116.831 340.964 118.123 340.117 119.295C339.543 120.081 338.832 120.747 338.094 121.386C334.622 124.37 329.059 123.038 326.872 119.722C325.574 117.764 324.877 115.579 324.822 113.222C324.781 111.384 325.492 109.892 326.968 108.773C329.087 107.161 331.479 106.296 334.199 106.668C337.52 107.121 339.666 109.066 340.841 112.063C341.251 113.102 341.457 114.207 341.402 115.326L341.374 115.353Z" fill="#5658A6"/>
<path d="M152.769 26.1008C152.878 27.5793 152.359 28.8713 151.512 30.0434C150.937 30.8292 150.227 31.4952 149.489 32.1345C146.017 35.1181 140.454 33.7861 138.267 30.4696C136.968 28.5116 136.271 26.3272 136.217 23.9697C136.176 22.1316 136.886 20.6398 138.362 19.521C140.481 17.9094 142.873 17.0436 145.593 17.4165C148.915 17.8694 151.06 19.814 152.236 22.8109C152.646 23.8498 152.851 24.9553 152.796 26.0742L152.769 26.1008Z" fill="#5658A6"/>
<path d="M51.3616 142.071C51.3616 143.581 51.394 145.106 51.3616 146.616C51.3293 147.403 51.2321 148.221 51.0056 148.992C50.7305 149.956 49.8406 150.55 49.0153 150.486C48.1577 150.421 47.4133 149.699 47.2515 148.719C47.1868 148.366 47.203 148.013 47.203 147.659C47.2515 144.271 47.3 140.883 47.381 137.494C47.3971 136.788 47.478 136.065 47.656 135.391C47.8826 134.556 48.6593 134.026 49.4522 134.026C50.2613 134.026 50.9732 134.54 51.216 135.423C51.3778 136.017 51.4264 136.643 51.4425 137.27C51.4749 138.876 51.4425 140.481 51.4425 142.087C51.4102 142.087 51.3778 142.087 51.3616 142.087V142.071Z" fill="#5658A6"/>
<path d="M105.893 117.309C105.893 118.995 105.942 120.697 105.877 122.383C105.845 123.266 105.667 124.15 105.391 125.001C105.133 125.804 104.275 126.205 103.45 126.093C102.641 125.98 102.155 125.482 101.945 124.744C101.799 124.246 101.751 123.684 101.783 123.154C101.929 119.685 102.107 116.217 102.285 112.748C102.333 111.929 102.511 111.158 103.045 110.516C103.466 110.002 104.048 109.745 104.712 109.858C105.489 109.97 106.039 110.42 106.217 111.19C106.314 111.624 106.33 112.074 106.314 112.507C106.249 114.113 106.136 115.703 106.055 117.309C106.006 117.309 105.958 117.309 105.893 117.309Z" fill="#5658A6"/>
<path d="M26.1201 184.851C26.1201 186.28 26.1524 187.709 26.1201 189.122C26.1201 189.732 26.0392 190.375 25.8612 190.953C25.6509 191.708 25.036 192.141 24.2593 192.173C23.4825 192.205 22.8515 191.804 22.544 191.097C22.3013 190.535 22.1071 189.909 22.0909 189.299C21.9614 186.007 21.8968 182.699 21.832 179.407C21.832 179.07 21.9291 178.7 22.0424 178.379C22.3337 177.64 22.9161 177.255 23.6928 177.223C24.4696 177.191 25.133 177.512 25.4405 178.235C25.667 178.797 25.8126 179.439 25.8288 180.049C25.8774 181.655 25.845 183.261 25.845 184.867H26.1039L26.1201 184.851Z" fill="#5658A6"/>
<path d="M84.4537 116.008C84.4537 117.245 84.4537 118.497 84.4537 119.734C84.4537 120.183 84.486 120.633 84.4213 121.066C84.2757 122.11 83.5961 122.785 82.7223 122.833C81.9132 122.881 81.1526 122.464 80.8614 121.596C80.5863 120.761 80.3597 119.878 80.3273 119.011C80.2464 116.345 80.2627 113.68 80.2789 111.03C80.2789 110.516 80.4083 109.97 80.5863 109.472C80.8614 108.75 81.4439 108.332 82.2368 108.316C83.0297 108.3 83.6608 108.702 83.9197 109.408C84.1624 110.067 84.2757 110.789 84.2918 111.48C84.3404 112.989 84.308 114.499 84.308 116.008C84.3566 116.008 84.4052 116.008 84.4537 116.008Z" fill="#5658A6"/>
<path d="M83.2399 167.973C83.2399 169.129 83.2399 170.286 83.2399 171.458C83.2399 171.908 83.2398 172.357 83.1913 172.791C83.0295 174.091 82.4308 174.766 81.4599 174.83C80.4566 174.894 79.7284 174.316 79.421 173.08C79.243 172.389 79.1459 171.667 79.1297 170.96C79.0812 168.278 79.065 165.613 79.0488 162.931C79.0488 162.497 79.0812 162.032 79.1945 161.614C79.4049 160.811 80.1977 160.217 80.9744 160.217C81.7673 160.217 82.3822 160.635 82.6735 161.325C82.9162 161.887 83.0133 162.529 83.0295 163.14C83.0781 164.746 83.0295 166.351 83.0295 167.957C83.0942 167.957 83.159 167.957 83.2237 167.957L83.2399 167.973Z" fill="#5658A6"/>
<path d="M64.7437 184.802C64.7437 183.309 64.7114 181.976 64.7437 180.643C64.7599 180.033 64.857 179.407 65.0512 178.829C65.2939 178.09 65.9088 177.705 66.6855 177.672C67.4622 177.64 68.0933 177.994 68.4008 178.7C68.6111 179.182 68.7568 179.712 68.773 180.226C68.8054 182.442 68.8215 184.658 68.7406 186.874C68.7082 187.741 68.4817 188.624 68.239 189.475C68.0933 189.957 67.7859 190.455 67.4137 190.824C66.4428 191.82 64.7762 191.306 64.5172 189.941C64.404 189.347 64.4687 188.705 64.5011 188.094C64.5658 186.938 64.6629 185.798 64.7276 184.818L64.7437 184.802Z" fill="#5658A6"/>
<path d="M58.7578 124.648C58.7578 126.157 58.7739 127.667 58.7578 129.192C58.7578 129.899 58.693 130.621 58.3208 131.264C57.9325 131.922 57.3823 132.356 56.5732 132.291C55.8936 132.243 55.3758 131.858 55.1169 131.248C54.9227 130.766 54.7609 130.22 54.7609 129.706C54.7285 126.591 54.7447 123.475 54.7609 120.36C54.7609 119.846 54.8904 119.3 55.1007 118.818C55.4405 117.999 56.201 117.614 57.0586 117.743C57.8515 117.855 58.3855 118.305 58.5797 119.059C58.7091 119.573 58.7578 120.119 58.7578 120.649C58.7901 121.982 58.7578 123.315 58.7578 124.648C58.7578 124.648 58.7577 124.648 58.7416 124.648H58.7578Z" fill="#5658A6"/>
<path d="M92.4957 143.532C92.4957 142.119 92.4795 140.69 92.4957 139.277C92.4957 138.747 92.528 138.201 92.6898 137.703C92.9326 136.98 93.4989 136.547 94.2918 136.499C95.1332 136.434 95.9262 136.9 96.1851 137.687C96.3469 138.185 96.3954 138.731 96.4116 139.245C96.4277 141.91 96.4116 144.56 96.4116 147.226C96.4116 147.932 96.3631 148.639 96.0556 149.313C95.6673 150.196 95.0362 150.646 94.2271 150.598C93.4504 150.55 92.7707 149.988 92.5765 149.104C92.4471 148.494 92.4148 147.868 92.4148 147.258C92.3824 146.021 92.4148 144.769 92.4148 143.532H92.4957Z" fill="#5658A6"/>
<path d="M111.235 151.256C111.235 152.413 111.235 153.569 111.235 154.725C111.235 155.351 111.219 155.978 111.089 156.588C110.911 157.487 110.248 158.049 109.455 158.097C108.662 158.145 107.918 157.696 107.61 156.829C107.384 156.17 107.19 155.448 107.174 154.757C107.125 152.172 107.125 149.602 107.157 147.017C107.157 146.503 107.287 145.957 107.481 145.475C107.772 144.769 108.371 144.367 109.164 144.335C109.924 144.303 110.75 144.913 110.96 145.7C111.106 146.214 111.154 146.744 111.154 147.274C111.187 148.607 111.154 149.94 111.154 151.272H111.219L111.235 151.256Z" fill="#5658A6"/>
<path d="M94.6637 197.681C94.6637 198.661 94.6637 199.64 94.6637 200.62C94.6637 201.069 94.7284 201.519 94.696 201.953C94.5989 203.157 93.9193 203.944 92.9808 204.024C92.1555 204.088 91.3141 203.51 90.9905 202.531C90.7639 201.856 90.6021 201.15 90.5859 200.443C90.505 198.307 90.505 196.172 90.4727 194.036C90.4727 193.41 90.5535 192.783 90.861 192.221C91.2332 191.531 91.8157 191.177 92.6086 191.21C93.4177 191.242 94.0003 191.643 94.243 192.382C94.4372 192.96 94.5181 193.602 94.5342 194.212C94.5828 195.369 94.5342 196.525 94.5342 197.681C94.5828 197.681 94.6314 197.681 94.6637 197.681Z" fill="#5658A6"/>
<path d="M51.5876 204.313C51.5876 203.157 51.5067 202.001 51.6038 200.86C51.7332 199.206 52.6394 198.243 53.7883 198.355C54.8725 198.468 55.5521 199.303 55.5844 200.925C55.6492 203.221 55.6006 205.533 55.5521 207.83C55.5521 208.44 55.4065 209.066 55.2123 209.644C54.9858 210.351 54.2737 210.768 53.5456 210.736C52.8498 210.72 52.3481 210.383 52.0407 209.805C51.7009 209.163 51.5552 208.472 51.5391 207.749C51.5391 206.593 51.5391 205.437 51.5391 204.297C51.5391 204.297 51.5714 204.297 51.5876 204.297V204.313Z" fill="#5658A6"/>
<path d="M73.0282 140.128C73.0282 138.875 73.0282 137.623 73.0282 136.386C73.0282 135.937 73.0444 135.487 73.1577 135.053C73.3519 134.235 74.0962 133.624 74.8729 133.576C75.7305 133.512 76.6206 134.17 76.8471 135.086C76.9604 135.519 76.9765 135.969 76.9765 136.418C76.9765 138.651 76.9765 140.883 76.9765 143.115C76.9765 144.11 76.8147 145.074 76.2645 145.925C75.86 146.567 75.2613 146.937 74.4522 146.84C73.6593 146.744 73.0282 146.134 72.9311 145.202C72.8664 144.592 72.9311 143.966 72.9311 143.34C72.9311 142.264 72.9311 141.204 72.9311 140.128H73.0444H73.0282Z" fill="#5658A6"/>
<path d="M37.9484 119.011C37.9484 117.935 37.9484 116.875 37.9484 115.799C37.9484 115.35 37.9646 114.9 38.0617 114.466C38.2882 113.358 39.1459 112.636 40.1006 112.7C41.0715 112.764 41.8644 113.535 41.8644 114.707C41.8806 117.469 41.8158 120.247 41.7349 123.01C41.7349 123.523 41.5245 124.069 41.298 124.535C40.9744 125.242 40.3595 125.579 39.5505 125.547C38.8061 125.515 38.1588 125.065 37.9646 124.326C37.7866 123.636 37.7219 122.929 37.6895 122.207C37.641 121.131 37.6895 120.071 37.6895 118.995C37.7705 118.995 37.8514 118.995 37.9323 118.995L37.9484 119.011Z" fill="#5658A6"/>
<path d="M62.382 159.799C62.382 160.956 62.382 162.112 62.382 163.268C62.382 164.087 62.2201 164.858 61.8479 165.58C61.3139 166.608 60.4078 167.058 59.4369 166.753C58.6278 166.496 58.1424 165.693 58.1586 164.633C58.1586 164.537 58.1585 164.456 58.1909 164.36C58.644 161.983 58.4336 159.574 58.5145 157.182C58.5307 156.652 58.5308 156.106 58.6602 155.592C58.8706 154.645 59.6958 153.954 60.521 153.938C61.4596 153.922 62.3657 154.693 62.4466 155.801C62.5437 157.134 62.4628 158.466 62.4628 159.799C62.4305 159.799 62.4143 159.799 62.382 159.799Z" fill="#5658A6"/>
<path d="M53.2881 174.268C53.2881 175.601 53.3528 176.934 53.2719 178.25C53.1748 179.68 52.4951 180.482 51.508 180.563C50.5371 180.643 49.5987 179.856 49.4531 178.523C49.1618 175.777 49.3074 173.031 49.7281 170.318C49.7767 169.98 49.9547 169.643 50.1488 169.354C50.9094 168.262 52.6408 168.374 53.2881 169.547C53.6117 170.125 53.644 170.719 53.6116 171.345C53.5631 172.325 53.4984 173.288 53.4498 174.268C53.4013 174.268 53.3528 174.268 53.2881 174.268Z" fill="#5658A6"/>
<path d="M39.1609 185.316C39.1609 186.745 39.2094 188.158 39.1609 189.587C39.1123 190.728 38.546 191.37 37.656 191.482C36.766 191.595 35.876 191.113 35.5362 190.198C35.2935 189.539 35.1641 188.817 35.1641 188.126C35.1641 185.99 35.2287 183.855 35.3096 181.735C35.3096 181.301 35.423 180.852 35.5686 180.434C35.8599 179.631 36.6528 179.085 37.3971 179.117C38.2547 179.149 39.08 179.84 39.177 180.803C39.2741 181.687 39.1932 182.57 39.1932 183.469C39.1932 184.095 39.1932 184.706 39.1932 185.332H39.1609V185.316Z" fill="#5658A6"/>
<path d="M117.626 185.493C117.675 186.472 117.772 187.452 117.788 188.431C117.788 188.961 117.755 189.507 117.642 190.021C117.48 190.776 117.011 191.29 116.202 191.402C115.377 191.515 114.584 191.113 114.276 190.262C113.985 189.427 113.742 188.544 113.694 187.661C113.581 185.701 113.597 183.742 113.564 181.783C113.564 181.607 113.564 181.43 113.597 181.253C113.759 180.242 114.422 179.567 115.328 179.503C116.218 179.439 117.076 180.017 117.319 180.964C117.464 181.558 117.48 182.201 117.513 182.811C117.577 183.694 117.594 184.593 117.642 185.477L117.626 185.493Z" fill="#5658A6"/>
<path d="M101.249 174.942C101.249 175.569 101.314 176.195 101.249 176.805C101.136 177.688 100.489 178.331 99.7118 178.427C98.9513 178.523 98.1746 178.09 97.7862 177.271C97.6082 176.869 97.4625 176.436 97.414 176.002C97.1712 174.059 96.9771 172.116 96.783 170.189C96.7506 169.932 96.7344 169.659 96.7344 169.386C96.7829 168.214 97.414 167.395 98.3687 167.267C99.2911 167.138 100.294 167.764 100.521 168.888C100.925 170.88 101.281 172.903 101.265 174.942H101.249Z" fill="#5658A6"/>
<path d="M37.267 154.082C37.267 152.926 37.2508 151.754 37.267 150.598C37.2831 149.971 37.4449 149.377 37.9466 148.896C38.7718 148.109 40.115 148.269 40.7622 149.233C41.1182 149.779 41.2477 150.373 41.2638 151.015C41.28 153.151 41.3124 155.303 41.3285 157.439C41.3285 157.792 41.28 158.161 41.1991 158.498C40.9725 159.317 40.212 159.912 39.4514 159.928C38.6585 159.96 37.8818 159.43 37.6391 158.595C37.4935 158.097 37.4449 157.551 37.4287 157.021C37.3964 156.042 37.4287 155.062 37.4287 154.082C37.3802 154.082 37.3479 154.082 37.2994 154.082H37.267Z" fill="#5658A6"/>
<path d="M20.5686 116.666C20.5686 115.783 20.5686 114.9 20.5686 114.017C20.5686 113.583 20.601 113.134 20.6981 112.7C20.9085 111.752 21.7337 111.11 22.6075 111.142C23.3842 111.174 24.2743 111.736 24.3714 112.539C24.6788 115.446 24.8568 118.369 24.0315 121.227C23.8211 121.966 23.1577 122.303 22.3487 122.287C21.5396 122.271 20.9571 121.869 20.7305 121.131C20.5202 120.472 20.423 119.75 20.4069 119.043C20.3745 118.256 20.4716 117.453 20.5201 116.65C20.5525 116.65 20.5687 116.65 20.601 116.65L20.5686 116.666Z" fill="#5658A6"/>
<path d="M32.6719 136.852C32.7366 137.912 32.8174 138.795 32.8174 139.678C32.8174 140.208 32.7851 140.754 32.6071 141.252C32.1864 142.424 30.6329 142.729 29.7429 141.862C29.1442 141.268 28.853 140.513 28.8206 139.694C28.7397 137.655 28.6911 135.615 28.6426 133.56C28.6426 133.464 28.6426 133.383 28.6426 133.287C28.7882 131.938 29.4841 131.167 30.6006 131.167C31.6686 131.167 32.4129 131.938 32.5909 133.287C32.6718 133.994 32.6557 134.7 32.6719 135.423C32.6719 135.953 32.6719 136.483 32.6719 136.852Z" fill="#5658A6"/>
<path d="M26.4257 158.948C26.4257 160.008 26.4904 161.068 26.4095 162.128C26.3286 163.22 25.6975 163.878 24.8237 164.007C23.869 164.151 23.0437 163.573 22.6715 162.417C22.5097 161.919 22.3965 161.389 22.3803 160.859C22.3156 159.27 22.2994 157.68 22.2832 156.09C22.2832 155.913 22.2832 155.737 22.3156 155.56C22.4774 154.388 23.1732 153.697 24.1926 153.697C25.1797 153.697 25.9888 154.372 26.1344 155.512C26.28 156.652 26.2963 157.808 26.361 158.948C26.3772 158.948 26.4095 158.948 26.4257 158.948Z" fill="#5658A6"/>
<path d="M211.707 47.6197C211.707 49.1292 211.74 50.6548 211.707 52.1642C211.675 52.9511 211.578 53.7701 211.351 54.5409C211.076 55.5044 210.186 56.0985 209.361 56.0343C208.503 55.9701 207.759 55.2475 207.597 54.2679C207.532 53.9146 207.549 53.5613 207.549 53.208C207.597 49.8197 207.646 46.4314 207.727 43.0431C207.743 42.3365 207.824 41.6139 208.002 40.9394C208.228 40.1044 209.005 39.5745 209.798 39.5745C210.607 39.5745 211.319 40.0883 211.562 40.9715C211.723 41.5657 211.772 42.192 211.788 42.8183C211.821 44.4241 211.788 46.0299 211.788 47.6358C211.756 47.6358 211.724 47.6358 211.707 47.6358V47.6197Z" fill="#5658A6"/>
<path d="M266.239 22.8575C266.239 24.5437 266.287 26.2458 266.223 27.932C266.19 28.8152 266.012 29.6984 265.737 30.5495C265.478 31.3524 264.621 31.7539 263.795 31.6415C262.986 31.5291 262.501 31.0312 262.291 30.2926C262.145 29.7948 262.096 29.2327 262.129 28.7028C262.274 25.2342 262.452 21.7656 262.63 18.2969C262.679 17.478 262.857 16.7072 263.391 16.0648C263.812 15.551 264.394 15.294 265.058 15.4064C265.834 15.5188 266.384 15.9685 266.562 16.7393C266.66 17.1729 266.676 17.6225 266.66 18.0561C266.595 19.6619 266.482 21.2517 266.401 22.8575C266.352 22.8575 266.304 22.8575 266.239 22.8575Z" fill="#5658A6"/>
<path d="M186.466 90.3992C186.466 91.8284 186.498 93.2576 186.466 94.6707C186.466 95.281 186.385 95.9233 186.207 96.5014C185.997 97.2561 185.382 97.6897 184.605 97.7218C183.828 97.7539 183.197 97.3525 182.89 96.6459C182.647 96.0839 182.453 95.4576 182.437 94.8474C182.307 91.5554 182.242 88.2474 182.178 84.9554C182.178 84.6182 182.275 84.2488 182.388 83.9277C182.679 83.189 183.262 82.8036 184.039 82.7715C184.815 82.7394 185.479 83.0605 185.786 83.7832C186.013 84.3452 186.158 84.9875 186.175 85.5978C186.223 87.2036 186.191 88.8094 186.191 90.4153H186.45L186.466 90.3992Z" fill="#5658A6"/>
<path d="M244.799 21.5569C244.799 22.7934 244.799 24.046 244.799 25.2825C244.799 25.7321 244.832 26.1817 244.767 26.6153C244.621 27.6591 243.942 28.3336 243.068 28.3818C242.259 28.4299 241.498 28.0124 241.207 27.1452C240.932 26.3102 240.705 25.427 240.673 24.5598C240.592 21.8942 240.608 19.2285 240.625 16.5788C240.625 16.065 240.754 15.519 240.932 15.0212C241.207 14.2985 241.79 13.881 242.582 13.865C243.375 13.8489 244.006 14.2504 244.265 14.9569C244.508 15.6153 244.621 16.338 244.638 17.0285C244.686 18.538 244.654 20.0474 244.654 21.5569C244.702 21.5569 244.751 21.5569 244.799 21.5569Z" fill="#5658A6"/>
<path d="M243.586 73.5218C243.586 74.678 243.586 75.8342 243.586 77.0065C243.586 77.4561 243.586 77.9058 243.537 78.3393C243.375 79.6401 242.776 80.3145 241.806 80.3788C240.802 80.443 240.074 79.8649 239.767 78.6284C239.589 77.9379 239.492 77.2152 239.475 76.5087C239.427 73.8269 239.411 71.1612 239.395 68.4795C239.395 68.0459 239.427 67.5802 239.54 67.1627C239.751 66.3598 240.543 65.7656 241.32 65.7656C242.113 65.7656 242.728 66.1831 243.019 66.8736C243.262 67.4357 243.359 68.078 243.375 68.6883C243.424 70.2941 243.375 71.8999 243.375 73.5058C243.44 73.5058 243.505 73.5058 243.569 73.5058L243.586 73.5218Z" fill="#5658A6"/>
<path d="M225.089 90.3509C225.089 88.8575 225.057 87.5247 225.089 86.1918C225.106 85.5816 225.203 84.9553 225.397 84.3772C225.64 83.6385 226.255 83.2531 227.031 83.221C227.808 83.1889 228.439 83.5422 228.746 84.2487C228.957 84.7305 229.103 85.2604 229.119 85.7743C229.151 87.9904 229.167 90.2064 229.086 92.4225C229.054 93.2896 228.827 94.1728 228.585 95.0239C228.439 95.5057 228.132 96.0035 227.759 96.3728C226.789 97.3685 225.122 96.8546 224.863 95.4896C224.75 94.8955 224.814 94.2531 224.847 93.6429C224.911 92.4867 225.009 91.3465 225.073 90.367L225.089 90.3509Z" fill="#5658A6"/>
<path d="M219.103 30.1962C219.103 31.7057 219.12 33.2152 219.103 34.7407C219.103 35.4473 219.039 36.1699 218.667 36.8123C218.278 37.4707 217.728 37.9042 216.919 37.84C216.239 37.7918 215.722 37.4064 215.463 36.7962C215.268 36.3145 215.107 35.7685 215.107 35.2546C215.074 32.1393 215.09 29.0239 215.107 25.9086C215.107 25.3947 215.236 24.8488 215.446 24.367C215.786 23.548 216.547 23.1626 217.404 23.2911C218.197 23.4035 218.731 23.8531 218.925 24.6079C219.055 25.1217 219.103 25.6677 219.103 26.1977C219.136 27.5305 219.103 28.8634 219.103 30.1962C219.103 30.1962 219.103 30.1962 219.087 30.1962H219.103Z" fill="#5658A6"/>
<path d="M252.841 49.081C252.841 47.6678 252.825 46.2386 252.841 44.8255C252.841 44.2956 252.874 43.7496 253.036 43.2518C253.278 42.5291 253.845 42.0956 254.637 42.0474C255.479 41.9832 256.272 42.4489 256.531 43.2357C256.693 43.7335 256.741 44.2795 256.757 44.7934C256.773 47.4591 256.757 50.1087 256.757 52.7744C256.757 53.481 256.709 54.1875 256.401 54.862C256.013 55.7452 255.382 56.1948 254.573 56.1467C253.796 56.0985 253.116 55.5365 252.922 54.6532C252.793 54.043 252.76 53.4167 252.76 52.8065C252.728 51.57 252.76 50.3175 252.76 49.081H252.841Z" fill="#5658A6"/>
<path d="M271.581 56.8049C271.581 57.9611 271.581 59.1174 271.581 60.2736C271.581 60.8998 271.565 61.5261 271.435 62.1363C271.257 63.0356 270.594 63.5976 269.801 63.6458C269.008 63.694 268.264 63.2444 267.956 62.3772C267.73 61.7188 267.535 60.9962 267.519 60.3057C267.471 57.7203 267.471 55.1509 267.503 52.5655C267.503 52.0517 267.632 51.5057 267.827 51.0239C268.118 50.3174 268.717 49.9159 269.51 49.8838C270.27 49.8517 271.095 50.4619 271.306 51.2487C271.451 51.7626 271.5 52.2925 271.5 52.8225C271.532 54.1553 271.5 55.4882 271.5 56.821H271.565L271.581 56.8049Z" fill="#5658A6"/>
<path d="M255.009 103.23C255.009 104.209 255.009 105.189 255.009 106.168C255.009 106.618 255.074 107.068 255.042 107.501C254.945 108.706 254.265 109.492 253.326 109.573C252.501 109.637 251.66 109.059 251.336 108.079C251.11 107.405 250.948 106.698 250.932 105.992C250.851 103.856 250.851 101.72 250.818 99.5844C250.818 98.9581 250.899 98.3318 251.207 97.7698C251.579 97.0793 252.161 96.726 252.954 96.7581C253.763 96.7902 254.346 97.1917 254.589 97.9304C254.783 98.5085 254.864 99.1508 254.88 99.761C254.928 100.917 254.88 102.073 254.88 103.23C254.928 103.23 254.977 103.23 255.009 103.23Z" fill="#5658A6"/>
<path d="M211.933 109.862C211.933 108.706 211.852 107.549 211.949 106.409C212.079 104.755 212.985 103.792 214.134 103.904C215.218 104.017 215.898 104.852 215.93 106.473C215.995 108.77 215.946 111.082 215.898 113.379C215.898 113.989 215.752 114.615 215.558 115.193C215.331 115.9 214.619 116.317 213.891 116.285C213.195 116.269 212.694 115.932 212.386 115.354C212.047 114.711 211.901 114.021 211.885 113.298C211.885 112.142 211.885 110.986 211.885 109.846C211.885 109.846 211.917 109.846 211.933 109.846V109.862Z" fill="#5658A6"/>
<path d="M233.374 45.6765C233.374 44.424 233.374 43.1714 233.374 41.9349C233.374 41.4853 233.39 41.0356 233.503 40.6021C233.698 39.7831 234.442 39.1729 235.219 39.1247C236.076 39.0605 236.966 39.7188 237.193 40.6342C237.306 41.0678 237.322 41.5174 237.322 41.967C237.322 44.1991 237.322 46.4313 237.322 48.6634C237.322 49.659 237.16 50.6225 236.61 51.4736C236.206 52.1159 235.607 52.4853 234.798 52.3889C234.005 52.2926 233.374 51.6824 233.277 50.751C233.212 50.1408 233.277 49.5145 233.277 48.8882C233.277 47.8123 233.277 46.7524 233.277 45.6765H233.39H233.374Z" fill="#5658A6"/>
<path d="M198.294 24.5598C198.294 23.4839 198.294 22.424 198.294 21.3481C198.294 20.8985 198.31 20.4488 198.407 20.0153C198.634 18.9072 199.492 18.1846 200.446 18.2488C201.417 18.3131 202.21 19.0839 202.21 20.2561C202.226 23.0182 202.162 25.7963 202.081 28.5583C202.081 29.0722 201.87 29.6182 201.644 30.0839C201.32 30.7904 200.705 31.1277 199.896 31.0955C199.152 31.0634 198.504 30.6138 198.31 29.8751C198.132 29.1846 198.068 28.478 198.035 27.7554C197.987 26.6795 198.035 25.6196 198.035 24.5437C198.116 24.5437 198.197 24.5437 198.278 24.5437L198.294 24.5598Z" fill="#5658A6"/>
<path d="M222.728 65.3481C222.728 66.5043 222.728 67.6605 222.728 68.8168C222.728 69.6357 222.566 70.4065 222.194 71.1292C221.66 72.1569 220.753 72.6065 219.783 72.3014C218.974 72.0445 218.488 71.2416 218.504 70.1817C218.504 70.0854 218.504 70.0051 218.537 69.9087C218.99 67.5321 218.779 65.1233 218.86 62.7306C218.876 62.2007 218.876 61.6547 219.006 61.1408C219.216 60.1934 220.041 59.5029 220.867 59.4868C221.805 59.4708 222.711 60.2416 222.792 61.3496C222.889 62.6824 222.809 64.0153 222.809 65.3481C222.776 65.3481 222.76 65.3481 222.728 65.3481Z" fill="#5658A6"/>
<path d="M213.634 79.8165C213.634 81.1493 213.698 82.4821 213.618 83.7989C213.52 85.2281 212.841 86.0311 211.854 86.1113C210.883 86.1916 209.944 85.4048 209.799 84.0719C209.507 81.3259 209.653 78.58 210.074 75.8661C210.122 75.5289 210.3 75.1916 210.495 74.9026C211.255 73.8106 212.987 73.923 213.634 75.0953C213.957 75.6734 213.99 76.2676 213.957 76.8938C213.909 77.8734 213.844 78.8369 213.796 79.8165C213.747 79.8165 213.698 79.8165 213.634 79.8165Z" fill="#5658A6"/>
<path d="M199.507 90.8647C199.507 92.2939 199.555 93.707 199.507 95.1362C199.458 96.2764 198.892 96.9187 198.002 97.0311C197.112 97.1435 196.222 96.6618 195.882 95.7464C195.639 95.088 195.51 94.3654 195.51 93.6749C195.51 91.5391 195.574 89.4034 195.655 87.2837C195.655 86.8501 195.769 86.4004 195.914 85.9829C196.206 85.18 196.998 84.634 197.743 84.6661C198.6 84.6983 199.426 85.3888 199.523 86.3523C199.62 87.2355 199.539 88.1187 199.539 89.018C199.539 89.6442 199.539 90.2545 199.539 90.8807H199.507V90.8647Z" fill="#5658A6"/>
<path d="M277.972 91.0415C278.02 92.0211 278.117 93.0006 278.134 93.9802C278.134 94.5101 278.101 95.0561 277.988 95.57C277.826 96.3247 277.357 96.8386 276.548 96.951C275.722 97.0634 274.93 96.6619 274.622 95.8108C274.331 94.9758 274.088 94.0926 274.04 93.2094C273.926 91.2503 273.943 89.2912 273.91 87.332C273.91 87.1554 273.91 86.9787 273.942 86.8021C274.104 85.7904 274.768 85.116 275.674 85.0517C276.564 84.9875 277.422 85.5656 277.664 86.513C277.81 87.1072 277.826 87.7495 277.858 88.3598C277.923 89.243 277.939 90.1422 277.988 91.0255L277.972 91.0415Z" fill="#5658A6"/>
<path d="M261.595 80.4913C261.595 81.1176 261.659 81.7439 261.595 82.3541C261.481 83.2373 260.834 83.8796 260.058 83.976C259.297 84.0723 258.52 83.6387 258.132 82.8198C257.954 82.4183 257.808 81.9847 257.76 81.5512C257.517 79.6081 257.323 77.665 257.129 75.738C257.096 75.4811 257.08 75.2081 257.08 74.9351C257.129 73.7628 257.76 72.9439 258.714 72.8154C259.637 72.6869 260.64 73.3132 260.867 74.4373C261.271 76.4285 261.627 78.4519 261.611 80.4913H261.595Z" fill="#5658A6"/>
<path d="M197.613 59.6312C197.613 58.475 197.596 57.3027 197.613 56.1465C197.629 55.5203 197.791 54.9261 198.292 54.4444C199.118 53.6575 200.461 53.8181 201.108 54.7816C201.464 55.3276 201.593 55.9217 201.61 56.5641C201.626 58.6998 201.658 60.8517 201.674 62.9874C201.674 63.3407 201.626 63.7101 201.545 64.0473C201.318 64.8663 200.558 65.4604 199.797 65.4765C199.004 65.5086 198.228 64.9787 197.985 64.1436C197.839 63.6458 197.791 63.0998 197.774 62.5699C197.742 61.5903 197.774 60.6108 197.774 59.6312C197.726 59.6312 197.694 59.6312 197.645 59.6312H197.613Z" fill="#5658A6"/>
<path d="M180.914 22.2152C180.914 21.332 180.914 20.4488 180.914 19.5655C180.914 19.132 180.947 18.6823 181.044 18.2488C181.254 17.3013 182.079 16.659 182.953 16.6911C183.73 16.7232 184.62 17.2853 184.717 18.0882C185.025 20.9947 185.202 23.9174 184.377 26.7758C184.167 27.5145 183.503 27.8517 182.694 27.8356C181.885 27.8196 181.303 27.4181 181.076 26.6794C180.866 26.021 180.769 25.2984 180.753 24.5918C180.72 23.805 180.817 23.002 180.866 22.1991C180.898 22.1991 180.914 22.1991 180.947 22.1991L180.914 22.2152Z" fill="#5658A6"/>
<path d="M193.018 42.4007C193.082 43.4606 193.163 44.3438 193.163 45.227C193.163 45.7569 193.131 46.3029 192.953 46.8007C192.532 47.973 190.979 48.2781 190.089 47.411C189.49 46.8168 189.199 46.0621 189.166 45.2431C189.085 43.2037 189.037 41.1642 188.988 39.1088C188.988 39.0124 188.988 38.9321 188.988 38.8358C189.134 37.4869 189.83 36.7161 190.946 36.7161C192.014 36.7161 192.759 37.4869 192.937 38.8358C193.017 39.5423 193.001 40.2489 193.018 40.9715C193.018 41.5015 193.018 42.0314 193.018 42.4007Z" fill="#5658A6"/>
<path d="M186.771 64.497C186.771 65.5568 186.836 66.6167 186.755 67.6765C186.674 68.7685 186.043 69.4269 185.169 69.5553C184.215 69.6999 183.389 69.1218 183.017 67.9656C182.855 67.4677 182.742 66.9378 182.726 66.4079C182.661 64.8181 182.645 63.2283 182.629 61.6386C182.629 61.4619 182.629 61.2853 182.661 61.1086C182.823 59.9364 183.519 59.2458 184.538 59.2458C185.525 59.2458 186.334 59.9203 186.48 61.0605C186.626 62.2006 186.642 63.3568 186.707 64.497C186.723 64.497 186.755 64.497 186.771 64.497Z" fill="#5658A6"/>
<path fill-rule="evenodd" clip-rule="evenodd" d="M234.173 230.908C234.456 229.422 234.894 228.024 235.784 226.847C236.721 225.602 237.517 224.277 237.968 222.799C238.427 221.307 238.696 219.755 239.04 218.223C239.128 217.841 239.182 217.447 239.242 217.058C239.337 216.436 239.465 215.807 238.959 215.138C238.487 216.931 238.009 218.617 237.611 220.317C237.18 222.203 236.236 223.836 235.272 225.475C234.651 226.525 234.072 227.603 233.438 228.64C233.067 229.242 232.683 229.851 232.197 230.352C231.597 230.975 231.011 230.868 230.546 230.152C230.33 229.824 230.161 229.463 229.932 229.048C230.721 227.83 231.523 226.606 232.305 225.381C233.876 222.926 234.975 220.27 235.696 217.453C235.865 216.804 236.027 216.149 236.182 215.493C236.35 214.784 236.276 214.108 235.845 213.359C235.683 213.626 235.521 213.8 235.46 214.008C235.063 215.292 234.685 216.577 234.301 217.861C234.254 218.015 234.247 218.176 234.186 218.323C233.188 220.772 232.534 223.368 231.166 225.662C230.768 226.331 230.323 226.887 229.494 227.034C228.307 227.255 227.397 226.418 227.728 225.261C227.95 224.478 228.368 223.736 228.773 223.013C229.615 221.514 230.161 219.915 230.633 218.269C230.984 217.052 231.442 215.868 231.867 214.67C232.386 213.205 232.737 210.95 232.454 209.505C231.854 209.304 231.489 209.612 231.274 210.134C231.018 210.756 230.822 211.405 230.573 212.027C230 213.459 229.413 214.884 228.82 216.302C228.59 216.851 228.321 217.38 228.105 217.935C227.93 218.397 227.795 218.858 227.175 218.825C226.554 218.791 226.062 218.47 225.975 217.868C225.867 217.139 225.813 216.369 225.934 215.647C226.325 213.339 227.599 211.392 228.597 209.331C229.426 207.625 230.242 205.905 231.038 204.179C231.22 203.791 231.301 203.35 231.415 202.935C231.739 201.724 231.577 200.62 230.836 199.563C229.797 198.078 228.894 196.519 227.566 195.228C226.622 194.311 225.941 193.12 225.139 192.056C225.017 191.896 224.916 191.728 224.788 191.581C223.662 190.31 222.482 189.086 221.404 187.774C220.157 186.262 218.815 184.81 217.918 183.024C217.797 182.783 217.581 182.589 217.413 182.375C216.449 181.124 215.667 179.779 215.127 178.267C214.534 176.608 213.786 175.002 213.159 173.356C212.707 172.179 212.302 170.988 211.945 169.777C211.466 168.151 210.981 166.519 210.63 164.86C210.388 163.709 210.374 162.504 210.253 161.327C210.118 160.029 210.051 158.718 209.828 157.44C209.37 154.824 208.898 152.208 208.291 149.625C207.462 146.113 207.044 142.527 206.403 138.981C206.161 137.663 206.113 136.305 205.898 134.98C205.669 133.541 205.372 132.11 205.048 130.691C204.981 130.39 204.738 130.016 204.475 129.888C203.949 129.634 203.424 129.942 203.376 130.571C203.268 132.07 203.228 133.575 203.208 135.08C203.201 135.863 203.41 136.666 203.336 137.442C203.073 140.118 202.716 142.781 202.439 145.457C202.372 146.126 202.136 146.682 201.711 147.17C201.01 147.973 200.363 148.836 199.581 149.545C199.075 150.013 198.381 150.281 197.747 150.595C197.396 150.769 193.702 152.027 192.145 152.054C190.695 152.081 189.239 152.168 187.81 151.773C186.36 151.372 185.929 151.358 184.681 150.515C184.068 150.1 183.178 149.358 182.645 148.843C182.079 148.294 180.481 146.193 180.293 146.012C180.117 146.207 179.861 146.374 179.787 146.595C179.605 147.163 180.596 148.896 180.913 149.485C182.032 151.559 183.481 152.355 185.47 153.332C188.733 154.944 191.619 153.941 195.084 153.372C195.354 153.325 195.623 153.292 196.048 153.231C196.331 154.309 196.668 155.346 196.864 156.409C197.1 157.694 197.747 158.698 198.698 159.5C200.032 160.618 201.509 161.467 203.188 162.009C204.34 162.377 205.439 162.886 206.68 162.993C207.192 163.04 207.684 163.408 208.163 163.669C208.642 163.93 208.898 164.331 208.851 164.933C208.662 167.255 209.612 169.342 210.172 171.517C210.428 172.507 210.772 173.477 210.974 174.474C211.278 175.979 212.06 177.27 212.693 178.622C213.475 180.294 214.379 181.907 215.282 183.66C214.696 183.747 214.136 183.807 213.59 183.921C213.017 184.048 212.464 184.322 211.891 184.369C210.132 184.509 208.358 184.496 206.606 184.683C205.21 184.831 203.828 185.165 202.453 185.473C200.154 185.981 197.862 186.537 195.569 187.058C195.266 187.125 194.942 187.132 194.632 187.159C194.106 187.206 193.857 186.998 193.796 186.43C193.682 185.285 193.897 184.235 194.376 183.198C195.36 181.064 196.533 179.063 198.064 177.277C198.468 176.802 198.826 176.287 198.832 175.504C197.915 175.571 197.268 175.865 196.817 176.595C196.115 177.732 195.414 178.876 194.666 179.98C193.54 181.646 192.327 183.252 190.843 184.637C190.385 185.058 190.007 185.573 189.515 185.948C188.403 186.791 187.061 186.938 185.733 187.025C184.634 187.099 183.522 186.965 182.43 187.038C180.313 187.179 178.209 187.406 176.099 187.594C176.059 187.594 176.018 187.614 175.985 187.614C172.816 187.373 169.715 188.095 166.58 188.31C166.189 188.336 165.791 188.37 165.413 188.463C163.162 189.019 160.903 189.574 158.665 190.183C158.078 190.343 157.276 190.29 157.087 191.247C157.397 191.247 157.681 191.32 157.91 191.247C160.452 190.37 163.081 190.31 165.724 190.364C167.618 190.404 169.492 190.25 171.38 190.096C173.288 189.935 175.243 190.016 177.158 190.203C179.51 190.437 181.857 190.758 184.216 190.591C186.09 190.451 187.944 190.049 189.805 189.768C190.385 189.681 190.971 189.621 191.545 189.521C192.589 189.34 193.628 189.153 194.666 188.938C195.347 188.805 196.035 188.758 196.668 188.343C197.059 188.082 197.653 188.116 198.158 188.042C198.974 187.922 199.81 187.881 200.605 187.687C202.911 187.112 205.257 186.885 207.61 186.731C209.808 186.59 212.006 186.523 214.204 186.409C214.79 186.376 215.377 186.242 215.956 186.276C217.406 186.363 218.572 187.132 219.489 188.176C221.175 190.089 222.779 192.076 224.357 194.083C226.042 196.231 227.357 198.62 228.51 201.095C228.86 201.858 228.833 202.547 228.557 203.356C228.085 204.728 227.93 206.213 227.431 207.578C226.73 209.498 225.793 211.338 225.024 213.238C224.316 214.984 223.777 216.784 224.687 218.617C225.011 219.273 225.597 219.795 226.015 220.41C226.271 220.785 226.622 221.207 226.635 221.615C226.676 222.678 226.561 223.749 226.507 224.813C226.487 225.167 226.366 225.555 226.467 225.863C226.946 227.275 227.343 228.74 228.557 229.764C229.4 230.473 230.087 231.215 229.555 232.5C229.346 233.009 229.096 233.263 228.604 233.383C227.107 233.751 225.604 233.858 224.06 233.872C221.121 233.905 218.181 234.126 215.235 234.26C213.779 234.327 212.323 234.313 210.873 234.447C207.819 234.721 204.772 235.063 201.691 235.063C200.019 235.063 198.34 235.424 196.668 235.625C195.226 235.798 193.79 235.986 192.347 236.133C191.295 236.24 190.237 236.387 189.185 236.354C187.304 236.287 185.416 236.213 183.556 235.939C180.117 235.43 176.659 235.404 173.2 235.29C171.569 235.236 169.91 235.149 168.346 234.534C168.205 234.48 168.043 234.44 167.888 234.427C166.324 234.286 164.76 234.159 163.202 233.999C162.42 233.918 161.631 233.852 160.876 233.651C159.177 233.182 157.505 232.627 155.82 232.112C155.146 231.905 154.465 231.697 153.791 231.49C150.946 230.627 148.337 229.282 145.856 227.643C144.811 226.954 143.887 226.137 143.038 225.214C142.491 224.612 141.824 224.117 141.184 223.615C139.282 222.116 137.664 220.297 136.289 218.343C134.705 216.082 132.932 213.874 132.264 211.084C131.934 209.699 131.738 208.281 131.408 206.902C130.889 204.735 130.639 202.54 130.68 200.312C130.72 198.292 130.741 196.265 130.795 194.237C130.808 193.849 130.902 193.455 130.977 193.073C131.132 192.264 131.428 191.454 131.435 190.638C131.455 187.48 131.941 184.416 132.932 181.425C133.613 179.364 134.334 177.317 135.015 175.25C135.46 173.898 135.851 172.533 136.276 171.175C136.512 170.426 136.869 169.703 137.01 168.934C137.287 167.382 137.57 165.816 137.637 164.244C137.745 161.949 137.752 159.634 137.651 157.339C137.583 155.694 137.321 154.054 137.051 152.429C136.714 150.408 136.296 148.394 135.878 146.387C135.628 145.21 135.817 144.126 136.303 143.035C137.024 141.409 137.563 139.69 138.372 138.111C139.06 136.766 139.613 135.388 140.044 133.95C140.226 133.341 140.354 132.719 140.462 132.096C140.496 131.896 140.402 131.668 140.341 131.3C140.064 131.548 139.849 131.655 139.761 131.835C139.276 132.785 138.81 133.749 138.366 134.719C137.476 136.653 136.579 138.586 135.736 140.54C134.826 142.647 134.091 144.835 133.073 146.889C132.163 148.729 131.051 150.475 129.898 152.174C127.572 155.573 125.158 158.905 122.785 162.27C121.619 163.916 120.594 165.689 119.273 167.194C117.951 168.7 117.25 170.393 116.691 172.273C116.124 174.199 115.214 176.013 114.513 177.899C113.886 179.565 113.36 181.265 112.74 182.937C112.052 184.784 111.331 186.624 110.596 188.45C110.407 188.925 110.118 189.36 109.888 189.822C109.005 191.628 108.183 193.475 107.219 195.234C106.598 196.372 105.81 197.422 105.041 198.472C102.607 201.784 100.059 205.022 97.9824 208.595C96.3711 211.372 94.807 214.168 93.1822 216.931C92.6227 217.881 91.9485 218.771 91.2945 219.668C90.6676 220.531 90.0338 221.387 89.3394 222.197C88.3686 223.341 87.3439 224.431 86.3326 225.535C86.1506 225.736 85.9079 225.897 85.6719 226.024C83.6292 227.128 81.5797 228.232 79.5234 229.315C78.02 230.112 76.3885 230.319 74.7098 230.312C73.4491 230.312 72.1884 230.339 70.9344 230.279C70.0041 230.232 69.0265 230.199 68.1568 229.911C66.0736 229.208 64.0241 228.379 61.9814 227.556C61.5162 227.368 61.0712 227.067 60.7004 226.726C60.1274 226.191 60.2959 225.462 61.051 225.281C61.5701 225.161 62.1701 225.12 62.6758 225.248C63.5859 225.482 64.4826 225.803 65.332 226.198C66.4781 226.733 67.631 227.208 68.8984 227.395C69.7479 227.522 70.5299 227.402 71.467 227.007C71.1299 226.82 70.9209 226.699 70.7052 226.586C69.404 225.937 68.0759 225.335 66.8085 224.625C65.723 224.017 64.6241 223.582 63.3702 223.488C62.1566 223.401 60.9431 223.214 59.7431 222.993C59.2172 222.893 58.6846 222.665 58.2329 222.377C57.7408 222.063 57.4981 221.561 57.7003 220.932C57.9093 220.29 58.415 220.303 58.9476 220.323C61.6308 220.404 64.2803 220.758 66.9096 221.3C68.4063 221.608 69.9097 221.882 71.4333 222.096C70.7119 221.447 69.8423 221.1 68.9321 220.906C66.8894 220.477 64.8399 220.109 62.7904 219.708C62.0151 219.561 61.2465 219.414 60.4712 219.246C60.2487 219.199 59.9521 219.139 59.8375 218.979C59.6487 218.711 59.4397 218.323 59.5071 218.055C59.5746 217.808 59.9858 217.507 60.2555 217.493C61.078 217.447 61.9207 217.426 62.723 217.574C65.4331 218.055 68.1973 218.223 70.8468 219.032C71.4401 219.213 72.0401 219.36 72.6603 219.46C71.0423 218.591 69.3299 217.968 67.5298 217.627C66.5253 217.433 65.4938 217.406 64.496 217.192C63.7814 217.038 63.0735 216.744 62.4196 216.403C61.86 216.108 61.8937 215.667 62.4196 215.306C63.0533 214.871 63.7612 214.964 64.4758 215.031C67.8534 215.359 71.1704 216.001 74.4604 216.824C74.7233 216.891 74.9862 216.925 75.2829 216.898C74.6424 216.256 73.8132 215.981 72.9839 215.761C71.8446 215.459 70.6715 215.279 69.5254 214.991C69.0872 214.884 68.649 214.67 68.2782 214.409C68.1029 214.282 67.9546 213.894 68.0152 213.693C68.0692 213.506 68.4063 213.379 68.6422 213.278C68.7771 213.218 68.9523 213.252 69.1074 213.258C71.3861 213.439 73.6581 213.72 75.802 214.563C76.5705 214.864 77.2919 215.272 78.0335 215.647C79.0515 216.169 79.3818 216.122 79.9482 215.118C80.4673 214.195 80.8785 213.211 81.337 212.248C81.6066 211.679 81.91 211.124 82.1392 210.542C82.8673 208.722 82.9887 206.769 83.3527 204.868C83.6089 203.51 83.9393 202.166 84.2089 200.801C84.6067 198.78 85.0517 196.766 85.355 194.732C85.7393 192.143 86.1978 189.581 87.1416 187.125C87.2967 186.724 87.3439 186.276 87.472 185.861C87.7079 185.112 87.9641 184.362 88.2338 183.62C88.4495 183.024 88.7462 182.455 88.9147 181.853C89.6563 179.244 90.7754 176.802 92.0766 174.434C93.6002 171.657 95.0901 168.86 96.5464 166.05C97.0318 165.107 97.3891 164.09 97.7666 163.093C98.2857 161.722 98.7105 160.317 99.2903 158.972C100.328 156.563 101.151 154.081 101.785 151.546C102.351 149.284 102.729 146.976 103.254 144.708C103.645 143.015 104.151 141.349 104.61 139.67C104.913 138.566 105.237 137.462 105.526 136.358C106.113 134.103 106.747 131.862 107.246 129.587C107.684 127.587 108.007 125.553 108.291 123.526C108.729 120.381 109.403 117.297 110.401 114.286C112.154 108.988 114.621 104.03 117.722 99.4201C118.787 97.8345 120.271 96.5232 121.619 95.1382C124.154 92.529 127.107 90.5018 130.383 88.9763C131.617 88.401 132.986 88.0865 134.32 87.7921C135.696 87.4911 137.105 87.3506 138.5 87.1766C139.121 87.0963 139.748 87.0629 140.368 87.0629C142.06 87.0629 143.759 87.0629 145.444 87.1365C147.366 87.2167 149.287 87.3639 151.202 87.5178C151.667 87.558 152.112 87.7654 152.57 87.8657C153.757 88.1266 154.943 88.5548 156.13 88.5682C157.357 88.5816 158.598 88.2069 159.825 87.9795C161.611 87.6449 163.128 86.7217 164.577 85.6846C165.676 84.9018 165.838 83.6173 166.094 82.4331C166.438 80.8474 166.903 77.4085 166.903 77.4085C166.903 77.4085 168.461 77.5089 170.099 77.6026C171.737 77.7029 172.014 77.5089 173.915 77.2881C174.137 77.2613 175.398 77.2078 175.843 77.161C175.54 76.8867 174.367 76.7261 174.198 76.6726C170.766 76.2845 166.89 74.9665 165.366 74.3309C163.849 73.6953 161.099 72.016 159.804 70.4973C159.049 69.6075 159.056 68.4166 159.009 67.3327C158.962 66.3559 159.123 65.3523 159.326 64.3889C160.141 60.4817 161.483 56.7752 163.344 53.2426C164.227 51.5633 164.962 49.8037 165.764 48.0776C166.701 46.0637 168.043 44.3911 169.816 43.033C170.625 43.7488 171.366 44.5182 172.216 45.1338C173.746 46.2377 175.351 47.2279 176.908 48.2917C178.728 49.5361 180.488 50.8742 182.342 52.0517C184.479 53.4099 185.227 55.5307 185.619 57.8323C185.888 59.4246 186.043 61.0504 186.097 62.6628C186.117 63.3318 185.774 64.0142 185.558 64.6833C184.762 67.132 183.974 69.5807 183.151 72.016C182.484 73.9964 182.315 76.0303 182.329 78.0976C182.329 78.4857 182.329 78.8871 182.254 79.2685C181.83 81.5098 181.789 83.7578 182.261 85.9857C182.45 86.8622 182.854 87.7051 183.232 88.5348C183.98 90.1739 185.436 90.95 187.021 91.512C189.488 92.3885 192.043 92.7832 194.652 92.8234C196.978 92.8568 199.304 92.83 201.623 92.9036C204.866 93.004 208.035 93.4523 210.947 95.0513C211.15 95.165 211.379 95.2453 211.608 95.3055C214.675 96.1084 216.759 98.2493 218.68 100.598C220.103 102.337 221.491 104.11 222.894 105.863C223.015 106.017 223.15 106.171 223.244 106.338C224.741 108.994 226.197 111.69 227.107 114.594C227.923 117.183 228.901 119.752 229.177 122.496C229.319 123.867 229.507 125.239 229.73 126.603C229.858 127.38 230.074 128.142 230.262 128.912C231.186 132.745 230.701 136.653 230.876 140.526C230.984 142.895 231.193 145.263 231.361 147.632C231.361 147.712 231.375 147.792 231.375 147.866C231.442 150 231.489 152.134 231.584 154.269C231.732 157.48 231.934 160.685 233.438 163.615C234.267 165.234 235.177 166.813 235.973 168.446C236.694 169.931 237.341 171.463 237.975 172.995C238.98 175.404 239.991 177.806 240.921 180.241C241.44 181.592 241.798 183.004 242.236 184.389C242.317 184.65 242.431 184.911 242.559 185.152C243.247 186.483 243.874 187.808 243.968 189.367C244.016 190.17 244.386 190.986 244.757 191.722C245.964 194.124 246.402 196.733 247.063 199.302C247.616 201.443 247.831 203.584 247.69 205.765C247.494 208.756 247.447 211.76 246.625 214.683C245.849 217.426 245.317 220.23 244.198 222.866C243.49 224.532 243.079 226.338 241.973 227.803C241.508 228.412 240.861 228.887 240.24 229.349C240.119 229.436 239.634 229.235 239.485 229.034C239.148 228.566 239.263 228.038 239.586 227.596C240.584 226.211 240.914 224.558 241.461 222.993C242.034 221.354 242.499 219.674 242.964 218.002C243.099 217.5 243.537 216.891 242.701 216.349C242.526 216.791 242.33 217.166 242.222 217.56C241.67 219.574 241.238 221.628 240.571 223.608C239.728 226.117 238.737 228.559 236.768 230.473C235.973 231.242 235.258 231.55 234.152 230.901L234.173 230.908ZM157.546 154.991C159.022 155.252 161.052 155.172 162.474 154.79C164.052 154.369 165.454 153.807 167.005 153.265C169.034 152.556 170.214 150.642 171.629 149.07C171.966 148.695 172.661 145.792 172.661 145.792C172.661 145.792 171.69 146.628 171.387 146.876C171.023 147.17 170.733 147.551 170.382 147.866C169.445 148.695 168.609 149.739 167.524 150.288C165.056 151.552 162.508 152.603 159.703 153.044C156.319 153.579 153.312 152.777 150.71 150.796C148.829 149.358 146.941 147.819 145.539 145.805C145.384 145.584 144.851 144.427 144.602 144.273C144.42 144.594 144.48 146.387 145.148 147.424C145.808 148.455 146.719 150.013 147.737 150.923C149.139 152.174 150.258 152.636 152.004 153.479C153.784 154.342 156.069 154.723 157.546 154.984V154.991Z" fill="#F4EEEC"/>
<path fill-rule="evenodd" clip-rule="evenodd" d="M285.415 95.3527C286.191 96.8045 287.505 97.3531 288.867 97.7345C290.95 98.3166 293.06 98.7648 295.157 99.2934C295.804 99.4539 296.431 99.6948 297.079 99.8687C298.022 100.13 298.973 100.397 299.93 100.618C302.384 101.193 304.764 101.963 306.969 103.227C308.149 103.903 308.978 104.86 309.322 106.218C309.618 107.389 309.18 108.011 308.297 108.647C308.02 108.847 307.427 108.821 307.083 108.66C306.193 108.259 305.384 107.663 304.495 107.268C303.423 106.793 302.31 106.425 301.198 106.057C300.227 105.736 299.249 105.422 298.258 105.194C295.852 104.646 293.438 104.131 291.024 103.635C289.332 103.288 287.64 102.933 285.901 102.993C285.395 103.013 284.889 103.107 284.384 103.147C283.993 103.181 283.595 103.261 283.211 103.214C281.04 102.94 278.856 102.732 276.712 102.297C275.714 102.097 274.77 101.495 273.867 100.959C273.314 100.631 273.031 100.029 273.132 99.3201C273.368 97.6408 272.808 96.1087 272.181 94.61C272.046 94.2755 271.757 93.8875 271.446 93.7737C270.348 93.379 269.222 93.0445 268.082 92.7902C267.017 92.5561 265.925 92.4557 264.839 92.3085C264.448 92.255 264.064 92.1948 263.673 92.1881C262.568 92.168 261.469 92.2015 260.363 92.1613C258.246 92.081 256.136 91.974 254.026 91.8536C253.682 91.8335 253.318 91.7465 253.001 91.606C251.45 90.9437 249.792 90.4419 248.403 89.5186C247.372 88.8295 246.536 87.6854 245.895 86.5815C244.924 84.9156 244.189 83.1091 243.374 81.3495C243.192 80.9548 243.03 80.54 242.956 80.1118C242.518 77.5159 240.569 76.1979 238.574 75.0338C237.009 74.1172 235.209 73.8629 233.389 73.6354C229.007 73.0935 224.618 73.0065 220.216 72.9597C218.011 72.9396 215.941 72.304 214.061 71.1533C213.299 70.685 212.631 70.0494 211.95 69.4539C209.827 67.594 208.276 65.2255 206.469 63.0913C205.964 62.4958 205.593 61.78 205.155 61.1243C205.047 60.957 204.932 60.7965 204.811 60.6359C204.609 60.375 204.319 60.1006 204.036 60.3816C203.88 60.5355 203.894 60.9503 203.961 61.218C204.042 61.5592 204.251 61.8669 204.413 62.1814C206.092 65.3527 208.182 68.2028 210.791 70.6783C212.483 72.284 214.404 73.4749 216.602 74.1974C217.377 74.4517 218.213 74.5989 219.029 74.6457C221.463 74.7929 223.897 74.9468 226.331 74.9468C228.549 74.9468 230.726 75.1876 232.863 75.7429C233.875 76.0039 234.825 76.5123 235.796 76.9138C236.625 77.255 237.448 77.6029 238.277 77.9508C240.09 78.7001 241.351 79.9312 241.816 81.9249C242.153 83.3901 242.605 84.8286 242.956 86.2871C243.374 88.04 244.432 89.4182 245.41 90.8567C246.381 92.2684 247.817 92.9709 249.313 93.5864C249.617 93.7135 250.001 93.7135 250.338 93.6868C251.862 93.5797 253.385 93.379 254.909 93.3388C255.92 93.3121 256.931 93.5262 257.943 93.573C259.278 93.6332 260.619 93.6868 261.954 93.66C263.302 93.6332 264.597 93.9209 265.905 94.1685C266.174 94.222 266.451 94.2822 266.72 94.2621C267.664 94.1885 268.46 94.6167 269.323 94.8977C271.183 95.4999 271.467 96.9918 271.628 98.6042C271.635 98.6845 271.642 98.7648 271.628 98.8384C271.318 100.257 272.033 101.086 273.199 101.662C273.658 101.889 274.109 102.15 274.588 102.317C277.076 103.187 279.55 104.064 282.247 104.09C284.559 104.117 286.892 104.177 289.177 104.485C291.705 104.826 294.173 105.475 296.573 106.425C298.69 107.262 300.901 107.864 303.045 108.64C303.996 108.988 304.886 109.516 305.802 109.965C306.086 110.098 306.389 110.185 306.652 110.346C307.286 110.727 307.933 111.095 308.513 111.55C309.241 112.106 309.288 112.982 309.274 113.798C309.261 114.474 308.803 114.976 308.182 115.237C307.791 115.404 307.353 115.531 306.928 115.544C305.277 115.578 303.632 115.605 302.007 115.203C301.44 115.063 300.847 115.016 300.274 114.902C298.811 114.608 297.456 114.019 296.067 113.491C293.91 112.668 292.002 111.45 290.013 110.359C289.71 110.192 289.373 110.078 289.042 109.991C287.674 109.623 286.299 109.302 284.937 108.908C282.618 108.239 280.258 107.85 277.851 108.058C276.685 108.158 275.552 108.593 274.386 108.687C271.81 108.894 269.161 109.269 266.923 107.449C266.1 106.78 265.332 106.017 264.644 105.208C263.646 104.037 262.379 103.274 261.078 102.545C260.976 102.485 260.862 102.424 260.754 102.411C257.848 102.057 255.057 100.926 252.057 101.24C251.356 101.314 250.641 101.207 249.933 101.24C248.255 101.314 246.569 101.535 244.897 101.488C243.064 101.428 241.243 101.147 239.511 100.437C238.58 100.063 237.94 99.4405 237.401 98.6243C236.281 96.9584 235.654 95.0784 235.021 93.205C234.832 92.643 234.576 92.081 234.502 91.499C234.205 89.2309 232.843 87.6921 231.097 86.4677C229.573 85.3973 227.874 84.668 226.027 84.3067C223.877 83.8919 221.746 83.3634 219.596 82.9887C218.288 82.7612 216.946 82.7412 215.618 82.6274C214.411 82.5204 213.218 82.3665 212.112 81.7844C211.499 81.4566 210.804 81.2559 210.123 81.0953C208.33 80.6805 206.827 79.7037 205.357 78.6667C204.568 78.1114 204.265 77.2215 203.941 76.3919C203.409 75.0338 203.004 73.6221 202.492 72.2572C201.575 69.7751 200.658 67.2862 199.653 64.8308C199.39 64.1952 198.858 63.66 198.406 63.1114C198.285 62.9709 198.002 62.9642 197.799 62.8973C197.732 63.1381 197.55 63.4191 197.617 63.6131C197.941 64.503 198.379 65.3527 198.689 66.2492C199.181 67.6609 199.707 69.0726 200.038 70.5311C200.564 72.8326 200.86 75.1876 201.406 77.4825C201.824 79.2354 202.836 80.627 204.575 81.3629C206.132 82.0186 207.649 82.8081 209.247 83.35C210.609 83.8116 212.072 83.9722 213.481 84.3067C215.483 84.7751 217.506 84.8286 219.548 84.9289C222.218 85.0627 224.82 85.7853 227.335 86.722C228.919 87.3107 230.221 88.3009 231.218 89.6859C231.266 89.7528 231.292 89.8397 231.353 89.8799C233.382 91.2715 233.524 93.6265 234.259 95.6805C234.738 97.0253 235.142 98.3901 235.681 99.7082C236.538 101.809 238.21 103.08 240.225 103.957C241.371 104.458 242.491 104.619 243.771 104.318C245.518 103.91 247.331 103.789 249.118 103.548C249.853 103.448 250.594 103.334 251.336 103.267C253.709 103.06 256.035 103.401 258.347 103.943C259.298 104.164 260.282 104.231 261.253 104.358C262.379 104.505 263.161 105.208 263.916 105.977C265.298 107.375 266.673 108.787 268.123 110.119C268.453 110.42 269.067 110.5 269.559 110.52C272.026 110.614 274.494 110.727 276.934 110.058C278.66 109.583 280.44 109.637 282.179 110.085C284.343 110.647 286.501 111.229 288.645 111.838C289.157 111.985 289.642 112.266 290.121 112.52C291.51 113.256 292.858 114.073 294.274 114.755C296.519 115.832 298.879 116.561 301.38 116.722C301.609 116.735 301.838 116.829 302.047 116.929C302.512 117.144 302.816 117.518 302.816 118.04C302.816 118.555 302.512 118.93 302.054 119.151C301.879 119.231 301.683 119.331 301.501 119.331C300.052 119.305 298.602 119.264 297.153 119.197C295.123 119.104 293.384 118.14 291.631 117.257C290.047 116.461 288.314 116.307 286.649 115.859C284.047 115.156 281.498 115.672 278.957 116.18C278.438 116.287 277.959 116.635 277.474 116.896C274.709 118.368 271.77 118.809 268.676 118.569C265.716 118.334 263.248 117.13 261.158 115.036C259.817 113.685 258.543 112.3 257.68 110.567C257.181 109.57 256.19 109.644 255.313 109.697C252.745 109.858 250.473 110.975 248.181 112.025C246.212 112.929 244.23 113.825 242.032 113.972C239.983 114.106 237.933 114.099 235.931 113.618C233.005 112.915 230.821 111.102 228.967 108.807C226.728 106.044 225.252 102.846 223.735 99.668C223.121 98.3835 222.508 97.0989 221.847 95.8411C220.863 93.9611 219.252 92.7635 217.371 91.9606C215.22 91.044 212.975 90.5355 210.609 90.5289C208.64 90.5222 206.705 90.6158 204.764 91.044C201.844 91.6863 198.865 91.9941 195.871 91.8268C194.381 91.7465 192.898 91.6127 191.536 90.8701C189.804 89.92 188.529 88.5552 187.916 86.6618C187.04 83.9521 186.217 81.2224 185.442 78.4793C185.01 76.9606 185.536 75.8098 186.837 74.7996C187.356 74.3982 187.754 73.8362 188.213 73.3544C188.725 72.8192 189.204 72.2371 189.77 71.7621C191.166 70.5846 192.237 69.2131 192.541 67.3598C192.682 66.49 192.608 65.6337 192.177 64.8308C191.799 64.135 191.509 63.3924 191.098 62.7233C190.909 62.4155 190.559 62.1078 190.222 62.0074C187.795 61.3116 187.12 59.4383 186.938 57.197C186.837 55.8923 186.79 54.5409 186.001 53.4436C185.455 52.6876 184.781 51.9985 184.06 51.4097C182.968 50.5132 181.788 49.7304 180.635 48.9008C179.873 48.3522 179.125 47.7768 178.336 47.275C176.913 46.3718 175.444 45.5489 174.035 44.6323C172.673 43.7425 171.439 42.7121 170.691 41.2001C170.367 40.5444 170.394 39.9423 170.65 39.2599C171.459 37.1189 173.179 36.0351 175.194 35.4463C177.338 34.8174 179.529 34.1885 181.734 33.961C184.289 33.7001 186.858 33.6198 189.392 34.6903C195.366 37.2126 200.725 40.5511 204.979 45.5355C207.251 48.1916 209.058 51.1488 210.528 54.3402C211.377 56.1867 212.611 57.7924 214.054 59.2175C214.263 59.4182 214.58 59.5788 214.863 59.6122C216.299 59.7929 217.735 60.0538 219.198 59.7661C219.649 59.6791 220.142 59.7327 220.614 59.7527C223.283 59.8531 225.96 59.92 228.623 60.0739C233.093 60.3348 237.576 60.6493 241.897 61.887C245.625 62.9575 248.983 64.7171 251.255 68.0957C252.347 69.7215 253.075 71.5079 253.689 73.3544C254.08 74.5186 254.471 75.676 254.828 76.8536C255.785 79.9713 258.03 81.383 261.091 81.8112C263.484 82.1457 265.871 81.9182 268.264 81.858C271.015 81.7844 273.779 81.6372 276.476 82.3732C279.038 83.069 281.458 84.0726 283.588 85.7184C284.148 86.1533 284.755 86.528 285.334 86.9361C287.863 88.7157 288.308 91.7465 286.413 94.2019C286.103 94.6033 285.766 94.9847 285.449 95.3661L285.415 95.3527Z" fill="#F4EEEC"/>
<path fill-rule="evenodd" clip-rule="evenodd" d="M278.285 194.492C277.806 193.227 277.058 192.103 276.128 191.12C274.665 189.588 273.215 188.042 271.725 186.53C271.179 185.981 270.505 185.567 269.952 185.031C269.076 184.188 268.348 183.158 267.384 182.449C265.766 181.258 264.464 179.739 262.948 178.448C261.323 177.063 259.705 175.678 257.831 174.648C256.415 173.872 254.959 173.176 253.543 172.42C252.606 171.918 251.736 171.269 250.758 170.868C248.621 169.991 246.592 168.861 244.3 168.312C241.987 167.757 239.749 166.907 237.309 166.131C238.933 170.179 240.484 173.992 241.987 177.826C243.275 181.104 244.516 184.402 245.763 187.694C246.221 188.905 246.498 190.25 248.116 190.451C248.149 190.451 248.183 190.491 248.217 190.511C249.99 191.528 251.79 192.498 253.529 193.582C255.464 194.786 257.338 196.084 259.226 197.369C262.368 199.496 265.226 201.972 267.876 204.695C268.509 205.35 269.143 205.999 269.784 206.642C270.728 207.585 271.442 207.679 272.642 207.076C273.094 206.856 273.552 206.635 274.038 206.508C275.386 206.14 276.391 205.344 276.889 204.046C277.806 201.644 278.723 199.222 278.676 196.586C278.663 195.89 278.541 195.154 278.292 194.505L278.285 194.492Z" fill="#F4EEEC"/>
<path fill-rule="evenodd" clip-rule="evenodd" d="M239.795 231.47C240.395 231.048 240.968 230.587 241.595 230.199C243.011 229.329 243.732 227.937 244.386 226.506C244.777 225.643 245.06 224.739 245.364 223.843C246.314 221.033 247.386 218.256 248.148 215.393C248.667 213.426 249.341 211.465 249.314 209.365C249.301 207.906 249.537 206.448 249.584 204.989C249.678 202.192 249.233 199.476 248.357 196.82C247.973 195.663 247.716 194.465 247.379 193.207C248.222 193.047 248.876 193.328 249.49 193.622C250.98 194.331 252.436 195.114 253.899 195.863C254.074 195.95 254.344 196.01 254.398 196.151C254.829 197.221 255.894 197.489 256.703 198.078C257.627 198.747 258.53 199.443 259.454 200.105C261.739 201.731 263.809 203.604 265.744 205.625C266.175 206.08 266.533 206.608 266.951 207.083C267.261 207.438 267.605 207.759 267.935 208.093C268.151 208.314 268.461 208.515 268.549 208.783C269.149 210.609 270.146 212.342 270.167 214.322C270.18 215.453 270.011 216.604 269.796 217.721C269.553 218.959 269.088 220.15 268.845 221.387C268.582 222.699 267.814 223.676 267.005 224.652C266.553 225.194 266.182 225.837 265.65 226.271C264.996 226.807 264.227 227.215 263.479 227.61C263 227.864 262.434 227.951 261.942 228.192C259.663 229.302 257.31 230.152 254.816 230.6C252.078 231.095 249.341 231.651 246.584 232.045C244.838 232.293 243.058 232.306 241.292 232.373C240.381 232.407 240.348 232.333 239.795 231.477V231.47Z" fill="#F4EEEC"/>
<path fill-rule="evenodd" clip-rule="evenodd" d="M114.46 219.902C114.049 219.648 113.637 219.387 113.219 219.146C113.017 219.026 112.775 218.972 112.572 218.858C112.208 218.651 111.743 218.497 111.878 217.908C111.992 217.42 112.458 217.032 113.017 217.052C113.948 217.085 114.784 217.366 115.411 218.136C115.653 218.43 115.97 218.684 116.287 218.892C116.402 218.965 116.772 218.892 116.786 218.832C116.826 218.638 116.833 218.357 116.718 218.229C116.456 217.942 116.098 217.748 115.808 217.48C115.208 216.918 115.37 216.216 116.159 215.961C116.799 215.754 117.433 215.868 117.945 216.289C118.667 216.891 119.341 217.56 120.15 218.31C120.413 218.129 120.777 217.928 121.087 217.661C122.429 216.483 123.912 215.533 125.496 214.73C127.101 213.921 128.685 213.814 130.384 214.463C131.874 215.038 132.986 215.975 133.782 217.333C134.618 218.758 135.373 220.237 136.276 221.615C136.937 222.632 137.706 223.602 138.555 224.478C139.924 225.89 141.36 227.241 142.836 228.539C143.382 229.021 143.241 229.73 142.566 229.884C141.69 230.078 140.793 230.266 139.903 230.286C138.056 230.332 136.202 230.225 134.355 230.259C131.962 230.306 129.555 230.292 127.188 230.567C124.182 230.915 121.175 231.135 118.154 231.008C115.795 230.915 113.462 230.634 111.163 230.092C109.046 229.597 106.929 229.249 104.745 229.503C102.682 229.744 100.862 228.954 99.1966 227.877C97.6056 226.847 97.7134 225.174 99.1764 223.97C100.538 222.846 102.008 223 103.518 223.301C104.738 223.542 105.945 223.876 107.206 224.177C107.482 223.575 107.152 223.287 106.673 223.113C105.608 222.719 104.529 222.357 103.451 221.976C103.093 221.849 102.642 221.822 102.615 221.294C102.594 220.859 103.073 220.283 103.579 220.25C104.118 220.216 104.705 220.21 105.21 220.364C106.484 220.752 107.725 221.233 108.979 221.688C109.235 221.782 109.498 221.969 109.747 221.956C110.017 221.943 110.28 221.749 110.543 221.635C110.415 221.421 110.334 221.106 110.138 220.999C109.66 220.732 109.134 220.551 108.628 220.344C108.271 220.196 107.914 220.063 107.55 219.915C107.57 219.24 107.934 218.985 108.419 218.872C109.316 218.671 110.186 218.604 111.049 219.092C112.067 219.675 113.186 219.982 114.46 219.902Z" fill="#F4EEEC"/>
<path fill-rule="evenodd" clip-rule="evenodd" d="M184.641 72.7521C185.82 69.4069 186.94 66.2356 188.045 63.1045C189.34 63.1647 190.331 64.088 190.715 65.319C191.2 66.8578 190.769 68.0287 189.67 69.166C188.665 70.2031 187.803 71.3873 186.967 72.5648C186.596 73.0867 186.043 73.0867 185.571 73.2874C185.389 73.3677 185.011 72.9796 184.641 72.7521Z" fill="#F4EEEC"/>
<path d="M52.2051 111.346C52.8845 111.567 53.3548 111.158 53.86 110.937C62.7269 107.246 71.9945 104.898 81.4537 103.265C85.3733 102.584 89.3624 102.482 93.2472 103.69C95.5815 104.404 97.7242 105.493 99.5185 107.16C100.215 107.807 100.877 108.521 101.4 109.304C103.229 112.06 102.933 114.952 100.633 117.351C99.292 118.746 97.6371 119.75 95.9299 120.634C91.1045 123.135 86.0004 124.871 80.6524 125.908C77.4122 126.538 74.1372 126.844 70.8448 127.031C65.8103 127.337 60.7933 127.576 55.7589 127.831C54.8008 127.882 53.8252 127.865 52.8671 127.831C51.2644 127.78 51.2644 127.763 51.0554 129.243C50.9857 129.702 50.9683 130.196 50.8464 130.638C50.5154 131.829 49.4353 132.611 48.303 132.577C47.2403 132.543 46.2648 131.897 45.9513 130.774C45.7074 129.872 45.6551 128.92 45.568 127.984C45.4983 127.252 45.2196 126.759 44.5054 126.453C43.1814 125.874 41.962 125.075 40.4639 124.956C39.0528 124.854 37.8857 124.139 36.8056 123.323C34.9591 121.927 33.1474 120.515 31.3357 119.103C25.8134 114.748 22.6081 109.015 21.2319 102.329C20.117 96.9529 19.4376 91.4919 19.2286 86.0138C19.1763 84.6017 19.2286 83.1727 19.3854 81.7606C19.5944 79.9403 20.239 78.273 21.5804 76.912C23.514 74.9386 25.8483 74.7004 28.0955 76.3166C28.7923 76.827 29.4194 77.4224 30.0117 78.0349C36.4224 84.7038 41.9446 91.9682 45.2893 100.611C45.6029 101.41 45.9164 102.193 46.2648 102.975C46.3345 103.111 46.5261 103.248 46.6829 103.299C46.8919 103.367 47.0313 103.231 47.0835 102.992C47.5887 100.304 48.0765 97.5994 48.6339 94.9114C48.7733 94.1968 48.634 93.6184 48.3204 93.006C47.2055 90.7773 46.5435 88.4125 45.9164 86.0308C44.7144 81.4544 43.495 76.878 42.2408 72.3186C41.9098 71.1277 41.5265 69.9538 41.091 68.814C39.3489 64.3397 38.5999 59.6782 38.6347 54.9146C38.687 48.5859 38.8264 42.2403 38.9483 35.9116C38.9831 34.2103 39.1225 32.509 39.7148 30.8758C41.1258 26.9799 44.6448 25.4147 48.5643 27.0139C51.6651 28.2729 53.7729 30.5696 55.3059 33.4107C56.8563 36.2688 57.797 39.3481 58.4067 42.5294C59.6609 49.1814 59.8526 55.8674 59.2255 62.5874C59.2081 62.8425 59.2603 63.1148 59.2777 63.404C60.079 63.2849 60.1313 62.5874 60.3752 62.128C64.8348 53.4856 70.897 46.0511 78.1438 39.5012C84.1887 34.0401 90.2161 28.5621 96.5919 23.4583C99.2921 21.2977 102.044 19.2222 105.145 17.589C107.48 16.364 109.936 15.5644 112.618 15.5985C118.559 15.6835 122.653 19.4603 123.071 25.2616C123.367 29.3617 122.2 33.1215 120.266 36.6941C119.081 38.8717 117.618 40.8793 115.946 42.7336C109.901 49.4366 103.212 55.4421 95.477 60.2737C92.533 62.111 89.5541 63.8633 86.5926 65.6666C86.0177 66.0069 85.4778 66.4152 84.9378 66.8065C84.8681 66.8575 84.7984 67.0276 84.8333 67.0447C84.9378 67.1467 85.0945 67.3169 85.199 67.2999C85.6694 67.2318 86.1397 67.1127 86.6101 66.9936C89.9722 66.0749 93.3518 65.2924 96.801 64.748C98.7172 64.4418 100.651 64.3057 102.584 64.3737C109.744 64.6629 115.197 69.5966 116.068 76.5207C116.259 78.0348 116.294 79.532 116.068 81.0461C115.684 83.5469 114.395 85.4353 112.235 86.7793C110.493 87.8511 108.56 88.4636 106.591 88.991C103.595 89.8076 100.511 90.1308 97.4455 90.5732C93.8047 91.1006 90.1464 91.5089 86.5055 92.0533C84.1015 92.4105 81.6802 92.5807 79.2762 92.5466C74.7295 92.4786 70.1654 92.4616 65.6361 92.1043C63.9986 91.9682 62.3437 92.0873 60.7062 92.0533C58.0757 92.0192 56.3338 93.1251 55.4453 95.6259C54.8182 97.4123 54.0516 99.1645 53.7206 101.036C53.1632 104.2 52.6406 107.382 52.1354 110.546C52.1006 110.801 52.2051 111.09 52.2574 111.346H52.2051Z" fill="#5658A6"/>
</svg>
