<svg width="202" height="202" viewBox="0 0 202 202" fill="none" xmlns="http://www.w3.org/2000/svg">
<circle cx="101" cy="101" r="101" fill="#D2CD7D"/>
<path d="M101.969 20.17C101.969 24.767 102.22 25.0038 102.526 25.0038C102.833 25.0038 103.084 24.753 103.084 20.17C103.084 15.5869 102.833 8.38501 102.526 8.38501C102.22 8.38501 101.969 15.573 101.969 20.17Z" fill="#FFFAA2"/>
<path d="M101.969 42.8622C101.969 46.8463 102.22 47.0552 102.526 47.0552C102.833 47.0552 103.084 46.8323 103.084 42.8622C103.084 38.8921 102.833 32.6375 102.526 32.6375C102.22 32.6375 101.969 38.8782 101.969 42.8622Z" fill="#FFFAA2"/>
<path d="M101.969 79.4708C101.969 89.5842 102.22 90.1414 102.526 90.1414C102.833 90.1414 103.084 89.5981 103.084 79.4708C103.084 69.3435 102.833 53.5049 102.526 53.5049C102.22 53.5049 101.969 69.3575 101.969 79.4708Z" fill="#FFFAA2"/>
<path d="M106.946 82.1733C106.904 83.7614 107.141 83.8589 107.462 83.8728C107.769 83.8728 108.02 83.8032 108.076 82.2151C108.117 80.6271 107.95 78.1196 107.629 78.1057C107.323 78.1057 107.002 80.5853 106.946 82.1733Z" fill="#FFFAA2"/>
<path d="M116.985 40.5357C116.678 42.5835 116.915 42.7367 117.222 42.7785C117.529 42.8203 117.794 42.7506 118.1 40.7029C118.407 38.6551 118.644 35.3955 118.337 35.3537C118.031 35.3119 117.306 38.488 116.999 40.5357" fill="#FFFAA2"/>
<path d="M114.615 60.2473C114.922 60.2891 115.201 60.1498 115.703 56.7787C116.205 53.4076 116.734 48.1001 116.442 48.0584C116.135 48.0166 115.103 53.2543 114.601 56.6254C114.099 59.9966 114.322 60.2055 114.629 60.2612" fill="#FFFAA2"/>
<path d="M111.521 80.9894C111.828 81.0312 112.106 80.864 112.692 76.9217C113.278 72.9795 113.947 66.7805 113.64 66.7248C113.333 66.683 112.176 72.8123 111.577 76.7546C110.991 80.6968 111.2 80.9476 111.507 80.9894" fill="#FFFAA2"/>
<path d="M116.957 78.44C117.264 78.5097 117.529 78.4679 117.947 76.5873C118.366 74.7067 118.784 71.7257 118.477 71.656C118.171 71.5864 117.264 74.4699 116.846 76.3366C116.428 78.2032 116.651 78.3704 116.944 78.44" fill="#FFFAA2"/>
<path d="M140.215 28.4026C139.922 28.2912 138.486 31.3419 137.719 33.3478C136.952 35.3538 137.147 35.5488 137.426 35.6602C137.719 35.7717 137.998 35.7578 138.765 33.7379C139.532 31.7319 140.508 28.5001 140.215 28.3887" fill="#FFFAA2"/>
<path d="M130.678 53.2541C130.971 53.3655 131.264 53.282 132.463 50.1894C133.648 47.083 135.28 42.1378 135.001 42.0263C134.708 41.9149 132.616 46.679 131.417 49.7855C130.232 52.8919 130.399 53.1427 130.678 53.2541Z" fill="#FFFAA2"/>
<path d="M128.141 59.8708C127.849 59.7594 124.614 67.4767 122.703 72.4637C120.793 77.4508 120.919 77.813 121.211 77.9244C121.504 78.0358 121.839 77.8547 123.749 72.8677C125.659 67.8807 128.434 59.9823 128.141 59.8708Z" fill="#FFFAA2"/>
<path d="M126.316 76.4201C125.661 77.7852 125.856 77.9663 126.135 78.0917C126.414 78.231 126.679 78.2589 127.334 76.9076C127.989 75.5564 128.798 73.3136 128.519 73.1743C128.24 73.035 126.985 75.0549 126.33 76.4201" fill="#FFFAA2"/>
<path d="M150.659 53.7416C150.91 53.9227 151.175 53.9924 152.319 52.474C153.462 50.9556 155.066 48.4342 154.815 48.2392C154.564 48.0581 152.57 50.273 151.412 51.7914C150.269 53.3098 150.408 53.5466 150.645 53.7277" fill="#FFFAA2"/>
<path d="M142.768 63.2421C141.276 65.2202 141.388 65.4848 141.639 65.6659C141.89 65.847 142.168 65.9027 143.66 63.9107C145.152 61.9187 147.314 58.673 147.063 58.4919C146.812 58.3108 144.26 61.2501 142.768 63.2421Z" fill="#FFFAA2"/>
<path d="M130.54 80.3066C130.791 80.4877 131.098 80.5016 133.022 77.9524C134.96 75.3892 137.791 71.238 137.54 71.057C137.289 70.8759 134.054 74.7206 132.13 77.2838C130.191 79.833 130.289 80.1255 130.54 80.3205" fill="#FFFAA2"/>
<path d="M134.793 83.1902C135.002 83.427 135.225 83.5523 136.354 82.5772C137.484 81.5882 139.073 79.8608 138.878 79.638C138.669 79.4011 136.745 80.7524 135.615 81.7414C134.486 82.7305 134.597 82.9673 134.793 83.2041" fill="#FFFAA2"/>
<path d="M175.201 60.9716C175.034 60.7208 173.11 61.7099 171.98 62.4761C170.851 63.2422 170.935 63.493 171.102 63.7437C171.269 63.9944 171.478 64.1616 172.608 63.3954C173.737 62.6293 175.369 61.2223 175.201 60.9716Z" fill="#FFFAA2"/>
<path d="M159.486 71.6141C159.667 71.8649 159.918 72.0042 161.968 70.6111C164.017 69.2181 167.099 66.8221 166.932 66.5714C166.764 66.3206 163.404 68.2848 161.34 69.6917C159.291 71.0848 159.318 71.3634 159.486 71.6281" fill="#FFFAA2"/>
<path d="M137.161 86.7564C137.329 87.0071 137.733 87.0489 142.53 83.7893C147.326 80.5435 154.702 75.2361 154.535 74.9714C154.368 74.7207 146.699 79.6102 141.902 82.8559C137.106 86.1017 136.98 86.4917 137.161 86.7425" fill="#FFFAA2"/>
<path d="M143.785 87.0907C143.66 86.8121 141.136 87.6061 139.588 88.2609C138.041 88.9156 138.055 89.1803 138.18 89.4728C138.306 89.7514 138.487 89.9464 140.035 89.2917C141.582 88.637 143.911 87.3833 143.785 87.0907Z" fill="#FFFAA2"/>
<path d="M172.509 82.0618C172.607 82.3543 172.76 82.5633 174.252 82.0757C175.744 81.5882 178.017 80.5852 177.92 80.2927C177.822 80.0001 175.41 80.5295 173.918 81.0031C172.426 81.4907 172.426 81.7553 172.509 82.0479" fill="#FFFAA2"/>
<path d="M157.34 87.0071C157.437 87.2996 157.66 87.4947 160.505 86.5613C163.335 85.6419 167.7 83.9564 167.602 83.6639C167.505 83.3713 162.987 84.5833 160.156 85.5026C157.326 86.422 157.242 86.7146 157.34 87.0071Z" fill="#FFFAA2"/>
<path d="M153.519 88.2469C153.421 87.9544 147.23 89.7096 143.326 90.9773C139.422 92.2449 139.283 92.5514 139.38 92.8439C139.478 93.1364 139.771 93.3036 143.675 92.036C147.579 90.7683 153.617 88.5255 153.533 88.233" fill="#FFFAA2"/>
<path d="M140.732 96.8278C142.461 96.6885 145.166 96.2149 145.138 95.9084C145.11 95.6019 142.377 95.5741 140.634 95.7134C138.905 95.8527 138.822 96.1174 138.849 96.4238C138.877 96.7303 138.989 96.981 140.718 96.8278" fill="#FFFAA2"/>
<path d="M182.745 100.687C178.813 100.645 178.59 100.896 178.59 101.202C178.59 101.509 178.799 101.759 182.731 101.801C186.677 101.843 192.84 101.648 192.84 101.341C192.84 101.035 186.677 100.728 182.731 100.687" fill="#FFFAA2"/>
<path d="M170.613 101.132C170.613 100.826 166.584 100.533 164.004 100.506C161.425 100.478 161.285 100.728 161.285 101.035C161.285 101.341 161.425 101.592 164.004 101.62C166.584 101.648 170.627 101.425 170.627 101.118" fill="#FFFAA2"/>
<path d="M143.297 100.31C138.932 100.269 138.695 100.519 138.695 100.826C138.695 101.132 138.932 101.383 143.283 101.425C147.647 101.467 154.479 101.285 154.479 100.965C154.479 100.659 147.647 100.338 143.283 100.296" fill="#FFFAA2"/>
<path d="M137.678 104.058C137.623 104.364 137.678 104.629 139.505 104.949C141.332 105.27 144.246 105.548 144.302 105.242C144.357 104.935 141.541 104.183 139.7 103.849C137.874 103.514 137.734 103.751 137.678 104.058Z" fill="#FFFAA2"/>
<path d="M175.2 123.393C175.311 123.1 171.254 121.275 168.618 120.244C165.969 119.227 165.746 119.395 165.621 119.687C165.509 119.98 165.565 120.258 168.214 121.289C170.863 122.306 175.088 123.685 175.2 123.393Z" fill="#FFFAA2"/>
<path d="M160.225 117.598C160.336 117.305 157.631 115.996 155.846 115.299C154.062 114.603 153.866 114.812 153.755 115.091C153.643 115.383 153.643 115.648 155.442 116.344C157.227 117.041 160.113 117.891 160.225 117.598Z" fill="#FFFAA2"/>
<path d="M148.875 113.21C148.986 112.917 143.562 110.563 140.049 109.198C136.535 107.833 136.256 108 136.144 108.292C136.033 108.585 136.144 108.891 139.644 110.243C143.158 111.608 148.763 113.502 148.875 113.21Z" fill="#FFFAA2"/>
<path d="M134.946 114.478C136.633 115.369 139.394 116.539 139.533 116.261C139.673 115.982 137.149 114.366 135.462 113.489C133.775 112.597 133.566 112.778 133.426 113.043C133.287 113.321 133.259 113.586 134.946 114.478Z" fill="#FFFAA2"/>
<path d="M166.695 147.102C164.896 145.612 164.631 145.723 164.436 145.96C164.241 146.197 164.171 146.475 165.97 147.966C167.769 149.456 170.753 151.615 170.948 151.379C171.143 151.142 168.494 148.607 166.695 147.102Z" fill="#FFFAA2"/>
<path d="M154.87 138.716C156.669 140.207 159.639 142.352 159.834 142.115C160.029 141.878 157.38 139.343 155.595 137.853C153.796 136.362 153.545 136.473 153.35 136.71C153.155 136.947 153.085 137.226 154.884 138.716" fill="#FFFAA2"/>
<path d="M148.819 132.949C149.014 132.712 146.769 130.525 145.235 129.243C143.702 127.962 143.451 128.087 143.255 128.324C143.06 128.561 142.977 128.826 144.51 130.093C146.044 131.375 148.61 133.172 148.805 132.935" fill="#FFFAA2"/>
<path d="M132.114 119.771C134.261 121.568 137.803 124.173 137.998 123.936C138.193 123.699 134.986 120.704 132.825 118.907C130.677 117.11 130.399 117.208 130.189 117.445C129.994 117.681 129.952 117.974 132.1 119.771" fill="#FFFAA2"/>
<path d="M130.372 126.109C130.595 125.886 128.936 123.88 127.765 122.71C126.593 121.54 126.356 121.651 126.133 121.874C125.91 122.097 125.799 122.334 126.97 123.504C128.141 124.674 130.163 126.332 130.372 126.109Z" fill="#FFFAA2"/>
<path d="M150.744 158.678C150.981 158.483 148.931 155.641 147.495 153.928C146.059 152.214 145.794 152.284 145.557 152.479C145.32 152.674 145.208 152.939 146.644 154.638C148.08 156.352 150.521 158.859 150.758 158.664" fill="#FFFAA2"/>
<path d="M141.693 147.882C141.93 147.687 139.211 144.051 137.343 141.822C135.474 139.608 135.181 139.649 134.944 139.844C134.707 140.039 134.624 140.318 136.478 142.547C138.347 144.762 141.456 148.077 141.693 147.882Z" fill="#FFFAA2"/>
<path d="M131.001 135.136C131.238 134.941 127.78 130.428 125.451 127.656C123.123 124.883 122.802 124.897 122.565 125.092C122.328 125.287 122.258 125.608 124.587 128.38C126.915 131.152 130.75 135.345 130.987 135.136" fill="#FFFAA2"/>
<path d="M118.827 127.628C118.576 127.795 118.408 128.004 119.106 129.034C119.803 130.065 121.113 131.542 121.378 131.361C121.629 131.194 120.737 129.425 120.04 128.394C119.343 127.363 119.092 127.446 118.841 127.628" fill="#FFFAA2"/>
<path d="M138.543 172.915C138.264 173.054 138.097 173.277 139.087 175.144C140.063 177.024 141.82 179.838 142.099 179.699C142.377 179.56 141.053 176.495 140.077 174.628C139.101 172.748 138.822 172.762 138.543 172.915Z" fill="#FFFAA2"/>
<path d="M135.657 167.398C135.936 167.259 133.315 161.701 131.488 158.218C129.675 154.75 129.355 154.666 129.076 154.819C128.797 154.959 128.671 155.265 130.498 158.734C132.311 162.202 135.378 167.538 135.657 167.384" fill="#FFFAA2"/>
<path d="M124.936 145.695C123.764 143.466 123.485 143.466 123.207 143.606C122.928 143.745 122.774 143.982 123.932 146.211C125.103 148.439 127.139 151.81 127.417 151.671C127.696 151.532 126.093 147.924 124.922 145.695" fill="#FFFAA2"/>
<path d="M121.684 140.694C121.963 140.555 119.913 136.097 118.463 133.339C117.013 130.567 116.72 130.539 116.441 130.678C116.162 130.818 116.023 131.082 117.473 133.854C118.923 136.626 121.405 140.833 121.684 140.694Z" fill="#FFFAA2"/>
<path d="M114.24 134.412C114.519 134.272 113.933 132.615 113.417 131.626C112.901 130.637 112.651 130.706 112.372 130.846C112.093 130.985 111.898 131.152 112.413 132.141C112.929 133.13 113.961 134.551 114.24 134.412Z" fill="#FFFAA2"/>
<path d="M121.88 179.532C122.173 179.448 121.309 175.422 120.611 172.887C119.9 170.352 119.621 170.282 119.329 170.365C119.036 170.449 118.827 170.658 119.538 173.179C120.249 175.715 121.587 179.601 121.894 179.518" fill="#FFFAA2"/>
<path d="M117.726 164.668C118.019 164.585 116.82 159.361 115.9 156.059C114.979 152.772 114.686 152.66 114.394 152.73C114.101 152.814 113.906 153.064 114.826 156.352C115.746 159.639 117.433 164.738 117.726 164.654" fill="#FFFAA2"/>
<path d="M109.666 135.777C109.374 135.86 109.178 136.097 110.043 139.19C110.907 142.282 112.497 147.074 112.804 146.99C113.097 146.907 111.981 141.99 111.117 138.897C110.252 135.804 109.959 135.693 109.666 135.777Z" fill="#FFFAA2"/>
<path d="M106.431 132.726C106.124 132.796 105.901 132.921 106.18 134.133C106.459 135.359 107.142 137.197 107.449 137.128C107.756 137.058 107.56 135.094 107.268 133.882C106.989 132.67 106.724 132.656 106.431 132.726Z" fill="#FFFAA2"/>
<path d="M102.526 178.18C102.22 178.18 101.969 178.417 101.969 182.68C101.969 186.943 102.22 193.615 102.526 193.615C102.833 193.615 103.084 186.943 103.084 182.68C103.084 178.417 102.833 178.18 102.526 178.18Z" fill="#FFFAA2"/>
<path d="M102.526 160.545C102.22 160.545 101.969 160.698 101.969 163.554C101.969 166.41 102.22 170.895 102.526 170.895C102.833 170.895 103.084 166.423 103.084 163.554C103.084 160.684 102.833 160.545 102.526 160.545Z" fill="#FFFAA2"/>
<path d="M102.526 133.562C102.22 133.562 101.969 133.868 101.969 139.636C101.969 145.403 102.22 154.429 102.526 154.429C102.833 154.429 103.084 145.403 103.084 139.636C103.084 133.868 102.833 133.562 102.526 133.562Z" fill="#FFFAA2"/>
<path d="M89.6987 168.151C89.4059 168.067 89.1271 168.123 88.5972 170.184C88.0673 172.246 87.4678 175.561 87.7606 175.631C88.0673 175.715 89.141 172.525 89.6848 170.463C90.2146 168.401 90.0055 168.22 89.7127 168.137" fill="#FFFAA2"/>
<path d="M92.3359 155.739C91.7921 157.856 91.1647 161.255 91.4714 161.325C91.7642 161.409 92.8797 158.135 93.4235 156.018C93.9673 153.9 93.7582 153.719 93.4653 153.635C93.1586 153.552 92.8937 153.608 92.3359 155.739Z" fill="#FFFAA2"/>
<path d="M94.7885 148.509C95.0813 148.593 96.9916 142.255 98.0513 138.173C99.111 134.091 98.9297 133.813 98.623 133.729C98.3302 133.646 98.0234 133.813 96.9637 137.894C95.904 141.976 94.4817 148.426 94.7885 148.509Z" fill="#FFFAA2"/>
<path d="M73.8453 172.762C73.5664 172.636 73.2736 172.664 72.1442 175.144C71.0148 177.623 69.467 181.621 69.7459 181.747C70.0248 181.872 72.0326 178.097 73.1621 175.617C74.2915 173.138 74.1242 172.901 73.8453 172.776" fill="#FFFAA2"/>
<path d="M79.2696 160.879C78.9908 160.754 78.7119 160.754 77.8753 162.592C77.0387 164.445 75.9371 167.44 76.216 167.566C76.4949 167.691 78.0426 164.905 78.8932 163.052C79.7298 161.199 79.5485 161.004 79.2696 160.865" fill="#FFFAA2"/>
<path d="M85.4611 147.269C85.1822 147.144 84.8894 147.172 83.746 149.679C82.6026 152.187 81.0549 156.199 81.3338 156.338C81.6127 156.463 83.6345 152.646 84.7639 150.153C85.9072 147.645 85.7399 147.409 85.4611 147.283" fill="#FFFAA2"/>
<path d="M93.0173 130.678C92.7385 130.553 92.4456 130.595 91.1768 133.381C89.9079 136.167 88.151 140.625 88.4299 140.764C88.7088 140.889 90.9258 136.627 92.1947 133.855C93.4635 131.068 93.3101 130.818 93.0173 130.692" fill="#FFFAA2"/>
<path d="M89.1972 129.717C89.7131 129.021 89.5319 128.826 89.2948 128.645C89.0438 128.463 88.8208 128.352 88.3048 129.049C87.7889 129.745 87.1894 130.999 87.4264 131.18C87.6774 131.361 88.6813 130.414 89.1972 129.703" fill="#FFFAA2"/>
<path d="M65.4369 153.106C66.6918 151.462 66.5524 151.226 66.3153 151.044C66.0643 150.863 65.7994 150.794 64.5445 152.437C63.2896 154.081 61.5327 156.798 61.7697 156.979C62.0207 157.174 64.182 154.75 65.4369 153.106Z" fill="#FFFAA2"/>
<path d="M73.3004 140.973C71.934 142.77 69.9819 145.737 70.2189 145.918C70.4699 146.113 72.8124 143.439 74.1928 141.655C75.5593 139.858 75.4338 139.608 75.1968 139.427C74.9458 139.232 74.6809 139.19 73.3004 140.973Z" fill="#FFFAA2"/>
<path d="M84.4562 128.241C85.7529 126.541 85.6274 126.304 85.3764 126.109C85.1255 125.914 84.8605 125.859 83.5638 127.558C82.267 129.258 80.4265 132.072 80.6775 132.253C80.9285 132.448 83.1594 129.926 84.4562 128.241Z" fill="#FFFAA2"/>
<path d="M80.2867 122.543C80.0636 122.32 79.8405 122.209 78.8086 123.239C77.7768 124.27 76.3406 126.067 76.5498 126.276C76.7729 126.499 78.5577 125.05 79.5895 124.034C80.6213 123.003 80.4958 122.766 80.2867 122.557" fill="#FFFAA2"/>
<path d="M37.5904 147.018C37.4091 146.768 37.1303 146.656 34.6344 148.37C32.1246 150.083 28.3459 152.994 28.5132 153.245C28.6805 153.496 32.766 151.016 35.2618 149.289C37.7717 147.576 37.7717 147.269 37.5904 147.018Z" fill="#FFFAA2"/>
<path d="M51.9268 137.866C54.5761 136.055 54.5761 135.749 54.4088 135.484C54.2275 135.233 53.9486 135.122 51.2994 136.933C48.6501 138.744 44.6483 141.795 44.8156 142.059C44.9969 142.31 49.2776 139.677 51.9268 137.866Z" fill="#FFFAA2"/>
<path d="M77.2333 119.827C77.052 119.576 76.6895 119.52 72.5483 122.362C68.4071 125.204 62.0628 129.857 62.244 130.107C62.4253 130.358 69.0485 126.123 73.1897 123.281C77.3309 120.44 77.4146 120.078 77.2333 119.827Z" fill="#FFFAA2"/>
<path d="M72.7992 116.316C73.7334 115.759 73.6637 115.508 73.4963 115.244C73.329 114.979 73.1617 114.798 72.2135 115.355C71.2793 115.912 69.9407 117.013 70.0941 117.278C70.2475 117.542 71.851 116.874 72.7852 116.316" fill="#FFFAA2"/>
<path d="M40.4084 119.896C40.3247 119.604 40.1016 119.409 37.3687 120.231C34.6497 121.053 30.4527 122.585 30.5364 122.878C30.62 123.17 34.9704 122.125 37.6894 121.303C40.4084 120.482 40.492 120.189 40.3944 119.896" fill="#FFFAA2"/>
<path d="M56.8618 114.923C56.7781 114.631 56.569 114.422 54.087 115.174C51.619 115.926 47.8124 117.333 47.91 117.626C47.9937 117.918 51.9397 116.985 54.4217 116.247C56.8897 115.494 56.9594 115.216 56.8618 114.923Z" fill="#FFFAA2"/>
<path d="M68.9104 111.859C71.476 111.078 71.5457 110.8 71.4481 110.507C71.3645 110.215 71.1414 110.02 68.5757 110.786C66.0101 111.566 62.0641 113.015 62.1478 113.321C62.2315 113.614 66.3308 112.639 68.8964 111.859" fill="#FFFAA2"/>
<path d="M61.7839 106.426C61.8397 106.732 65.0188 106.384 67.0128 106.022C69.0067 105.646 69.0764 105.381 69.0206 105.074C68.9648 104.768 68.8115 104.545 66.8176 104.921C64.8236 105.297 61.7282 106.133 61.7839 106.426Z" fill="#FFFAA2"/>
<path d="M18.2934 99.9063C14.7239 99.9202 9.14648 100.185 9.14648 100.491C9.14648 100.798 14.7239 101.035 18.2934 101.021C21.863 101.021 22.0442 100.756 22.0442 100.45C22.0442 100.143 21.849 99.8924 18.2795 99.9063" fill="#FFFAA2"/>
<path d="M30.3691 100.436C30.3691 100.742 34.9984 100.979 37.9544 100.979C40.9104 100.979 41.0638 100.714 41.0638 100.408C41.0638 100.102 40.8965 99.8508 37.9544 99.8508C34.9984 99.8508 30.3691 100.129 30.3691 100.436Z" fill="#FFFAA2"/>
<path d="M61.2259 100.895C67.2216 100.882 67.5563 100.631 67.5563 100.324C67.5563 100.018 67.2356 99.7671 61.2259 99.7811C55.2302 99.795 45.8184 100.074 45.8184 100.38C45.8184 100.687 55.2302 100.909 61.2259 100.895Z" fill="#FFFAA2"/>
<path d="M61.9512 96.2569C61.9373 96.5634 64.2659 96.9674 65.7718 97.051C67.2777 97.1485 67.3753 96.8977 67.3892 96.5913C67.4031 96.2848 67.3474 96.0201 65.8415 95.9365C64.3356 95.839 61.9791 95.9365 61.9512 96.2569Z" fill="#FFFAA2"/>
<path d="M30.202 77.7572C30.0905 78.0497 33.3114 79.5821 35.4169 80.4179C37.5224 81.2537 37.7315 81.0587 37.857 80.7801C37.9686 80.4875 37.9546 80.2089 35.8352 79.3731C33.7158 78.5373 30.3136 77.4647 30.202 77.7572Z" fill="#FFFAA2"/>
<path d="M44.4244 83.3853C44.3128 83.6778 47.9521 85.3773 50.3225 86.3245C52.7068 87.2579 52.9299 87.0768 53.0415 86.7982C53.153 86.5056 53.1112 86.227 50.7408 85.2937C48.3564 84.3604 44.5359 83.1067 44.4244 83.3992" fill="#FFFAA2"/>
<path d="M67.5565 92.5235C67.6681 92.231 67.6123 91.9384 64.726 90.8101C61.8537 89.6817 57.2523 88.1355 57.1407 88.4141C57.0292 88.7066 61.4354 90.7126 64.3077 91.8409C67.1801 92.9832 67.4311 92.8021 67.5426 92.5235" fill="#FFFAA2"/>
<path d="M64.3218 86.0738C64.1684 86.3385 65.9532 87.6619 67.1662 88.3584C68.3793 89.0549 68.5745 88.8877 68.7279 88.6091C68.8813 88.3445 68.9371 88.0798 67.724 87.3833C66.5109 86.6868 64.4751 85.7952 64.3218 86.0599" fill="#FFFAA2"/>
<path d="M33.4235 50.4541C33.2143 50.677 36.5329 54.1317 38.7638 56.2073C40.9948 58.2968 41.2876 58.2272 41.4968 57.9903C41.7059 57.7675 41.7617 57.461 39.5307 55.3854C37.2998 53.2959 33.6326 50.2173 33.4235 50.4402" fill="#FFFAA2"/>
<path d="M47.713 63.8132C47.5038 64.0361 50.669 67.3515 52.8024 69.3435C54.9357 71.3355 55.2285 71.2659 55.4377 71.043C55.6468 70.8201 55.7026 70.5276 53.5693 68.5356C51.4359 66.5436 47.9221 63.6043 47.713 63.8272" fill="#FFFAA2"/>
<path d="M70.2764 84.8895C70.4855 84.6667 70.4995 84.3323 67.5713 81.5881C64.6432 78.8438 59.8745 74.7344 59.6654 74.9712C59.4562 75.1941 63.8763 79.6657 66.8044 82.41C69.7326 85.1542 70.0672 85.1124 70.2764 84.8895Z" fill="#FFFAA2"/>
<path d="M69.9267 77.0888C69.6618 77.256 70.7075 79.3734 71.5023 80.6271C72.2971 81.8948 72.5481 81.8251 72.813 81.6579C73.0779 81.4908 73.2453 81.2958 72.4505 80.0281C71.6557 78.7605 70.1916 76.9217 69.9267 77.0749" fill="#FFFAA2"/>
<path d="M63.1508 56.0402C63.4158 55.887 63.5413 55.5944 61.8541 52.697C60.1669 49.7995 57.2946 45.3697 57.0297 45.5368C56.7647 45.6901 59.2048 50.3706 60.892 53.2681C62.5792 56.1656 62.8999 56.2074 63.1648 56.0402" fill="#FFFAA2"/>
<path d="M65.925 60.7764C65.6601 60.9296 67.1799 64.036 68.2954 65.9445C69.4109 67.8529 69.6897 67.8251 69.9547 67.6718C70.2196 67.5186 70.373 67.2818 69.2714 65.3873C68.1559 63.4788 66.2039 60.6231 65.9389 60.7903" fill="#FFFAA2"/>
<path d="M76.7169 79.2896C76.9818 79.1364 77.1352 78.8996 75.9639 76.8936C74.7927 74.8877 72.743 71.8648 72.4781 72.0181C72.2131 72.1713 73.8306 75.4449 75.0018 77.4508C76.1731 79.4568 76.452 79.4429 76.7169 79.2896Z" fill="#FFFAA2"/>
<path d="M81.6406 77.5903C81.9334 77.4788 82.1147 77.2838 81.3757 75.3614C80.6228 73.4391 79.2145 70.5277 78.9216 70.6391C78.6288 70.7505 79.577 73.857 80.3299 75.7793C81.0829 77.7017 81.3618 77.7156 81.6406 77.6042" fill="#FFFAA2"/>
<path d="M74.8627 39.6582C73.5102 35.3816 71.7114 29.9209 70.2195 25.5329C69.4665 23.3459 68.7972 21.4235 68.2953 20.0444C67.7933 18.6792 67.4587 17.8573 67.389 17.8852C67.3192 17.9131 67.5144 18.7628 67.8909 20.1698C68.2674 21.5767 68.8251 23.5409 69.4805 25.7558C70.7772 30.1995 72.4644 35.702 73.8169 39.9785C76.522 48.5178 76.9124 48.9078 77.2052 48.8242C77.498 48.7267 77.5956 48.1834 74.8906 39.6442" fill="#FFFAA2"/>
<path d="M86.3951 77.9245C86.6879 77.827 86.8413 77.4648 85.1542 72.1574C83.467 66.85 80.5946 58.6033 80.3018 58.6869C80.009 58.7844 82.4073 67.1843 84.0805 72.4918C85.7677 77.7992 86.0884 78.0221 86.3951 77.9245Z" fill="#FFFAA2"/>
<path d="M86.9101 35.6883C86.6033 35.7301 87.0355 40.4663 87.4678 43.4613C87.9 46.4563 88.1789 46.5817 88.4857 46.5399C88.7924 46.4981 89.0155 46.2892 88.5833 43.2942C88.151 40.2992 87.2168 35.6465 86.9101 35.6883Z" fill="#FFFAA2"/>
<path d="M90.619 61.2919C90.9258 61.2501 91.1489 61.069 90.7724 58.4083C90.382 55.7476 89.5314 51.6243 89.2247 51.68C88.9179 51.7218 89.2665 55.9148 89.6569 58.5755C90.0473 61.2361 90.3122 61.3336 90.619 61.2919Z" fill="#FFFAA2"/>
<path d="M93.3659 80.1396C93.6727 80.0978 93.8958 79.8749 93.3938 76.462C92.8918 73.0491 91.8739 67.7277 91.5672 67.7695C91.2604 67.8113 91.7903 73.2023 92.2923 76.6152C92.7942 80.0281 93.0591 80.1814 93.3659 80.1396Z" fill="#FFFAA2"/>
<path d="M98.2873 84.5413C98.5941 84.5274 98.8451 84.4159 98.7475 82.4936C98.6499 80.5712 98.2595 77.5762 97.9527 77.5901C97.6459 77.6041 97.5344 80.6269 97.632 82.5493C97.7296 84.4717 97.9806 84.5692 98.2873 84.5413Z" fill="#FFFAA2"/>
</svg>
