<svg width="35" height="28" viewBox="0 0 35 28" fill="none" xmlns="http://www.w3.org/2000/svg">
<path id="Vector" d="M11.0106 28C24.2149 28 31.4392 17.2265 31.4392 7.88651C31.4392 7.58364 31.4323 7.27403 31.4187 6.97116C32.824 5.97052 34.0368 4.73109 35 3.3111C33.6912 3.88444 32.3016 4.25888 30.8786 4.42164C32.3769 3.53741 33.4987 2.14832 34.0361 0.511877C32.6266 1.33432 31.0852 1.91448 29.4779 2.22749C28.395 1.09453 26.9631 0.344386 25.4037 0.0930189C23.8443 -0.158348 22.2442 0.103069 20.8509 0.836852C19.4575 1.57063 18.3485 2.73591 17.6952 4.15253C17.0419 5.56914 16.8808 7.15818 17.2368 8.67398C14.3828 8.53297 11.5907 7.80301 9.04164 6.53141C6.49254 5.25982 4.2433 3.47499 2.43975 1.29262C1.52308 2.84868 1.24258 4.69001 1.65525 6.44238C2.06792 8.19475 3.1428 9.72667 4.66143 10.7268C3.52133 10.6912 2.40621 10.3889 1.4082 9.84509V9.93259C1.40718 11.5656 1.98056 13.1485 3.03087 14.4123C4.08118 15.6761 5.5436 16.5428 7.16953 16.865C6.11341 17.1495 5.00497 17.191 3.92998 16.9862C4.38879 18.3905 5.28146 19.6188 6.48342 20.4996C7.68537 21.3805 9.13664 21.8698 10.6347 21.8995C8.09145 23.8664 4.94984 24.9332 1.71582 24.9282C1.14229 24.9273 0.569332 24.8927 0 24.8245C3.28542 26.8998 7.10723 28.002 11.0106 28Z" fill="#5658A6"/>
</svg>
