<svg width="838" height="507" viewBox="0 0 838 507" fill="none" xmlns="http://www.w3.org/2000/svg">
<path d="M813.796 0.833894C807.022 1.60376 798.399 2.98957 794.55 3.91342C790.7 4.83726 778.228 6.22299 766.834 6.99286C743.277 8.53259 730.343 11.766 713.868 20.2346C698.624 28.0872 673.834 43.0227 668.753 47.4879C666.444 49.6435 660.593 54.5707 655.974 58.574C640.884 71.5077 610.705 105.228 595 126.63C590.073 133.251 581.142 145.261 575.137 153.268C558.046 175.902 547.114 192.839 525.866 228.715C502.616 268.132 495.995 277.986 493.07 277.986C488.758 277.986 481.676 272.443 477.056 265.206L472.283 257.816L473.207 239.339C474.285 221.17 474.131 220.708 470.589 217.475C466.124 213.317 448.571 205.927 438.101 203.771C427.631 201.615 412.695 203.001 404.535 207.004C390.677 213.779 368.043 237.183 347.257 266.438C320.619 304.162 294.598 332.493 273.349 347.428C252.255 362.056 213.762 386.691 203.292 392.081C193.437 397.162 192.975 397.316 174.037 397.316C155.868 397.316 154.328 397.008 144.782 392.542C136.621 388.693 133.08 385.768 126.613 377.761C113.525 361.286 110.446 352.817 109.676 331.877C108.906 309.705 111.985 289.38 119.376 265.668C128.46 237.183 142.472 213.163 170.649 178.211C184.199 161.428 193.437 153.114 212.838 140.334C230.699 128.632 234.086 123.243 230.083 113.389C227.311 106.152 219.459 99.531 208.527 94.6038C202.676 91.9863 197.902 91.2164 187.124 91.0624C170.957 90.9084 164.49 93.372 141.856 108.769C128.46 117.854 90.121 154.038 76.7253 170.205C65.6392 183.754 50.3959 206.696 41.4654 223.326C37.0002 231.794 30.6873 243.496 27.2999 249.501C12.9803 275.677 6.05151 294.461 2.35615 316.634C-3.34087 351.893 0.970389 376.683 18.8313 410.711C32.381 436.425 57.0167 459.213 83.0383 469.683C106.288 479.23 144.936 484.311 169.725 481.385C223 475.072 256.258 462.6 303.682 431.652C314.614 424.569 326.624 416.87 330.628 414.407C352.492 400.857 392.217 368.369 405.613 353.125C409.462 348.66 412.849 345.427 413.157 345.889C413.311 346.196 417.007 353.279 421.01 361.44L428.401 376.529L404.227 414.561C365.888 474.764 301.835 580.236 279.354 619.807C271.964 632.895 259.492 654.451 251.793 667.539C235.164 695.716 210.99 744.064 205.601 759.923C200.058 776.09 200.366 782.249 206.987 788.408C219.767 800.418 248.406 800.418 264.265 788.408C276.737 778.862 305.53 743.756 328.78 709.574C381.439 632.125 390.215 618.576 425.937 558.526C436.869 540.049 458.272 508.177 480.136 477.382C486.141 468.913 495.687 455.21 501.384 446.895C507.081 438.735 512.162 431.96 512.624 431.96C545.267 431.806 579.141 429.034 601.621 425.031C621.176 421.336 659.361 407.478 729.111 378.531C771.146 361.132 834.429 324.794 871.228 296.771C900.945 274.137 942.056 223.48 957.146 190.991C964.69 174.67 967 163.122 967 141.104C967 96.1435 956.992 65.8107 934.204 41.3289C906.796 12.074 859.527 -3.93928 813.796 0.833894ZM819.647 63.8091C824.882 66.1187 830.733 69.814 832.427 71.8157C841.204 81.824 843.051 103.688 837.046 126.63C827.346 163.892 783.156 223.634 732.344 268.44C722.028 277.37 712.02 286.455 709.864 288.456C704.629 293.23 691.08 301.39 678.146 307.549L667.522 312.63L635.957 312.476C618.404 312.476 603.161 311.86 601.775 310.937C599.311 309.705 601.467 306.163 618.096 282.605C646.889 242.11 647.813 240.879 670.909 211.47C689.232 187.912 704.629 167.433 732.036 130.172C740.813 118.316 751.129 105.844 767.45 87.367C779.768 73.5094 783.002 70.8919 793.78 65.5028C800.555 62.1154 807.022 59.3439 808.099 59.3439C809.177 59.3439 814.258 61.3455 819.647 63.8091Z" fill="#5658A6"/>
<path d="M227.928 202.078C218.536 205.311 203.447 216.243 195.748 225.174C181.12 242.419 175.115 263.821 180.812 278.757C186.355 293.23 208.682 306.318 227.928 306.318C243.48 306.472 269.193 287.687 277.97 269.518C283.359 258.74 286.284 234.874 283.513 224.712C281.357 216.859 272.735 207.775 263.496 203.618C254.104 199.46 237.167 198.69 227.928 202.078Z" fill="#5658A6"/>
</svg>
